<?xml version="1.0" standalone="no"?>
<!DOCTYPE svg PUBLIC "-//W3C//DTD SVG 1.1//EN" "http://www.w3.org/Graphics/SVG/1.1/DTD/svg11.dtd" >
<svg xmlns="http://www.w3.org/2000/svg" xmlns:xlink="http://www.w3.org/1999/xlink" version="1.1">
<metadata>
Created by FontForge 20161003 at Wed Mar 28 21:11:47 2018
 By www-data
Copyright (c) 2012 by Font Diner, Inc DBA Sideshow (diner@fontdiner.com) with Reseved Font Name "Mystery Quest"
</metadata>
<defs>
<font id="MysteryQuest" horiz-adv-x="634" >
  <font-face 
    font-family="Mystery Quest"
    font-weight="400"
    font-stretch="normal"
    units-per-em="1024"
    panose-1="2 0 0 0 0 0 0 0 0 0"
    ascent="819"
    descent="-205"
    x-height="512"
    cap-height="749"
    bbox="-158.947 -407.4 899 989"
    underline-thickness="51"
    underline-position="-102"
    unicode-range="U+0020-FB02"
  />
<missing-glyph horiz-adv-x="307" 
 />
    <glyph glyph-name=".notdef" horiz-adv-x="307" 
 />
    <glyph glyph-name="Eth" unicode="&#xd0;" horiz-adv-x="626" 
d="M11 422q-23 -1 -44 7.5t-36.5 24.5t-24 39.5t-8.5 52.5q0 37 23 71.5t64 61t99.5 42t129.5 15.5q62 0 126 -15t117 -55.5t87 -112.5t36 -186q1 -115 -35 -204t-105 -146t-167 -78.5t-220 -0.5v26q17 -3 32.5 -3t27.5 9t19.5 29.5t8.5 57.5q1 28 3 89.5t4 138.5
q-17 -4 -33 -8.5t-30 -9.5q2 14 3 33.5t-5 38.5q11 -2 28 -1.5t37 2.5q1 49 1 98t-2 93.5t-5 82.5t-8 64q-28 1 -63.5 -6.5t-67 -25.5t-53 -46t-21.5 -66q0 -20 7.5 -35.5t20.5 -26t28.5 -16t31.5 -4.5q29 2 46.5 22t15.5 46q-1 13 -7 26t-15 22.5t-20.5 14t-24.5 1.5
q-20 -5 -23.5 -19.5t-1.5 -25.5q2 -12 12 -19t23 -2q-13 5 -14 18.5t9 17.5q14 5 23 -3t9.5 -20t-9.5 -23t-34 -13q-17 -2 -28.5 13t-12.5 36q-1 20 12.5 39t40.5 22q14 1 28.5 -4.5t26.5 -17t20 -27.5t10 -34t-3 -35.5t-17 -31.5t-30 -23t-42 -10zM233 689
q-4 -28 -6.5 -67.5t-4 -84.5t-2.5 -94t-1 -96q36 4 69.5 6.5t57.5 0.5q2 -14 1.5 -29t4.5 -27q-32 2 -65.5 1.5t-67.5 -4.5q1 -33 1 -62.5t2 -55.5q2 -66 9 -99.5t18 -49.5q57 14 105.5 49.5t83.5 88.5t52 121.5t11 149.5q-7 84 -36 134t-68.5 77t-83.5 34.5t-80 6.5z" />
    <glyph glyph-name="eth" unicode="&#xf0;" horiz-adv-x="502" 
d="M385 323q-10 62 -30 101t-43.5 60.5t-47.5 28.5t-42 6q-29 -2 -49 -19.5t-33.5 -45t-20 -62.5t-7.5 -73q-2 -48 7 -96t31 -86q21 -37 53 -54t70 -13q21 2 45 18t42 47.5t26.5 78t-1.5 109.5zM167 663q26 7 55 15t59 17q-30 57 -61 105l12 17q17 -12 42 -40.5t53 -66.5
q45 14 79.5 26t48.5 22q2 -11 1 -26t10 -32q-11 -2 -43 -9.5t-72 -19.5q39 -62 71 -134t38 -140q4 -42 4 -86.5t-6.5 -87t-20 -81t-36.5 -68.5t-57 -48.5t-80 -21.5q-44 -3 -86 14.5t-75.5 53t-54.5 88t-22 120.5q-2 70 17.5 121.5t49.5 85.5t67 51t71 19q33 1 66.5 -10.5
t62.5 -34.5q-10 34 -25 70t-33 73q-35 -11 -65 -23.5t-48 -24.5q-7 14 -10 28.5t-12 27.5z" />
    <glyph glyph-name="Lslash" unicode="&#x141;" horiz-adv-x="526" 
d="M503 255q-14 -85 -11.5 -152.5t14.5 -117.5q-44 7 -108.5 12t-135.5 5t-140 -7t-120 -24l-10 20q21 12 36.5 22t26 25.5t16 40t7.5 65.5q2 40 6 95.5t9 116.5q-32 -13 -59.5 -26t-43.5 -27q0 16 -7 37.5t-14 29.5q20 4 54.5 14.5t72.5 24.5q3 52 4 100t-3 83
q-4 43 -12.5 70t-20 44t-24 26.5t-24.5 15.5l8 16q21 -6 50 -10.5t62 -6.5t67 -1t66 6l3 -18q-29 -14 -50.5 -59.5t-33.5 -129.5q-2 -20 -4.5 -47t-4.5 -59q26 11 48.5 21t35.5 18q1 -5 3 -14q2 -8 4 -19t6 -27q-10 -3 -37.5 -11.5t-62.5 -19.5q-1 -14 -1.5 -29.5
t-0.5 -30.5q-1 -37 -0.5 -74t2 -71.5t3.5 -65t5 -54.5q10 -11 30.5 -17.5t67.5 -7.5q79 -2 120.5 30.5t52.5 86.5q3 16 7 34q3 15 6.5 33.5t6.5 36.5l28 -3v0z" />
    <glyph glyph-name="lslash" unicode="&#x142;" horiz-adv-x="252" 
d="M-29 430q31 17 62.5 33t61.5 33q-3 67 -9 125t-14 96q-6 20 -17 38q-9 15 -24.5 28.5t-39.5 18.5l-1 14q19 -2 36 -2.5t30 -0.5h27q18 1 35 3q14 2 30 4t27 6q-3 -94 -5.5 -166t-4.5 -125q28 16 49 30t32 25q3 -6 4.5 -14t3.5 -17t6.5 -18.5t12.5 -18.5q-13 -4 -43.5 -18
t-66.5 -34q-2 -32 -2.5 -54t-0.5 -36v-27q-1 -37 0 -80t4.5 -82.5t9.5 -70.5t15 -44q5 -9 16 -16q8 -6 22 -11t34 -7l1 -16q-28 4 -52 5t-43 2h-41q-22 -1 -43 -2q-18 -1 -37.5 -2.5t-34.5 -3.5l-6 13q23 8 38 20.5t23 25.5q10 15 13 31q6 26 9.5 61.5t6 77t3 86.5t-0.5 91
q-26 -15 -47.5 -31.5t-37.5 -30.5q-12 14 -19.5 32t-21.5 29z" />
    <glyph glyph-name="Scaron" unicode="&#x160;" horiz-adv-x="502" 
d="M163 112q-10 0 -14.5 6t-4.5 13t4 12.5t12 4.5q-6 6 -20 5q-11 -2 -20.5 -14.5t-7.5 -29.5q1 -18 15 -34t39 -15q13 0 25 7t21 18.5t14 26.5t5 31q-1 17 -8 33.5t-19.5 30t-30.5 22t-41 8.5q-46 0 -72 -28t-24 -82q1 -27 14 -54.5t36.5 -49.5t56 -35.5t71.5 -13.5
q36 0 63 14t46 36.5t28.5 51.5t9.5 60q0 20 -6.5 44t-23 51t-43.5 57t-68 61q-40 31 -75.5 58t-62 53.5t-42 56t-15.5 66.5t13.5 71.5t40 60.5t65.5 41.5t89 13.5q29 -1 55.5 -10t50 -18t44.5 -14.5t39 1.5q8 3 14 9q5 5 10 13t7 22l28 -2q-3 -19 -7 -48t-5.5 -60.5t0.5 -62
t10 -52.5l-26 -6q-9 28 -20.5 56.5t-27 52.5t-35.5 43t-47 30q-24 9 -48.5 12.5t-47 -3.5t-43 -25t-37.5 -52t-13.5 -76t22.5 -73q11 -20 26.5 -37.5t32.5 -33t35.5 -30.5t36.5 -30q35 -31 65 -62t51.5 -63.5t33.5 -67t12 -70.5q0 -37 -18 -72t-49.5 -62t-73 -43.5
t-87.5 -16.5q-45 0 -84.5 15.5t-68.5 44t-46 67t-17 85.5q0 37 11 62.5t29 41.5t41 23t47 7q25 0 48.5 -7.5t41.5 -23.5t28.5 -41t10.5 -59q0 -24 -10.5 -42.5t-26.5 -31t-34.5 -18.5t-34.5 -5t-29 8t-22.5 17t-14.5 21.5t-5 22.5q1 10 4.5 22t11.5 22.5t20 17t29 6.5
q16 0 26 -9.5t11 -23.5q2 -12 -5.5 -20.5t-18.5 -8.5zM258 819q-29 31 -64 58t-67 46l19 40q32 -12 62 -36.5t53 -49.5l96 92l29 -42q-39 -30 -64 -50.5t-39 -33.5q-17 -15 -25 -24z" />
    <glyph glyph-name="scaron" unicode="&#x161;" horiz-adv-x="455" 
d="M384 45q-6 -21 -17.5 -45t-30.5 -45t-45.5 -35.5t-60.5 -16.5q-24 -2 -45.5 3.5t-39 15.5t-30.5 23t-20 26q-12 26 -13 52.5t10 46.5q16 26 34.5 33t35.5 9q16 2 33 -2t30 -13t21 -22.5t7 -30.5q-1 -14 -7.5 -25.5t-16.5 -20t-21 -13t-20 -3.5q-14 2 -29 9.5t-17 22.5
t3.5 27.5t17.5 17.5q18 7 28.5 5.5t15 -7.5t5.5 -13t0 -11q-3 -10 -10 -14q-6 -4 -16 -2.5t-25 13.5q-3 -11 1 -18t10 -10q7 -4 18 -5q21 -2 33 13.5t10.5 34.5t-18.5 34t-53 13q-22 -2 -34 -14t-16 -28.5t0.5 -34.5t15.5 -31q12 -14 27 -22t31 -11t32 -1.5t30 7.5
q16 7 32 25t24 43.5t3.5 57t-29.5 64.5q-13 18 -47 42.5t-73 53t-74.5 59.5t-51.5 64q-15 32 -16 74t19 81t65.5 70t122.5 41q55 7 100.5 -8t75.5 -44t40.5 -69.5t-4.5 -84.5q-4 -14 -13.5 -29t-24 -28t-34.5 -20.5t-44 -5.5q-18 1 -38 9.5t-37 22t-30 30.5t-16 36
q-8 42 13.5 68t66.5 30q20 1 37 -6.5t29 -19.5t18 -27.5t4 -28.5q-6 -45 -50 -51q-16 -2 -34.5 5t-26.5 27q-5 14 -2 32.5t20 27.5q8 4 17.5 3t16.5 -5.5t10 -12.5t0 -19q-3 -7 -9 -11q-5 -3 -14 -3.5t-24 6.5q1 -13 7.5 -19t14.5 -8q9 -3 19 -3q18 2 27.5 10.5t11.5 20
t-4 24.5t-20 25q-20 15 -47 14.5t-47 -22.5q-26 -32 -13.5 -63t50.5 -51q6 -3 14.5 -7t20 -4.5t25.5 3.5t32 16q27 18 32 48t-4.5 60t-32 54t-51.5 30q-32 6 -57.5 3.5t-45.5 -10t-36 -18t-28 -20.5q-5 -5 -15 -18t-17 -32.5t-6.5 -45t17.5 -54.5q16 -28 41.5 -48.5t54 -38
t56.5 -34t50 -35.5q24 -20 38.5 -45.5t22 -52t8 -50.5t-3.5 -40zM247 680q-29 31 -64 58t-67 46l19 40q32 -12 62 -36.5t53 -49.5l96 92l29 -42q-39 -30 -64 -50.5t-39 -33.5q-17 -15 -25 -24z" />
    <glyph glyph-name="Yacute" unicode="&#xdd;" horiz-adv-x="599" 
d="M49 471q3 62 -1.5 97.5t-14 55t-22 28t-26.5 17.5l3 24q18 -3 43 -6t56.5 -2.5t68.5 5.5t80 18l-2 -23q-17 -5 -33 -16.5t-30 -33.5t-25.5 -57.5t-18.5 -89.5q-7 -53 -10 -105t7.5 -93t37.5 -65t80 -20q53 3 90.5 39t60 87.5t31.5 110.5t5 108q-3 46 -8.5 80t-15 58
t-24 39t-35.5 23l10 21q21 -7 50.5 -13t60 -7.5t58.5 3t46 18.5l2 -22q-16 -11 -32 -30.5t-28 -51t-19.5 -77t-5.5 -107.5q1 -44 7 -84.5t12.5 -84.5t11 -95.5t4.5 -116.5t-9 -129t-33 -116t-67.5 -84t-112.5 -32q-49 0 -82 14.5t-55 38t-33.5 52t-17.5 55.5q-5 23 -8.5 46
t-9.5 45.5t-15 43.5t-25 39q46 -10 86 -13t69 8q-24 -38 -30 -84t3 -90q5 -22 16.5 -46t29.5 -42.5t43.5 -26.5t57.5 1q30 9 55 37t42 70.5t25 97.5t3 118q-7 70 -13 119t-9 84q-11 -25 -28.5 -54t-42.5 -53.5t-58 -41t-75 -16.5q-9 0 -23.5 1t-31.5 5t-36 12.5t-38 23.5
q-16 13 -25.5 29t-15 33.5t-8 35.5t-3.5 35q-2 32 -1.5 70t2.5 82zM359 943q11 -9 18 -18t11 -16q4 -8 7 -15q-21 -11 -45.5 -24.5t-47 -27.5t-42.5 -28t-32 -25l-27 38q49 39 80 62t48 35q20 14 30 19z" />
    <glyph glyph-name="yacute" unicode="&#xfd;" horiz-adv-x="474" 
d="M428 -189q-2 -44 -16.5 -78t-38.5 -56.5t-55.5 -34.5t-67.5 -13t-64.5 12t-48.5 34t-30.5 49t-9.5 57t12.5 51t30.5 36.5t42 21.5t46 7q40 -1 55 -25t15 -55q0 -17 -5.5 -34t-16 -30.5t-25 -22t-32.5 -8.5q-8 0 -17 2t-16.5 8.5t-12.5 18t-5 30.5q0 28 13 44t33 17
q14 0 22.5 -8t10 -18t-4 -18t-19.5 -8q-14 1 -14 11.5t5 18.5q-8 -4 -14.5 -13t-6.5 -23q0 -18 9 -28t23 -10q10 0 18.5 6.5t14.5 16t9.5 21t3.5 22.5q0 32 -20.5 48t-48.5 14q-11 -1 -25 -8t-26 -19.5t-20 -29.5t-7 -37t8 -39t22 -33.5t37.5 -21.5t53.5 -4q62 6 94.5 73
t30.5 178q-1 37 -2 64.5t-2 48.5t-1.5 38t-0.5 34q-8 -27 -20.5 -56t-33 -53t-50 -39t-70.5 -14q-31 1 -54 12.5t-39.5 31.5t-27 47t-14.5 59q-5 40 -0.5 80.5t10.5 79.5q6 51 8.5 87t-2 60.5t-18 41t-38.5 30.5l11 20q11 -3 22.5 -6.5t29 -5t44.5 -0.5t69 6
q-8 -15 -16 -39.5t-15 -54t-12.5 -62.5t-8.5 -64t-2.5 -69t7.5 -71.5t22.5 -57t42.5 -25.5t48.5 11t37 31t24 36t10.5 26t5 31.5t5 55.5t3 68t-1 68q-2 29 -7.5 48t-13.5 31t-17.5 19t-19.5 11l6 20q16 -7 37.5 -11t45 -5.5t45 -1t37.5 3.5q-26 -54 -39 -140.5t-8 -209.5
q2 -56 6 -99t8 -81t6 -75.5t1 -81.5zM359 719q11 -9 18 -18t11 -16q4 -8 7 -15q-21 -11 -45.5 -24.5t-47 -27.5t-42.5 -28t-32 -25l-27 38q49 39 80 62t48 35q20 14 30 19z" />
    <glyph glyph-name="Thorn" unicode="&#xde;" horiz-adv-x="557" 
d="M101 671q-14 35 -39 50.5t-57 18.5l4 28q12 -2 38.5 -6t59.5 -7.5t69.5 -4.5t68.5 2q-4 -14 -11.5 -57t-14.5 -102q25 5 59 6.5t71 -3.5t73.5 -18.5t65 -39t46.5 -63.5t18 -93q0 -48 -17 -85t-45 -64t-64.5 -44.5t-76 -27.5t-78.5 -13t-72 -1q2 -36 5.5 -64t9.5 -43
q7 -12 19 -23q11 -9 29.5 -16.5t47.5 -9.5l-6 -28q-30 3 -66.5 3t-73 -3t-69 -8.5t-54.5 -12.5q-1 8 -1 13.5t-1 9.5l-2 8q11 6 20 12.5t17 17t15 28t15 45.5t13.5 70t8.5 92t3 105.5t-2 111.5q-2 62 -5 117t-21 99zM206 451q-3 -45 -5.5 -98.5t-2.5 -106.5q0 -21 4.5 -29.5
t16.5 -8.5q7 0 26.5 1t45.5 6.5t54 16.5t51.5 31t37.5 50.5t13 74.5q-1 40 -14.5 68t-34 46t-44.5 28t-46.5 14.5t-40.5 5.5t-26 1q-21 1 -25.5 -18t-7.5 -47q-1 -9 -1 -18t-1 -17z" />
    <glyph glyph-name="thorn" unicode="&#xfe;" horiz-adv-x="531" 
d="M315 569q31 1 63 -16.5t58.5 -54.5t43 -93.5t16.5 -132.5t-22 -133t-55.5 -94.5t-74.5 -56t-79 -16.5q-39 2 -66.5 18t-45.5 40q-1 -27 -1.5 -62.5t-1 -70.5t0 -65.5t0.5 -49.5q2 -46 27 -69.5t68 -30.5l-8 -19q-26 4 -64 4.5t-75.5 -3t-69.5 -10t-46 -15.5l-9 17
q20 13 36 25t28.5 35.5t21 64.5t13.5 110q3 46 4.5 104t2 120t0.5 124.5t-0.5 118t-1 100t0.5 71.5q1 41 -6 76t-22.5 61.5t-38.5 42.5t-53 18l6 25q68 -9 114.5 -8.5t81.5 11.5q-2 -26 -3.5 -62t-2.5 -76.5l-2 -81t-1 -75.5q29 48 71 77t92 32zM425 289q1 21 -2.5 47
t-10.5 52.5t-18.5 51t-27.5 43t-36.5 28.5t-45.5 7q-38 -5 -64 -34t-42.5 -68.5t-23.5 -84t-7 -78.5q0 -19 3 -54.5t14.5 -71t33 -61.5t58.5 -26q30 0 59.5 18.5t53 51.5t39 79t17.5 100z" />
    <glyph glyph-name="Zcaron" unicode="&#x17d;" horiz-adv-x="515" 
d="M-10 50q40 46 67.5 85.5t53.5 80.5t57 87.5t78 107.5q70 91 112.5 154t62.5 102q-77 10 -138.5 9t-108 -24t-77.5 -73.5t-46 -139.5l-33 1q4 19 9 56t7.5 80.5t2 86.5t-6.5 73q59 -8 123 -14t127.5 -6.5t124 6.5t114.5 26q-1 -18 1 -29t4 -17q3 -7 6 -10
q-110 -143 -228.5 -307t-232.5 -357q43 1 86 1t83 3.5t74 12t59 26.5q32 22 51.5 59.5t33.5 93.5l22 -1q-14 -61 -22 -112t-13 -89q-5 -44 -7 -81q-53 12 -107 22t-108 14t-107.5 -1t-106.5 -21q-3 28 -6 46.5t-5 29.5q-3 12 -6 19zM288 788q-29 31 -64 58t-67 46l19 40
q32 -12 62 -36.5t53 -49.5l96 92l29 -42q-39 -30 -64 -50.5t-39 -33.5q-17 -15 -25 -24z" />
    <glyph glyph-name="zcaron" unicode="&#x17e;" horiz-adv-x="419" 
d="M403 210q-12 -47 -18 -88t-8 -72q-3 -36 -1 -67l-16 -5q-6 14 -13 25.5t-20.5 19.5t-36.5 11.5t-61 0.5q-28 -2 -61 -4q-28 -2 -64.5 -4t-76.5 -5q36 65 77 125t78.5 117t69.5 111t50 107q-35 8 -80 8.5t-85.5 -11t-70 -35.5t-32.5 -65l-19 4q6 24 11 49.5t7.5 51
t2.5 49.5t-4 44l22 3q6 -11 18 -20.5t34 -15t55.5 -6.5t83.5 5q37 5 68 9q26 3 50 6t32 2q-26 -62 -60.5 -128t-69 -129.5t-63.5 -121t-45 -101.5q43 -1 76 -0.5t59.5 12.5t48.5 40.5t44 82.5zM222 609q-29 31 -64 58t-67 46l19 40q32 -12 62 -36.5t53 -49.5l96 92l29 -42
q-39 -30 -64 -50.5t-39 -33.5q-17 -15 -25 -24z" />
    <glyph glyph-name="onehalf" unicode="&#xbd;" horiz-adv-x="601" 
d="M395 45q38 10 75 13.5t61 -4.5q-5 -13 -6 -26t-1 -30q-18 7 -39.5 12t-45 6t-48.5 -3t-51 -15q-1 15 -1.5 25.5t-5.5 17.5q15 15 38.5 36.5t45.5 49t38 61.5t17 73q1 38 -13.5 64.5t-43.5 27.5q-26 1 -45.5 -22.5t-21.5 -55.5q-1 -20 12.5 -36.5t38.5 -12.5q9 1 15.5 7.5
t9.5 14.5t3.5 17.5t-1.5 16.5q-5 -8 -15.5 -9t-15.5 11q-4 9 0.5 17.5t13 12.5t18 2t15.5 -14q5 -10 5 -23.5t-4 -26.5t-12 -24.5t-18 -17.5q-16 -8 -39.5 -5t-36.5 25q-9 15 -11.5 33.5t2.5 37.5t18.5 36.5t36.5 29.5q17 8 40.5 7t45.5 -13t37 -35.5t15 -59.5
q0 -30 -10 -61.5t-27.5 -61t-40.5 -55t-48 -43.5zM442 751q23 -8 52 -8t46 6q-41 -53 -103.5 -143t-130.5 -202q-37 -60 -70.5 -119.5t-62 -114t-51 -102t-38.5 -83.5h-40t-49 -8q67 109 118 195t86 147q40 71 71 125q39 66 70 122.5t53.5 97.5t35 64t13.5 23zM160 400
q-14 5 -32.5 6t-38.5 -4q4 24 8.5 57t7.5 71.5t4.5 80t-0.5 81.5q-13 -16 -28.5 -31t-32.5 -20l-6 14q26 18 42.5 43t25.5 44l37 6q-2 -24 -1 -66.5t3.5 -92t5.5 -100t5 -89.5z" />
    <glyph glyph-name="onequarter" unicode="&#xbc;" horiz-adv-x="591" 
d="M84 -15h-40t-49 -8q67 109 118 195t86 147q40 71 71 125q39 66 70 122.5t53.5 97.5t35 64t13.5 23q23 -8 52 -8t46 6q-41 -53 -103.5 -143t-130.5 -202q-37 -60 -70.5 -119.5t-62 -114t-51 -102t-38.5 -83.5zM537 223q-7 -22 -11 -44t-5 -45q-19 14 -55 19q1 -28 4 -54
q2 -23 6.5 -47.5t10.5 -41.5l-80 -12q4 35 7.5 75t6.5 82q-35 0 -74.5 -4t-74.5 -9q1 18 0.5 37t-5.5 25q13 11 30.5 29t34.5 40.5t31.5 47.5t21.5 51l78 5v-67t1 -58q0 -30 1 -56q21 4 39.5 10t32.5 17zM423 190q2 42 2 78t-3 63q-9 -17 -23 -37t-31 -40t-34.5 -38
t-33.5 -29q25 1 57 0.5t66 2.5zM147 748q-2 -24 -1 -66.5t3.5 -92t5.5 -100t5 -89.5q-14 5 -32.5 6t-38.5 -4q4 24 8.5 57t7.5 71.5t4.5 80t-0.5 81.5q-13 -16 -28.5 -31t-32.5 -20l-6 14q26 18 42.5 43t25.5 44z" />
    <glyph glyph-name="onesuperior" unicode="&#xb9;" horiz-adv-x="219" 
d="M131 748q-2 -24 -1 -66.5t3 -92t4.5 -100t4.5 -89.5q-12 5 -31 6t-38 -4q4 24 8.5 57t7.5 71.5t4 80t-1 81.5q-12 -16 -28 -31t-32 -20l-6 14q25 18 42 43t25 44z" />
    <glyph glyph-name="threequarters" unicode="&#xbe;" horiz-adv-x="622" 
d="M100 488q6 5 12.5 4.5t11 -4t5.5 -9.5t-3 -12q11 2 19 10t8 20q0 14 -11.5 23.5t-25.5 8.5q-19 -1 -36 -16.5t-17 -43.5q1 -11 6 -23t15 -21.5t23.5 -14.5t30.5 -2q12 2 26.5 10t27.5 23t23 37t12 51q2 30 -5.5 44.5t-20 18t-27 -1t-27.5 -13.5l-26 41l93 84q-17 2 -38 2
t-43 -3t-43 -10t-38 -18q2 12 4 22t2.5 19.5t0 20t-3.5 25.5q12 -8 41.5 -12.5t64 -5t67.5 3.5t53 12q-6 -36 -6 -52q-1 -10 0 -16l-99 -76q43 10 69 -2.5t28 -63.5q1 -29 -11.5 -57.5t-33.5 -52t-48 -38t-54 -14.5t-44 11t-26.5 26t-12.5 32t-1 29q3 18 12 31.5t22.5 22
t29 11.5t31.5 -1q17 -5 27 -17t11 -28q1 -23 -13.5 -40.5t-40.5 -17.5q-9 0 -15.5 4.5t-10 11.5t-2.5 14t7 13zM115 -15h-40.5t-48.5 -8q67 109 118 195t86 147q40 71 71 125q38 66 69.5 122.5t54 97.5t35 64t13.5 23q23 -8 52 -8t45 6q-40 -53 -102.5 -143t-130.5 -202
q-37 -60 -70.5 -119.5t-62 -114t-51 -102t-38.5 -83.5zM552 134q-19 14 -55 19q1 -28 4 -54q2 -23 6.5 -47.5t10.5 -41.5l-81 -12q4 35 7.5 75t7.5 82q-36 0 -75 -4t-74 -9q1 18 0.5 37t-5.5 25q13 11 30.5 29t34.5 40.5t31 47.5t22 51l78 5v-67t1 -58q0 -30 1 -56
q20 4 38.5 10t32.5 17q-6 -22 -10 -44t-5 -45zM454 190q2 42 2 78t-3 63q-9 -17 -23 -37t-31 -40t-34.5 -38t-33.5 -29q25 1 57 0.5t66 2.5z" />
    <glyph glyph-name="threesuperior" unicode="&#xb3;" horiz-adv-x="306" 
d="M85 488q6 5 12.5 4.5t11 -4t5.5 -9.5t-3 -12q11 2 18.5 10t7.5 20q0 14 -11.5 23.5t-25.5 8.5q-18 -1 -35.5 -16.5t-16.5 -43.5q0 -11 5.5 -23t15 -21.5t23.5 -14.5t31 -2q12 2 26.5 10t27.5 23t23 37t12 51q2 30 -5.5 44.5t-20 18t-27 -1t-27.5 -13.5l-27 41l94 84
q-17 2 -38 2t-43 -3t-43 -10t-38 -18q2 12 4 22t2.5 19.5t0 20t-3.5 25.5q12 -8 41 -12.5t63.5 -5t68 3.5t52.5 12q-3 -18 -4 -31t-1 -21v-16l-99 -76q43 10 69 -2.5t28 -63.5q1 -29 -12 -57.5t-34 -52t-47.5 -38t-53.5 -14.5t-44 11t-26.5 26t-12.5 32t-1 29
q2 18 11.5 31.5t22.5 22t29 11.5t32 -1q17 -5 27 -17t11 -28q1 -23 -14 -40.5t-41 -17.5q-8 0 -14.5 4.5t-10 11.5t-2.5 14t7 13z" />
    <glyph glyph-name="twosuperior" unicode="&#xb2;" horiz-adv-x="279" 
d="M222 649q0 -30 -10.5 -61.5t-27.5 -61t-40.5 -55t-48.5 -43.5q38 10 75.5 13.5t61.5 -4.5q-5 -13 -6 -26t-1 -30q-18 7 -39.5 12.5t-45 6.5t-49 -3t-50.5 -16q-1 16 -1.5 26.5t-5.5 16.5q15 15 38.5 36.5t45.5 49t38 61.5t17 73q0 39 -14 65.5t-43 27.5q-26 1 -45.5 -23
t-21.5 -56q0 -10 3 -19.5t9.5 -16.5t16 -11t21.5 -2q10 1 16.5 7.5t9.5 15t3.5 17.5t-1.5 16q-5 -8 -16 -9t-16 11q-4 9 1 17.5t13.5 13t18 2.5t15.5 -14q5 -11 5 -24t-4 -26.5t-12 -24.5t-18 -17q-16 -9 -39.5 -6t-36.5 26q-9 14 -11.5 33t2.5 38t18.5 36t36.5 29
q17 9 40.5 7.5t45.5 -13.5t37 -35.5t15 -59.5z" />
    <glyph glyph-name="brokenbar" unicode="&#xa6;" horiz-adv-x="185" 
d="M55 399q0 36 2 66.5t2 65t-2.5 79t-10.5 109.5l54 1q0 -92 5 -174t11 -148zM47 280q20 -2 34.5 -3t23.5 5q0 -16 1 -56.5t2.5 -89t4 -95.5t6.5 -75l-61 -6q-3 48 -4 93t-1.5 86t-1.5 76.5t-4 64.5z" />
    <glyph glyph-name="minus" unicode="&#x2212;" horiz-adv-x="475" 
d="M41 385q47 0 105.5 -0.5t113 0.5t98.5 4t61 8q0 -6 -2.5 -14t-4.5 -17t-2.5 -19.5t3.5 -21.5q-10 2 -35 3.5t-58.5 2t-72 -0.5t-76 -3t-70 -6t-53.5 -10q-4 18 -2 37t-5 37z" />
    <glyph glyph-name="multiply" unicode="&#xd7;" horiz-adv-x="402" 
d="M219 336q14 -20 34 -43.5t40.5 -46t39.5 -41t32 -28.5q-7 -3 -18 -9.5t-21.5 -14.5t-19.5 -17t-12 -16q-5 15 -15.5 35t-24 43.5t-29.5 48.5t-31 50q-17 -24 -34.5 -50.5t-33 -50.5t-28.5 -44t-19 -32q-5 1 -13.5 5.5t-17.5 11t-17 14t-11 15.5q12 10 29.5 26.5
t37.5 38.5t41.5 48t41.5 55q-15 23 -36 55q-18 27 -44.5 66t-61.5 90q14 8 32.5 18t31.5 25q3 -13 15 -39.5t27.5 -58t32 -63.5t30.5 -55q20 31 39.5 61.5t35.5 58.5t27.5 51t15.5 38q10 -10 27.5 -23.5t39.5 -23.5q-17 -18 -38.5 -42t-43 -50.5t-43 -54t-38.5 -51.5z" />
    <glyph glyph-name="space" unicode=" " horiz-adv-x="307" 
 />
    <glyph glyph-name="exclam" unicode="!" horiz-adv-x="195" 
d="M31 697q21 -2 40.5 0.5t36 6.5t30 8t21.5 4q-10 -12 -19.5 -52t-16.5 -96t-10 -121.5t0 -129.5q2 -63 3 -102.5t3 -61.5t5.5 -31t11.5 -11q-20 3 -46 1t-37 -4q9 15 12.5 33t3.5 42.5t-2.5 58t-5.5 79.5q-2 30 -3.5 68.5t-3 79t-3.5 80t-4.5 71t-6.5 52.5t-9 25zM88 66
q20 8 39 5t28 -23q6 -15 -2 -33.5t-32 -28.5q-23 -10 -43.5 -5t-25.5 23q-5 17 5 35.5t31 26.5z" />
    <glyph glyph-name="quotedbl" unicode="&#x22;" horiz-adv-x="248" 
d="M81 706q5 -20 6 -47t1 -60.5t1.5 -73.5t6.5 -86l-64 -4q3 32 5 70t1.5 75.5t-3.5 69.5t-9 52zM145 708q9 2 17 1t15 -2t14.5 -2t15.5 1q-6 -27 -10 -62t-5.5 -72t0.5 -73t8 -66l-53 5q-3 18 -2.5 53.5t2 76t2 79t-3.5 61.5z" />
    <glyph glyph-name="numbersign" unicode="#" horiz-adv-x="637" 
d="M570 721q-17 -36 -35 -82.5t-35 -97.5q37 4 67 9t44 13l-26 -83q-12 1 -40 0.5t-66 -1.5q-15 -47 -29 -94.5t-26 -92.5q41 4 76.5 8.5t62.5 10.5l-11 -68q-13 -1 -52 -3t-91 -6q-17 -70 -27.5 -126t-10.5 -85q-20 0 -49 -1.5t-50 -8.5q7 13 15.5 35.5t17.5 51t18.5 62
t19.5 69.5q-37 -2 -75 -4t-74 -4q-17 -63 -30 -116t-20 -90q-40 0 -62 -3q-13 -2 -24 -3q13 33 32.5 89t39.5 119q-41 -3 -72 -6t-48 -6q6 17 13.5 41t5.5 41q15 -5 46 -7t73 -2q20 63 32 114q4 16 8.5 33.5t9.5 37.5q-51 -5 -91 -9.5t-60 -9.5q12 18 21.5 42t9.5 42
q21 -3 57.5 -4t79.5 0q10 38 20 75t16.5 66t8.5 47.5t-2 20.5q5 -3 19.5 -4t31.5 -1t33.5 0.5t25.5 1.5q-14 -23 -34.5 -77t-45.5 -127q14 0 27 0.5t25 1.5q19 1 39.5 2.5t41.5 2.5q7 27 16 58q7 26 16 58.5t18 64.5q10 -2 24 -2q12 0 30.5 1t44.5 6zM357 286
q14 54 26.5 104t22.5 86q-34 -2 -68.5 -3.5t-69.5 -3.5q-14 -46 -29 -94t-29 -95q73 2 147 6z" />
    <glyph glyph-name="dollar" unicode="$" horiz-adv-x="422" 
d="M319 437q4 31 6.5 67t-2.5 68t-19.5 56t-45.5 32q-30 9 -54.5 1t-41.5 -25.5t-26 -42.5t-8 -51t13.5 -49t32 -44t44.5 -41t51 -41q53 -42 82 -84t25 -95q-2 -24 -12 -48t-29.5 -44t-48 -34t-66.5 -18q1 -11 2 -23q1 -11 2 -26t3 -32l-44 -6q4 14 5.5 38t-1.5 47
q-23 0 -40 4t-30 7.5t-24 5.5t-21 -1q-30 -7 -44 -44l-28 20q10 24 20 60t17.5 74.5t12.5 74.5t6 60l32 -11q-15 -37 -12.5 -72t18.5 -67q8 -16 23 -31.5t36 -23t46.5 -4t54.5 25.5q28 21 37.5 50.5t0.5 62t-35.5 65.5t-69.5 61q-41 28 -70 48t-47 39t-26.5 40t-8.5 51
q0 24 11.5 50.5t31.5 49.5t47 39.5t59 20.5q0 13 -1.5 31t-3.5 34q8 -1 15.5 0t13.5 3q7 2 14 5q-2 -17 -2.5 -30t-1.5 -23q-1 -11 -1 -20q31 -2 55 -8.5t41 -14.5q23 -7 36.5 -1.5t27.5 21.5l24 -8q-9 -14 -18 -42t-16.5 -62.5t-13.5 -73t-9 -73.5z" />
    <glyph glyph-name="percent" unicode="%" horiz-adv-x="609" 
d="M125 -28q-4 5 -11 13t-18 15.5t-26 13t-36 4.5q122 189 208.5 316.5t140.5 205.5q63 92 103 145q-20 -14 -40.5 -27t-43 -18.5t-46.5 -1t-50 24.5q-18 14 -32 23t-25 15q13 -22 22.5 -50.5t10.5 -68.5q0 -27 -11 -59t-33 -57.5t-55 -39.5t-77 -5q-41 8 -62 28t-28.5 45.5
t-5 52.5t8.5 49t23 51.5t44 55t63 40.5t80 8q25 -5 42.5 -17.5t34.5 -26t36.5 -24t48.5 -10.5q22 1 44 9q19 7 40.5 21.5t38.5 42.5q5 -8 17 -20.5t28 -17.5q-3 -3 -19.5 -25.5t-42 -59.5t-58.5 -87.5t-69 -109.5q-37 -62 -72.5 -125t-67.5 -123t-59 -113t-46 -93zM232 575
q4 22 2 44.5t-8.5 41t-16.5 31t-23 15.5t-31 -2t-35.5 -17.5t-33 -34t-24.5 -52.5q-8 -30 -6 -57.5t11.5 -48t25 -33t34.5 -12.5q20 0 37.5 10.5t31 28t23 40t13.5 46.5zM482 318q17 -1 35 -11t32.5 -29.5t23 -49.5t5.5 -72t-17.5 -74.5t-36.5 -54t-50 -32t-59 -8.5t-52 15
t-33.5 34t-17 47.5t-1.5 55.5q2 28 15.5 60.5t35.5 59.5t52.5 44t67.5 15zM521 156q8 66 -6 95t-41 32q-15 1 -31.5 -3t-32 -16t-28.5 -33t-20 -52q-7 -32 -5 -59.5t10.5 -48.5t23 -34t32.5 -14q36 -4 63 31t35 102z" />
    <glyph glyph-name="ampersand" unicode="&#x26;" horiz-adv-x="595" 
d="M438 452q18 1 36.5 -5.5t34 -20.5t25.5 -37t10 -55q0 -19 -8 -43.5t-22 -52.5t-34 -57t-45 -57q23 -25 47.5 -40t60.5 -33q-15 -3 -30 -9t-28.5 -14t-24 -17t-15.5 -18q-5 17 -17 41t-30 53q-26 -24 -55 -44t-60.5 -35t-66 -23.5t-70.5 -7.5q-48 1 -79 15.5t-47.5 38.5
t-19 55.5t6 66.5t27.5 70.5t46 68.5q22 26 46.5 56.5t50.5 62.5q-35 60 -54.5 121t-3.5 121q8 31 30 54t50 36.5t58.5 15.5t56 -8.5t42 -36t15.5 -67.5q0 -29 -11.5 -57.5t-30.5 -58t-43 -61t-50 -66.5q37 -71 80 -129.5t88 -114.5q28 28 51 63t35 69.5t9.5 65.5t-26.5 53
q-16 14 -41 12.5t-42 -16.5q-17 -16 -22.5 -37.5t8.5 -38.5q10 -13 19.5 -16.5t17.5 -1.5q-5 8 -2.5 19.5t17.5 13.5q11 2 17.5 -3t8 -13t-1.5 -16.5t-11 -14.5q-14 -11 -32.5 -11t-35 8.5t-27.5 26t-9 43.5q2 38 30.5 61t70.5 25zM186 640q-27 -58 5 -140q5 -12 10 -23
l10 -22q21 29 38.5 55.5t31.5 52.5q12 23 19 43.5t8.5 37.5t-5 29.5t-21.5 19.5q-12 6 -25.5 4.5t-26.5 -9t-24.5 -20t-19.5 -28.5zM132 70q20 -23 49 -25.5t61.5 8t66.5 31t63 45.5q-25 36 -53 75.5t-57 79.5q-14 19 -28 39.5t-28 41.5q-28 -40 -51.5 -82t-36 -81.5
t-11 -73.5t24.5 -58z" />
    <glyph glyph-name="quotesingle" unicode="'" horiz-adv-x="137" 
d="M81 706q5 -20 6 -47t1 -60.5t1.5 -73.5t6.5 -86l-64 -4q3 32 5 70t1.5 75.5t-3.5 69.5t-9 52z" />
    <glyph glyph-name="parenleft" unicode="(" horiz-adv-x="279" 
d="M258 769q-23 -47 -44 -99.5t-36.5 -106.5t-24.5 -106t-9 -96t5.5 -87.5t18.5 -91.5t35 -103t55 -123l-37 -19q-35 54 -63 102.5t-48 97t-31 101.5t-12 116q-1 42 8 86.5t24 88.5t34 84.5t39 74t38.5 58.5t32.5 38z" />
    <glyph glyph-name="parenright" unicode=")" horiz-adv-x="284" 
d="M25 784q20 -19 50.5 -65t59 -106t48 -128t18.5 -131t-12 -116t-31 -101.5t-48 -97t-64 -102.5l-36 19q33 68 55 123t35 103t18.5 91.5t5.5 87.5t-9 96t-24.5 106t-36.5 106.5t-44 99.5z" />
    <glyph glyph-name="asterisk" unicode="*" horiz-adv-x="431" 
d="M220 559q15 9 35 23.5t40.5 32.5t40 38.5t35.5 41.5q1 -14 5.5 -31t11 -35t15 -35.5t18.5 -32.5q-21 4 -46 2.5t-51 -6t-51.5 -12.5t-47.5 -18q22 -28 61.5 -63t84.5 -58q-9 -6 -22.5 -13.5t-27.5 -16.5t-26.5 -19.5t-19.5 -20.5q-5 23 -12 47.5t-17 47.5t-22 42t-26 31
q-18 -24 -35.5 -63t-33.5 -87q-6 8 -16 20t-23 24.5t-27.5 24.5t-28.5 19q50 20 83.5 41t59.5 44q-15 13 -36 24t-42 19.5t-40.5 13t-32.5 6.5q20 23 36 54.5t19 54.5q9 -12 21.5 -29t27.5 -35.5t32.5 -35.5t35.5 -29q2 25 3 53.5t0.5 56t-4 51.5t-10.5 40q38 -14 66 -21
t57 -2q-15 -19 -29.5 -44.5t-27 -52t-21.5 -51t-12 -41.5z" />
    <glyph glyph-name="plus" unicode="+" horiz-adv-x="519" 
d="M296 588q-3 -10 -5.5 -31t-4 -49.5t-3 -61.5t-1.5 -67q23 1 49.5 2.5t51.5 3t46.5 3t33.5 3.5q-2 -9 -4.5 -29t-2.5 -35q-32 2 -78 3.5t-96 0.5q0 -77 4 -121.5t6 -66.5q-8 0 -19.5 -1t-23 -3t-21.5 -4t-14 -3q4 13 6.5 34t4 47.5t2 56.5t0.5 60q-53 -2 -101.5 -7.5
t-80.5 -16.5q-3 7 -4 18.5t-0.5 23t1 21.5t-0.5 15q11 -2 32.5 -3.5t47.5 -2t54 -0.5h52q0 33 -0.5 68.5t-2.5 65.5t-5 50t-9 22q18 -2 37.5 -5t48.5 9z" />
    <glyph glyph-name="comma" unicode="," horiz-adv-x="166" 
d="M75 87q22 2 37.5 -11.5t20.5 -35.5q4 -19 1 -39.5t-13.5 -38t-29 -30t-46.5 -15.5l-7 25q14 3 31 13t23 35q-8 -3 -16 -3q-23 -2 -39.5 12t-16.5 35q0 20 16 36t39 17z" />
    <glyph glyph-name="hyphen" unicode="-" horiz-adv-x="475" 
d="M41 385q47 0 105.5 -0.5t113 0.5t98.5 4t61 8q0 -6 -2.5 -14t-4.5 -17t-2.5 -19.5t3.5 -21.5q-10 2 -35 3.5t-58.5 2t-72 -0.5t-76 -3t-70 -6t-53.5 -10q-4 18 -2 37t-5 37z" />
    <glyph glyph-name="period" unicode="." horiz-adv-x="172" 
d="M75 86q23 2 39 -12t17 -35q0 -22 -16 -37t-39 -16q-23 -2 -39.5 12t-16.5 35q0 20 16 36t39 17z" />
    <glyph glyph-name="slash" unicode="/" horiz-adv-x="373" 
d="M44 -25h-38t-47 -7q54 109 95.5 195t69.5 147q33 71 57 125q31 66 56 122t42.5 97t27.5 64t12 23q23 -7 51 -7t44 5q-34 -52 -87 -142t-108 -202q-30 -61 -56.5 -120.5t-49 -114t-40 -102t-29.5 -83.5z" />
    <glyph glyph-name="zero" unicode="0" horiz-adv-x="606" 
d="M297 762q45 0 87.5 -23.5t75.5 -68t53.5 -109.5t21.5 -148q0 -37 -3.5 -83.5t-13.5 -94t-28 -92.5t-45 -80t-65 -56t-89 -21q-44 0 -88 23t-79 70.5t-56.5 119.5t-21.5 170t22.5 171.5t58.5 123t80.5 74t89.5 24.5zM275 28q33 -3 59.5 15t47 49.5t35 73.5t23 87.5
t11.5 91t1 84.5q-3 52 -14.5 105t-29.5 96.5t-41 71t-49 27.5q-41 0 -71.5 -31t-51 -79.5t-31.5 -107t-13 -111.5q-1 -36 -0.5 -76.5t5 -81t13 -78.5t23 -67.5t35 -48t48.5 -20.5z" />
    <glyph glyph-name="one" unicode="1" horiz-adv-x="324" 
d="M224 170q3 -39 9.5 -62.5t17.5 -37.5t26 -20t36 -10l-2 -22q-18 4 -52.5 6t-74 0.5t-79.5 -7.5t-69 -18v29q23 3 41.5 9t31.5 20t20.5 38.5t8.5 63.5q1 23 3 62.5t4 87t4.5 100.5t4.5 103t2.5 93.5t-0.5 73.5q-8 -28 -23 -64.5t-35.5 -66t-45.5 -44.5t-53 -1l5 20
q30 -17 62.5 38.5t80.5 176.5q7 -6 17 -11q8 -5 19 -9t25 -5q-2 -185 4 -325t12 -218zM-15 627v1v-1z" />
    <glyph glyph-name="two" unicode="2" horiz-adv-x="500" 
d="M454 -38q-25 8 -66.5 18.5t-90.5 14t-101 -5t-97 -37.5q-4 7 -8 11t-7 6q-4 3 -7 4q12 37 37.5 75.5t56 79.5t62.5 87t58.5 98t43.5 112.5t17 130.5q0 30 -10 58t-29 48.5t-46.5 31.5t-63.5 7t-60.5 -22t-40 -41t-22.5 -48.5t-7 -44.5t7.5 -41t23.5 -40t41.5 -29.5
t60.5 -10.5q22 0 37 10t23.5 24t12 29.5t3.5 27.5q0 11 -4 25.5t-13.5 26.5t-25 19.5t-39.5 5.5q-23 -2 -33.5 -19t-10.5 -32q0 -17 10.5 -30.5t27.5 -13.5q9 0 15 4.5t10 9.5q-8 -2 -12.5 3.5t-6.5 10.5q-2 8 3 17.5t16 9.5q14 0 20.5 -9.5t6.5 -20.5q0 -5 -2.5 -13.5
t-8.5 -16.5t-15 -13.5t-22 -5.5q-14 0 -25 6.5t-19.5 17t-13 23t-4.5 24.5q0 9 4.5 20.5t13.5 22t23 17.5t34 7q27 0 47.5 -11.5t34.5 -29t20 -39t4 -41.5q-2 -21 -11 -39.5t-25 -33t-38 -23t-49 -8.5q-41 0 -73.5 13.5t-55 36t-34 51.5t-11.5 60q0 30 13.5 67t38.5 69
t60.5 53.5t79.5 21.5q58 0 100 -16t69.5 -44t40.5 -67t13 -84q0 -61 -14.5 -112.5t-38.5 -96t-54.5 -84.5t-62.5 -78.5t-62.5 -77.5t-54.5 -82q32 17 82.5 25t106.5 3q34 -3 55 -1t36 9.5t26 19t25 28.5q-3 -39 -7 -65t-8 -43q-4 -19 -10 -30z" />
    <glyph glyph-name="three" unicode="3" horiz-adv-x="507" 
d="M461 221q0 -36 -12 -79t-38.5 -80t-70 -61.5t-106.5 -24.5q-62 0 -103.5 18t-66.5 46.5t-35 63.5t-10 68t13 60.5t36 47t53.5 30t65.5 9.5t58 -15.5t36.5 -34t19 -39.5t4.5 -33q-1 -14 -6 -33t-16.5 -36t-30.5 -28.5t-49 -9.5q-20 1 -33.5 9t-22.5 20t-13 26.5t-4 29.5
q0 29 19 44.5t42 17.5q21 1 30.5 -6.5t11 -18t-4.5 -20t-18 -10.5q-10 -2 -16 2t-8.5 10t-0.5 12.5t9 9.5q-14 0 -26.5 -12.5t-12.5 -32.5q1 -23 15.5 -41t41.5 -16q16 1 28.5 9t20.5 20t12 26.5t3 27.5q-1 12 -6 28t-15.5 30.5t-28.5 24t-44 8.5q-52 -2 -80.5 -35
t-26.5 -87q1 -26 10.5 -51t28.5 -43.5t49 -28.5t71 -6q42 4 73 26t51 53t29.5 66.5t8.5 66.5q-1 36 -15 71.5t-41 58t-65.5 25t-87.5 -27.5l-20 25q21 25 47 60.5t53.5 76t54 85t47.5 88.5q-62 9 -117.5 12t-98.5 -13.5t-72 -59.5t-39 -125l-25 10q4 22 8 53t4.5 64
t-2.5 63.5t-12 52.5q34 6 85 3.5t110 -4.5t121.5 0.5t121.5 18.5l18 -85q-19 -16 -50 -50t-65 -74.5t-66 -81.5t-53 -72q28 8 67 6.5t73.5 -21.5t59 -64.5t24.5 -122.5z" />
    <glyph glyph-name="four" unicode="4" horiz-adv-x="550" 
d="M480 -38q-27 8 -65 8.5t-77.5 -4.5t-75 -15t-56.5 -23l-7 21q25 21 41 41t26 43t14 51t6 67q1 20 1 62t-2 94q-37 -4 -65.5 -7t-56 -8t-57 -12t-69.5 -18l-17 83q17 16 31.5 32.5t31 42t37.5 64.5t50 101t46 103t26 67t11 39.5t0 19.5q20 -5 38 -8t32 -5q16 -3 30 -4
q-3 -54 -3.5 -107t-0.5 -95q0 -50 2 -95q-1 -37 2 -74.5t5 -73.5q5 0 8 0.5t7 0.5q35 1 56.5 13t32.5 28.5t15 35t4 32.5l20 -1q-2 -18 -4 -45.5t-2 -59.5t3 -67.5t11 -69.5l-21 -4q-7 28 -14 48t-19.5 32t-34.5 16.5t-59 2.5q5 -51 9 -94.5t7 -73.5q4 -48 9.5 -76t16 -44.5
t28 -25.5t46.5 -17zM130 333q41 5 78.5 9t76.5 6q-1 45 -2.5 91.5t-2.5 91t-2.5 83.5t-2.5 69q-17 -37 -38.5 -84t-41.5 -95t-37.5 -93t-27.5 -78z" />
    <glyph glyph-name="five" unicode="5" horiz-adv-x="512" 
d="M471 243q0 -50 -11.5 -101.5t-39 -93t-74 -66t-115.5 -20.5q-53 3 -88.5 21.5t-56.5 44.5t-29.5 57t-7.5 58q1 25 15 52.5t36.5 49t52 35t62.5 10.5t52.5 -15t30 -28t13 -33t2.5 -28t-6.5 -29t-18.5 -34.5t-29.5 -28.5t-41.5 -11q-18 0 -30 7.5t-18.5 18.5t-8.5 23.5
t0 23.5q5 22 22 37t33 14q10 0 16 -5.5t7.5 -12.5t-0.5 -14t-6 -11q-10 -8 -22 -4t-11 17q-20 -11 -20 -37q0 -14 13 -24.5t29 -11.5q9 0 20.5 5.5t21 16.5t16 27.5t6.5 37.5q-1 21 -10 34.5t-21.5 20.5t-27.5 9t-28 1q-15 -1 -33.5 -8t-35 -21t-28 -35.5t-11.5 -51.5
q0 -29 13 -54t35.5 -43t53.5 -27t66 -6t62 21t45 47.5t27.5 68t11.5 82.5q4 85 -20 137t-72 58q-24 3 -54.5 -7.5t-61 -27.5t-57.5 -38t-43 -40l-63 38l4 36t3.5 42t1.5 56t-1 77q0 35 -3 68q-2 29 -6.5 59.5t-11.5 53.5q45 -1 94.5 -1.5t102 2t106 9.5t105.5 22
q-3 -74 -7 -140.5t1 -107.5l-21 -5q-4 40 -11.5 77.5t-24.5 64t-48 39t-83 2.5q-43 -8 -72 -18t-47 -21q-2 -29 -4 -65.5t-3 -73t-1 -70.5t3 -59q65 38 115.5 50.5t103.5 6.5q65 -8 103.5 -64t38.5 -146zM73 627v1v-1z" />
    <glyph glyph-name="six" unicode="6" horiz-adv-x="500" 
d="M368 616q-15 -3 -23 8.5t1 23.5q-13 0 -21.5 -12t-8.5 -25q0 -14 13 -24.5t33 -7.5q20 2 37 20t17 55q0 23 -14 42t-40 19q-50 0 -93.5 -32.5t-78 -85t-59 -119t-36.5 -134.5q12 23 32 49.5t47 47.5t62 33t78 6q36 -5 62.5 -28.5t44.5 -56.5t27 -71t11 -72
q1 -22 -2.5 -51.5t-12.5 -61t-24 -62.5t-36 -55t-49 -39t-64 -15q-53 -1 -98 21t-77 64.5t-49.5 104.5t-15.5 141q1 53 14 108t35 107t52 97t66 78t76 50.5t82 14.5q34 -3 54 -18t28.5 -36.5t5 -46.5t-15.5 -48q-11 -20 -26.5 -32.5t-32.5 -17.5t-34 -1t-32 18
q-4 4 -7.5 12.5t-5 18.5t0.5 21t8 21q11 19 32.5 27t38.5 -1q10 -6 14 -14.5t3 -17t-6 -15t-13 -8.5zM227 431q-18 -3 -41 -20.5t-42.5 -46.5t-32 -68.5t-7.5 -87.5t21 -85t38 -62.5t47.5 -38.5t49.5 -12t47 20t39.5 52t24.5 78.5t2 98.5t-21.5 88t-36 55t-43.5 26.5
t-45 2.5z" />
    <glyph glyph-name="seven" unicode="7" horiz-adv-x="413" 
d="M423 764q-19 -49 -38 -107t-37 -117.5t-34 -118.5t-29 -111t-22.5 -94t-12.5 -68q-5 -38 -4.5 -61t6.5 -36t16 -18t25 -7l-3 -26q-31 2 -66 1.5t-68.5 -3.5t-61.5 -9.5t-44 -15.5l-8 23q23 14 38 23t27 24.5t24.5 43.5t29.5 80q10 32 25 74t32 89t35 97t35.5 97.5t33 90
t27.5 75.5q-66 13 -119 10t-95 -14q-21 -6 -35 -14t-24.5 -26.5t-19 -52t-16.5 -89.5l-26 1q3 22 5.5 54t3 68t-2 74t-10.5 71q47 -15 101 -24t109 -10.5t107 5t96 21.5z" />
    <glyph glyph-name="eight" unicode="8" horiz-adv-x="532" 
d="M489 175q-8 -66 -34 -108t-61.5 -65.5t-75.5 -30t-74 -2.5q-35 4 -77.5 19.5t-77 48t-55 85t-11.5 130.5q4 41 18 71t34 51t44.5 34t49.5 20q-28 9 -51 24.5t-39 38t-22.5 53.5t-0.5 72q8 59 31.5 95t53.5 56.5t61.5 27.5t55.5 7q52 1 94.5 -18t71.5 -50t43.5 -71
t10.5 -80q-5 -62 -40 -106t-91 -61q29 -11 57.5 -29.5t49.5 -47.5t31.5 -69.5t3.5 -94.5zM143 685q-27 -38 -31 -75.5t6.5 -69.5t31 -55t40.5 -32q23 -11 49.5 -11t53 9t50.5 26.5t42 43.5q18 27 25.5 56.5t6 57.5t-11.5 52t-26 39q-13 12 -41.5 21t-62.5 8t-69.5 -17
t-62.5 -53zM113 254q-8 -33 -6.5 -71t14 -72.5t37.5 -60.5t66 -34t73 2.5t55.5 35.5t39 62t23.5 83q7 44 -2.5 78.5t-28.5 58.5t-42.5 38.5t-43.5 18.5q-35 7 -65.5 -1.5t-54.5 -28t-41 -48t-24 -61.5z" />
    <glyph glyph-name="nine" unicode="9" horiz-adv-x="473" 
d="M432 488q-2 -65 -21.5 -141t-57 -146.5t-92.5 -127.5t-127 -84q-6 16 -9.5 30t-7.5 27t-10.5 23.5t-18.5 18.5q46 -6 99 30t97 102.5t72 157t26 191.5q-6 -33 -16 -69t-26 -67t-40.5 -53t-59.5 -27q-44 -6 -83 3.5t-69 34.5t-49 64.5t-23 92.5q-4 54 13 101t46 82.5
t67 57t77 24.5q56 4 97 -21.5t67.5 -71.5t38.5 -106.5t10 -125.5zM342 560q6 36 4.5 70.5t-9 62t-21 46t-32.5 24.5t-42.5 0.5t-46.5 -21t-44 -42t-34 -63.5q-15 -43 -17 -83t7 -72t28 -53t45 -26t52.5 5t49 32t38.5 53t22 67z" />
    <glyph glyph-name="colon" unicode=":" horiz-adv-x="176" 
d="M80 333q23 2 38 -8t16 -32q2 -21 -14 -37t-43 -17q-19 -1 -36.5 8t-20.5 31q-1 10 4 19.5t13.5 17t19.5 12t23 6.5zM77 86q22 2 38.5 -12t16.5 -35q0 -22 -16 -37t-39 -16q-23 -2 -39 12t-16 35q0 20 16 36t39 17z" />
    <glyph glyph-name="semicolon" unicode=";" horiz-adv-x="178" 
d="M83 333q23 2 38 -8t16 -32q2 -21 -14 -37t-43 -17q-19 -1 -36.5 8t-19.5 31q-1 10 4 19.5t13 17t19 12t23 6.5zM75 87q22 2 37.5 -11.5t20.5 -35.5q4 -19 1 -39.5t-13.5 -38t-29 -30t-46.5 -15.5l-7 25q14 3 31 13t23 35q-8 -3 -16 -3q-23 -2 -39.5 12t-16.5 35
q0 20 16 36t39 17z" />
    <glyph glyph-name="less" unicode="&#x3c;" horiz-adv-x="404" 
d="M348 244q-7 -31 -7 -47q0 -9 1 -14q-5 1 -26.5 11t-52 24.5t-66.5 32t-70 34.5t-62.5 31.5t-44.5 23.5q19 9 46.5 21.5t59 27.5t64.5 30.5t63 30t54.5 26t38.5 19.5q-6 -15 -8 -34t-1 -29q-11 -5 -41.5 -17t-67.5 -26.5t-72 -28t-53 -21.5q16 -8 47 -22.5t66.5 -29.5
t71 -27t60.5 -16z" />
    <glyph glyph-name="equal" unicode="=" horiz-adv-x="462" 
d="M46 309q26 6 61 7t79 1t97 1.5t114 7.5l6 -70q-42 4 -92.5 6t-100 1.5t-92 -3.5t-69.5 -10zM45 458q36 -6 82 -10t95 -5.5t97 0.5t87 8l-7 -56q-24 -3 -71 -2.5t-100.5 2t-104 2t-80.5 -3.5q-5 19 0.5 33.5t1.5 31.5z" />
    <glyph glyph-name="greater" unicode="&#x3e;" horiz-adv-x="394" 
d="M36 434q4 16 5.5 27.5t1.5 19.5q0 9 -1 14q6 -2 27.5 -12t52 -24.5t66.5 -32t69.5 -34t62 -31t44.5 -23.5q-29 -14 -75 -35.5t-95 -44.5t-91.5 -43.5t-63.5 -31.5q5 15 7.5 33t0.5 29q11 5 42 17t67.5 26.5t71.5 28.5t53 22q-16 8 -46.5 22t-66.5 29t-71.5 27.5
t-60.5 16.5z" />
    <glyph glyph-name="question" unicode="?" horiz-adv-x="485" 
d="M243 715q51 0 92.5 -14t70.5 -37.5t44.5 -54t14.5 -62.5q-2 -54 -24 -93.5t-54.5 -67t-70 -44t-70.5 -23.5q-1 -18 -0.5 -41.5t2.5 -49t6 -50.5t12 -46q-8 2 -23.5 1.5t-32 -2.5t-32 -6t-24.5 -10q5 28 9.5 66t7 74t3.5 64t-1 35q20 -2 54.5 5.5t67 30t55.5 61t20 98.5
q-2 42 -19 67.5t-42 39t-54.5 17t-55.5 0.5q-30 -3 -56.5 -15t-44.5 -30.5t-26.5 -44.5t-3.5 -58q3 -20 16.5 -37.5t33.5 -29t44.5 -15.5t48.5 3q18 6 31 17t20 25.5t8 29.5t-4 29q-9 27 -27.5 37.5t-37.5 9.5q-27 -2 -41.5 -13.5t-16.5 -26.5q-2 -21 11.5 -29.5t27.5 -8.5
t24 10q-8 2 -14 9.5t-1 18.5q3 7 11 10t16.5 0.5t14 -10.5t3.5 -23q-4 -19 -22 -28t-36 -10q-8 0 -18.5 3t-20.5 9.5t-16.5 16.5t-6.5 24q-1 26 21.5 47t60.5 21q18 0 35.5 -5.5t31.5 -15.5t23 -24.5t10 -32.5q2 -26 -6.5 -48.5t-27 -39t-46.5 -26t-64 -8.5q-38 1 -66 12
t-46.5 27.5t-27.5 36.5t-9 41q0 39 18 72.5t50 58t75.5 39t94.5 14.5zM214 86q25 3 41 -7.5t17 -33.5t-15 -40t-45 -18q-20 -1 -38.5 8.5t-20.5 32.5q-2 22 17.5 38.5t43.5 19.5z" />
    <glyph glyph-name="at" unicode="@" horiz-adv-x="841" 
d="M457 39q34 1 67 8q29 6 62 19t61 38l40 -67q-58 -37 -116 -54t-114 -17q-88 0 -165.5 33t-136 88t-93 127.5t-36.5 152.5q-2 88 31.5 162t89 127t124.5 82.5t138 29.5q84 0 155.5 -26t124 -73.5t82 -113.5t29.5 -146q0 -70 -25.5 -123t-61.5 -86.5t-74.5 -47t-63.5 -5.5
q-19 7 -34.5 22t-26.5 37q-9 -12 -22 -24.5t-29 -23t-34.5 -17t-39.5 -6.5q-27 0 -58.5 14t-58 42t-44 69.5t-17.5 97.5t17 98.5t42 71.5t54 43.5t53 14.5q38 0 66.5 -13.5t45.5 -27.5v12q0 5 0.5 11.5t0.5 11.5l118 5l-3 -32q-10 -3 -21.5 -9t-22 -16.5t-17.5 -27.5t-8 -41
v-40t2 -51t5.5 -54.5t9.5 -50t15 -38t21 -18.5q19 -5 43.5 9t46.5 43t37 71t14 93t-22 101.5t-62 90.5t-101 63.5t-139 20.5t-138.5 -33.5t-100 -77t-60.5 -102.5t-20 -109t24.5 -112.5t71.5 -109.5t115.5 -83t158.5 -33zM399 203q40 4 60.5 27t29.5 49q-2 15 -3.5 31
t-1.5 33q1 33 1.5 70.5t1.5 71.5q-9 14 -28.5 26.5t-55.5 11.5q-22 -1 -43 -11t-37.5 -30.5t-26 -51t-8.5 -72.5q0 -21 3.5 -49t15 -52.5t33 -40.5t59.5 -13z" />
    <glyph glyph-name="A" unicode="A" horiz-adv-x="574" 
d="M113 231q-44 -4 -85.5 1.5t-74 22t-53 45t-23.5 70.5q-3 39 12.5 66t39.5 41t53.5 16.5t55 -7t43.5 -31t20 -53.5q3 -46 -19 -66t-53 -21t-53.5 13t-24.5 46q-1 16 3.5 27.5t11 19t15.5 11t17 3.5q17 1 27.5 -7.5t12.5 -25.5q1 -16 -9 -22.5t-23 -1.5q-9 3 -10.5 14
t3.5 20q-9 -2 -15 -9t-6 -21q0 -18 10 -30.5t38 -10.5q14 0 22.5 7t13.5 16t6.5 18.5t1.5 15.5t-2.5 18t-11 23.5t-24 20.5t-41.5 11q-27 1 -44 -8.5t-27 -24.5t-14 -32t-3 -30q1 -26 15.5 -47t43 -34.5t71 -18.5t98.5 2q15 38 29 79t26 81t21 78t13 70q9 76 -15 119.5
t-71 45.5l4 26q18 -3 51.5 -7t73.5 -6.5t80 -2t72 7.5l1 -16q-13 -4 -24 -8t-18 -10.5t-10 -17t1 -26.5q4 -17 13 -65t22 -113t30 -140t37 -144t40.5 -122t41.5 -86.5t43 -46t46 -1.5q12 7 21 19q8 11 14 28t7 43l15 3q4 -16 2 -40.5t-11 -48.5t-27 -42.5t-46 -21.5
q-23 -3 -51.5 2t-57 29t-55 74t-45.5 137q-5 25 -10 49.5t-10 47.5q-29 -2 -79 -5t-104 -7q-15 -63 -23 -112q-5 -30 -4.5 -49t5.5 -30.5t16.5 -18.5t29.5 -13l-1 -21q-17 4 -52 5t-74.5 -1.5t-78 -9t-60.5 -18.5l-8 34q21 9 35.5 12.5t25.5 10t21 20t21 40.5q9 20 24.5 57
t35.5 85h-1zM309 651q-8 -32 -20 -74t-25 -89.5t-26.5 -98.5t-25.5 -100q47 7 88.5 11t72.5 6q-23 108 -40 194t-24 151z" />
    <glyph glyph-name="B" unicode="B" horiz-adv-x="584" 
d="M-42 419q-30 0 -49.5 11.5t-30.5 27.5t-16 34t-5 31q-1 36 19.5 78.5t67.5 80t122.5 62.5t184.5 25q28 0 72 -8t86 -29t72 -58.5t29 -95.5q0 -39 -13 -70.5t-34.5 -55.5t-51.5 -39.5t-64 -22.5q33 -3 68 -15.5t64.5 -35.5t48.5 -56t20 -78q1 -63 -29.5 -116.5t-93 -85.5
t-156 -39t-219.5 23q10 18 17.5 34t12.5 33.5t8.5 37.5t6.5 45q2 17 5.5 48t7.5 71t8 87t6.5 95.5t3 96.5t-1.5 91q-2 33 -3 54.5t-3 35.5q-55 -8 -97.5 -28.5t-71.5 -49t-43.5 -63t-11.5 -70.5q3 -35 30.5 -51.5t63.5 -11.5q18 3 31 13.5t21 24.5t10.5 31t-0.5 33t-12 24
t-20 10.5t-22.5 0.5t-19.5 -7q-6 -4 -11 -11.5t-7 -16.5t1 -18.5t14 -15.5q1 12 9 20.5t20 4.5q7 -3 10 -10.5t1 -16t-9 -15.5t-20 -8q-9 -1 -19 2t-18.5 10t-14 18.5t-4.5 28.5q1 15 9 27t20 20t27 12t30 3q66 -3 67 -80q0 -19 -7.5 -38t-23.5 -34.5t-39 -25t-53 -9.5z
M205 722q-2 -32 -7.5 -71.5t-10.5 -83.5t-8.5 -90.5t-1.5 -92.5q44 -6 87.5 11t78.5 49t56.5 74.5t21.5 87.5q0 35 -22 61t-55 41t-70.5 19t-68.5 -5zM178 337q1 -31 0 -69t-3.5 -78t-5.5 -80.5t-6 -76.5q40 -14 89 -11t91.5 23.5t70.5 59.5t26 98q-2 39 -16 65t-36.5 42.5
t-50 24.5t-56.5 10t-56 -0.5t-47 -7.5z" />
    <glyph glyph-name="C" unicode="C" horiz-adv-x="602" 
d="M296 -72q-56 2 -108.5 30.5t-92 82t-61.5 131.5t-18 180t36.5 181t80.5 131.5t105.5 77.5t113.5 19q34 -4 60 -19t45 -36.5t32 -46t21 -47.5q6 -6 13 -6q19 -1 34.5 28.5t26.5 97.5l28 -3q-9 -34 -19.5 -78.5t-19 -91.5t-14 -93t-3.5 -83q-15 6 -28 8.5t-24 3.5
q-12 1 -22 0q2 62 -3.5 119t-20.5 100.5t-39.5 70.5t-60.5 30q-32 3 -69 -13.5t-70 -59t-57 -113.5t-30 -177q-3 -56 4 -118t28 -114.5t57 -87t91 -33.5q42 3 78 22q31 17 61 51t43 98l33 -20q-8 -26 -24 -64.5t-43.5 -74.5t-68 -60.5t-95.5 -22.5z" />
    <glyph glyph-name="D" unicode="D" horiz-adv-x="626" 
d="M11 422q-23 -1 -44 7.5t-36.5 24.5t-24 39.5t-8.5 52.5q0 37 23 71.5t64 61t99.5 42t129.5 15.5q62 0 126 -15t117 -55.5t87 -112.5t36 -186q1 -115 -35 -204t-105 -146t-167 -78.5t-220 -0.5v26q17 -3 32.5 -3t27.5 9t19.5 29.5t8.5 57.5q1 22 2.5 67.5t3 103t2.5 122.5
t-0.5 126.5t-4.5 114.5t-10 87q-28 1 -63.5 -6.5t-67 -25.5t-53 -46t-21.5 -66q0 -20 7.5 -35.5t20.5 -26t28.5 -16t31.5 -4.5q29 2 46.5 22t15.5 46q-1 13 -7 26t-15 22.5t-20.5 14t-24.5 1.5q-20 -5 -23.5 -19.5t-1.5 -25.5q2 -12 12 -19t23 -2q-13 5 -14 18.5t9 17.5
q14 5 23 -3t9.5 -20t-9.5 -23t-34 -13q-17 -2 -28.5 13t-12.5 36q-1 20 12.5 39t40.5 22q14 1 28.5 -4.5t26.5 -17t20 -27.5t10 -34t-3 -35.5t-17 -31.5t-30 -23t-42 -10zM233 689q-5 -42 -8.5 -108t-4.5 -138.5t-0.5 -143.5t2.5 -122q1 -41 3 -71.5t5 -52.5t7 -36.5
t11 -23.5q61 13 111 50.5t84 95t49.5 133.5t8.5 165q-7 84 -36 134t-68.5 77t-83.5 34.5t-80 6.5z" />
    <glyph glyph-name="E" unicode="E" horiz-adv-x="618" 
d="M-31 453q-69 1 -101 42t-26 102q3 30 21.5 60t54.5 52t91.5 32t132.5 1q17 -2 56 -4.5t91.5 -3t115 3t125.5 14.5q0 -21 -0.5 -54t-0.5 -68t2 -67.5t8 -51.5l-30 -4q0 52 -11.5 91t-42 62.5t-86 30.5t-144.5 -4q-9 -54 -14.5 -123.5t-5.5 -160.5q76 -17 116.5 11.5
t48.5 104.5l24 -4q-4 -21 -8 -54t-5.5 -71t0.5 -77.5t10 -73.5l-20 -8q-7 31 -15 57.5t-24.5 43t-46 21t-80.5 -8.5q2 -50 5 -105.5t8 -118.5q5 -10 13.5 -19.5t25.5 -17t44 -12t68 -4.5q57 -1 92.5 16.5t55 41.5t26 50.5t6.5 43.5l29 -3l-13 -206q-22 0 -59 -0.5t-82.5 -2
t-97 -4t-102 -6.5t-97 -10t-82.5 -14l-6 20q20 8 37 19.5t28.5 34.5t17.5 63.5t5 107.5q-1 60 -2.5 130t-3.5 136.5t-4 124t-3 92.5q-30 10 -72 9.5t-79.5 -15t-64 -44t-26.5 -76.5q0 -27 10 -47t26 -32.5t36.5 -18t42.5 -3.5q22 1 39 10t28 22.5t16 30.5t2 34q-5 33 -31 50
t-60 3q-14 -6 -26 -20t-10 -35q1 -11 8 -19.5t16.5 -11.5t20 -0.5t19.5 12.5q-9 0 -15.5 5t-6.5 15q0 6 4 11.5t10.5 8t14 1t13.5 -9.5t5 -20t-8.5 -22.5t-21 -17t-32.5 -4.5q-23 3 -35 19.5t-13 38.5q-2 25 17.5 49.5t56.5 27.5q29 3 47.5 -7t29 -25.5t14 -34t3.5 -33.5
q0 -14 -6.5 -31.5t-21 -32.5t-38 -25t-57.5 -10z" />
    <glyph glyph-name="F" unicode="F" horiz-adv-x="459" 
d="M70 594q-3 66 -40 101.5t-91 42.5l5 26q26 -12 66 -19t88.5 -10.5t102 -3.5t106 2.5t101 7.5t87.5 12q-4 -26 -8.5 -59t-7.5 -66t-3 -63.5t5 -52.5l-20 -3q-14 54 -33.5 92.5t-52.5 60t-83 24.5t-125 -13q-5 -80 -8 -142t-3 -121q48 7 78.5 18t49.5 26.5t29.5 37
t19.5 51.5l25 -5q-9 -38 -12 -70t-3.5 -63t1.5 -62.5t4 -66.5l-21 4q-2 42 -19 63.5t-42 29t-54 4.5t-56 -9q1 -49 4 -100.5t9 -115.5q3 -38 11.5 -63t20.5 -40.5t26.5 -23t29.5 -11.5v-22q-14 2 -46.5 4t-70.5 1t-76.5 -6t-65.5 -17l-7 21q25 11 43 23.5t30 30t17.5 42
t5.5 59.5q0 23 -1 59t-2.5 78t-3.5 87t-4 86.5t-3.5 76.5t-2.5 57z" />
    <glyph glyph-name="G" unicode="G" horiz-adv-x="613" 
d="M289 -62q-47 1 -98 26t-92.5 77t-68 133t-25.5 195q1 102 32 177.5t77.5 125.5t100 75t99.5 25q52 0 87 -15.5t58.5 -40.5t38 -56.5t24.5 -63t18 -61t19 -49.5q-23 0 -59.5 -6t-83.5 -29q9 30 16.5 63.5t10 66.5t-1.5 62.5t-17 52.5q-7 12 -19 21t-27 15t-32.5 8
t-33.5 -1q-32 -6 -64.5 -29t-60.5 -65t-50 -103t-32 -143q-12 -96 3.5 -169t46 -122.5t70 -75t77.5 -24.5q37 1 62.5 13t40.5 30t21 40t5 42q-1 28 -3 51t-15.5 41t-43.5 31.5t-88 23.5v24q33 -4 67.5 -7t73.5 -1.5t83.5 8.5t97.5 22l5 -23q-31 -10 -50.5 -27.5t-31.5 -55.5
t-17.5 -102.5t-7.5 -168.5l-29 -2l-8 90q-11 -17 -26.5 -35t-36.5 -32.5t-48.5 -23.5t-63.5 -8z" />
    <glyph glyph-name="H" unicode="H" horiz-adv-x="607" 
d="M-41 -26q22 13 38 22.5t27.5 27t18.5 48.5t12 85q11 109 16.5 205.5t-0.5 196.5q-3 42 -13 69t-22.5 42.5t-24.5 23t-19 12.5l2 21q16 -4 40.5 -9.5t55.5 -9t68 -2.5t78 9l1 -18q-6 -3 -19 -16t-26.5 -37t-25 -61.5t-15.5 -89.5q-4 -33 -5.5 -66.5t-2.5 -66.5
q25 -1 58 -1.5t70 1t75.5 5.5t74.5 13q-1 63 -2 117.5t-2 83.5q-1 26 -8 52.5t-18 49.5t-27 41.5t-35 27.5l2 19q15 -5 48.5 -10.5t74 -9t82 -2.5t74.5 10l-2 -23q-16 -7 -33 -16.5t-31 -26t-24.5 -41.5t-13.5 -63q-3 -39 -6 -99t-3.5 -126.5t3.5 -131.5t15 -114
q7 -32 16 -52.5t21 -34t27 -22t33 -15.5l-9 -15q-28 9 -61.5 15t-67.5 8.5t-65 1t-54 -5.5l-3 24q18 6 31.5 13t22.5 21.5t13 40.5t4 71q-1 28 -1 62v72q-29 3 -65 4.5t-73.5 1.5t-74 -2.5t-66.5 -7.5q1 -56 4 -106t10 -92q4 -29 10.5 -46.5t15 -28t20 -17t26.5 -13.5
l-6 -20q-21 5 -55 6.5t-71 0t-71 -6.5t-55 -14l-12 15v0z" />
    <glyph glyph-name="I" unicode="I" horiz-adv-x="281" 
d="M69 614q-3 30 -11.5 49t-18 30t-19 16t-15.5 8l5 22q40 -17 100.5 -16t155.5 26l4 -14q-11 -5 -22.5 -11.5t-23.5 -20t-23 -36t-19.5 -57.5t-14 -86t-6.5 -121q-1 -84 1.5 -155t12 -123.5t27.5 -84.5t48 -39l-14 -18q-15 2 -45 3t-64 -0.5t-65 -6t-48 -12.5l-4 13
q13 12 26 24.5t22.5 33.5t15.5 55t6 90q-1 61 -1.5 125t-2 122t-3 106t-4.5 78z" />
    <glyph glyph-name="J" unicode="J" horiz-adv-x="519" 
d="M249 -68q-75 -5 -134.5 19t-99 66.5t-56.5 98t-7 113.5q7 45 29 76t49.5 50t57.5 26.5t54 6.5q24 -2 43.5 -13t32.5 -29t18.5 -41t1.5 -49t-13.5 -51t-24.5 -43t-36 -26.5t-47 -2.5q-24 5 -37.5 22t-19.5 37.5t-6 41.5t5 34t13.5 25t19.5 19t24 8.5t27 -5.5
q16 -8 22.5 -24.5t5 -34t-11.5 -30.5t-27 -13q-14 0 -21.5 8.5t-6.5 19.5q0 9 5 15t12 7q6 2 12.5 -2t8.5 -15q6 6 8 13.5t1 13.5q0 12 -8.5 19.5t-22.5 5.5q-6 0 -14 -4.5t-14.5 -13.5t-10.5 -22.5t-2 -31.5q1 -18 8 -31.5t16 -22.5t18.5 -13t17.5 -4q16 0 30 12.5t24 31.5
t15 42.5t4 45.5q-1 18 -9 32.5t-20 24t-26 13.5t-27 2q-21 -2 -44 -12.5t-41.5 -29.5t-30 -47t-10.5 -65q1 -39 17.5 -74.5t44 -63t65.5 -43.5t82 -15q47 1 77 32t45.5 82t20 118t0.5 141q-3 78 -11 137t-27.5 100t-55 65t-94.5 32l-2 23q22 -3 61 -4.5t86.5 -0.5t98 5.5
t95.5 13.5l2 -21q-19 -9 -35 -22t-27 -37t-17 -61.5t-6 -95.5q1 -45 8 -101t11.5 -116t1.5 -120.5t-21 -115.5q-18 -54 -60 -89.5t-115 -41.5z" />
    <glyph glyph-name="K" unicode="K" horiz-adv-x="559" 
d="M-20 -3q15 11 29 26t26 37.5t20.5 55.5t11.5 80t5 105.5t2.5 119.5t-1.5 118.5t-7 101.5q-4 31 -14 49t-22 28.5t-25 16t-22 11.5l7 23q21 -8 50.5 -12t62 -5t66.5 2t65 10l6 -21q-20 -6 -36.5 -25.5t-22.5 -67.5q-2 -15 -5 -40.5t-6 -58t-6 -71t-6 -78.5q41 3 83 23.5
t77.5 55t61 82.5t34.5 106q3 24 0.5 37.5t-8 20.5t-12 8.5t-11.5 1.5l2 22q12 -2 40.5 -4t65.5 -2.5t79 2t82 10.5l1 -20q-21 -6 -40 -12t-36 -16t-32.5 -26t-29.5 -42q-18 -32 -41.5 -71.5t-54 -77.5t-67.5 -69.5t-82 -47.5q30 -13 64.5 -34.5t64 -53.5t49 -75.5
t19.5 -99.5q0 -42 -1.5 -86.5t1 -86.5t10 -79.5t24.5 -65t46.5 -44t74.5 -16.5q21 0 39 9.5t31.5 25t21.5 34t8 36.5t-6 34t-16 27.5t-22.5 18t-25.5 6.5q-26 0 -46.5 -19t-20.5 -42q0 -24 10 -38.5t31 -14.5q17 0 28.5 12.5t13.5 29.5q-9 -14 -24 -14q-13 1 -22 9.5
t-7 18.5q2 11 12 18.5t27 4.5q18 -3 27 -17.5t5 -33.5q-2 -9 -6.5 -19t-13 -17.5t-21.5 -12t-31 -2.5q-22 2 -35 14.5t-17.5 30.5t-0.5 38.5t16.5 38t32.5 28.5t47 10q16 0 31.5 -9.5t28 -24.5t19.5 -35.5t7 -43.5q0 -21 -7.5 -46t-26 -46.5t-49.5 -36t-77 -13.5
q-36 0 -73 20.5t-66.5 59t-47.5 95t-16 130.5q1 45 1 93.5t-11 88.5q-14 42 -37.5 81.5t-63.5 62.5q-23 14 -51.5 16.5t-61.5 0.5q-3 -69 -3 -128.5v-91.5q0 -34 8 -53.5t20.5 -31.5t27.5 -18.5t29 -14.5l-8 -17q-18 3 -50.5 3t-69 -2.5t-71.5 -7t-56 -11.5l-3 21v0z" />
    <glyph glyph-name="L" unicode="L" horiz-adv-x="524" 
d="M-10 -9q21 12 36.5 22t26 25.5t16 40t7.5 65.5q1 41 6 100t9 122t6 123t-2 103t-13 70t-20 44t-24 26.5t-25 15.5l7 16q21 -6 50.5 -10.5t62.5 -6.5t67.5 -1t66.5 6l3 -18q-29 -14 -51 -59.5t-33 -129.5q-5 -35 -9 -93t-6 -125q-1 -37 -0.5 -74t2 -71.5t4 -65t5.5 -54.5
q10 -11 30.5 -17.5t67.5 -7.5q78 -2 120 30.5t53 86.5q3 16 7 34q3 15 6 33.5t6 36.5l29 -3q-14 -85 -11.5 -152.5t14.5 -117.5q-44 7 -109 12t-135.5 5t-139.5 -7t-120 -24l-10 20v0z" />
    <glyph glyph-name="M" unicode="M" horiz-adv-x="793" 
d="M895 -187q2 -22 -6.5 -48.5t-28 -50t-50.5 -39t-74 -15.5q-42 1 -81.5 26.5t-66 70.5t-35.5 107t8 136q11 49 27.5 115.5t32 137.5t26 140t9.5 124.5t-16.5 91t-52.5 38.5q-30 2 -54.5 -17.5t-42.5 -49.5t-29.5 -64.5t-15.5 -61.5q-9 -55 -14 -129.5t-4 -147.5
q0 -24 8 -38.5t19 -22.5t23 -11.5t21 -4.5l-2 -16q-60 -8 -100.5 -16.5t-66.5 -16.5q-30 -9 -49 -17l-9 21q22 11 37.5 27t24.5 39.5t13 55.5t5 75q1 29 2 68.5t0.5 81.5t-3.5 83t-11 73t-22 51.5t-36 19.5q-23 -1 -40.5 -18t-31.5 -44t-24 -59.5t-16.5 -63.5t-10 -56.5
t-4.5 -38.5t-2 -39.5t-0.5 -60t5 -71t14 -72t26.5 -63t43 -43.5l-1 -26q-20 6 -53.5 8.5t-70 0.5t-71 -8.5t-56.5 -18.5l-12 26q24 13 40.5 22.5t28 27.5t17.5 50.5t8 89.5q2 58 4 99t2.5 74t1 62t-0.5 64q-1 34 -6.5 71t-19.5 70.5t-40 59.5t-68 40l-4 20q24 -2 56.5 -4
t64 -2t56 2.5t32.5 10.5q4 -7 6.5 -26.5t3.5 -45t1 -54.5v-56q14 41 32.5 70.5t38.5 48t39.5 27.5t36.5 9q40 0 72 -34t45 -97q32 82 85.5 127.5t123.5 35.5q82 -12 111.5 -97t1.5 -246q-14 -80 -38.5 -161t-47 -155.5t-36 -140t-5.5 -113.5q7 -44 25 -72t39 -43.5t42.5 -21
t37.5 -4.5q22 1 40.5 13t32.5 30t21.5 39t7.5 40q0 13 -5.5 26t-15.5 23t-24.5 16t-31.5 5t-29.5 -8t-20.5 -17.5t-11.5 -22.5t-2.5 -21q2 -20 14 -33t29 -11q8 1 13.5 5t10.5 9q-10 4 -16.5 10.5t-4.5 21.5q1 9 7.5 14.5t15 6.5t15.5 -3t9 -15q1 -11 -1 -24.5t-9 -25
t-20 -19t-34 -7.5t-33.5 11t-18.5 27t-6.5 33.5t3.5 29.5q8 26 33 48.5t70 20.5q21 -2 38 -11t29 -23.5t19 -31.5t9 -33z" />
    <glyph glyph-name="N" unicode="N" horiz-adv-x="604" 
d="M67 610q-14 70 -34.5 105t-63.5 28l-5 28q19 -2 45.5 -2t57 1t61.5 3.5t59 7.5q12 -46 31.5 -104.5t43.5 -122.5t50.5 -130.5t53 -129.5t51 -119t44.5 -98q0 54 -1.5 115.5t-3.5 123t-5 118.5t-7 100q-4 49 -10.5 82t-15.5 54.5t-20.5 35t-26.5 22.5v20q24 -5 54.5 -8
t63 -4.5t66 -0.5t65.5 6v-23q-16 -1 -33.5 -8.5t-32.5 -24.5t-24 -44.5t-9 -67.5q0 -27 1 -73t2 -102.5t1 -118.5t-0.5 -121t-2.5 -109.5t-6 -83.5l-65 7q-31 62 -68 144.5t-76 167.5t-77 163t-71 132q-6 -63 -7 -137.5t3 -150t11 -148t16 -132.5q-26 -1 -58 -3t-60.5 -5
t-49.5 -7t-25 -9l-5 21q18 10 33.5 17t27.5 22t19.5 45t10.5 86q6 114 7.5 226.5t-15.5 205.5z" />
    <glyph glyph-name="O" unicode="O" 
d="M290 -63q-42 0 -91 25t-90.5 76.5t-68.5 131.5t-25 190q2 101 33.5 172.5t77.5 116.5t97.5 66t93.5 21q53 0 101.5 -23t86.5 -67.5t61.5 -110t26.5 -150.5q3 -94 -23 -176.5t-69.5 -143t-99.5 -95t-111 -33.5zM99 348q-1 -30 1 -66.5t9 -74.5t19.5 -74.5t31.5 -65.5
t45 -48t61 -21q34 -2 66 16t59.5 50t49.5 75t37 89.5t22 93t5 87.5q-3 38 -7 65.5t-11 47.5q0 -18 -3.5 -36.5t-12.5 -36.5t-24.5 -34t-39.5 -27q-36 -17 -68 -18.5t-57 9.5t-41.5 34.5t-20.5 57.5q-5 34 5.5 60.5t28.5 45t41 28.5t45 12q7 0 19 -1.5t24 -8t21 -20.5t10 -38
q1 -25 -10.5 -42.5t-28 -27.5t-34 -11.5t-29.5 4.5q-11 7 -13 17.5t2 20t12.5 15.5t18.5 4q15 -4 18.5 -16.5t0.5 -23.5q20 5 29.5 21t9 33t-11 30.5t-31.5 13.5q-38 0 -66 -24.5t-29 -70.5q0 -15 3 -32t12.5 -31t26.5 -22.5t46 -6.5q28 2 49.5 14.5t36 31t22.5 41.5t8 47
q1 43 -10 71.5t-28.5 46t-39 24.5t-41.5 8q-44 1 -85 -29.5t-74 -78.5t-54.5 -108.5t-24.5 -119.5z" />
    <glyph glyph-name="P" unicode="P" horiz-adv-x="559" 
d="M75 566q-7 43 -17 73t-25 50.5t-35.5 33t-48.5 18.5l4 25q15 -6 37 -14.5t50.5 -15t63 -8t75.5 7.5q-4 -26 -7.5 -63t-5.5 -72q16 33 38.5 65.5t52 57t66 36.5t80.5 5q34 -6 62 -30.5t47 -63t27 -88.5t3 -105q-6 -56 -21 -106t-40.5 -86.5t-62 -57t-84.5 -15.5
q-32 3 -59.5 15.5t-50.5 32t-41 44.5t-31 52q0 -26 1 -58.5t3 -66t5 -67t7 -61.5q5 -34 15 -53.5t22 -30t24 -14.5l21 -7l-4 -19q-33 7 -67.5 9t-66 0.5t-58 -6.5t-42.5 -12l-1 28q13 11 24 20.5t19.5 27.5t14 48.5t7.5 82.5q4 104 8 203.5t-9 184.5zM160 483
q-2 -28 7.5 -62.5t29 -66t48 -54.5t64.5 -26q31 -3 54 10t39.5 35t27.5 50t17 56.5t8.5 54t3.5 42.5q0 28 -6 59.5t-19.5 58.5t-34 45t-47.5 20q-36 1 -69.5 -20.5t-59.5 -54.5t-43 -72.5t-20 -74.5z" />
    <glyph glyph-name="Q" unicode="Q" horiz-adv-x="660" 
d="M300 10q40 2 78 28q-14 22 -28.5 39t-31.5 28q-16 11 -36 16.5t-37 3.5q-18 -2 -29 -13t-8 -32q1 -11 8.5 -23.5t19.5 -23t28 -17.5t36 -6zM288 -40q-55 1 -107.5 32t-92.5 85.5t-61.5 130.5t-15.5 168q6 81 31 152t67.5 123.5t102 82t135.5 27.5q60 -2 110 -29.5
t86.5 -76.5t56.5 -117.5t20 -152.5q-1 -57 -12.5 -112.5t-32.5 -104t-51.5 -89t-69.5 -68.5q13 -42 27.5 -88.5t33.5 -86t45 -67.5t62 -33t59.5 7t37.5 31.5t19.5 42.5t4.5 40q0 17 -8 31.5t-20.5 24.5t-28 14.5t-31.5 0.5t-29.5 -12.5t-21.5 -19.5t-10.5 -24.5t3.5 -26.5
t16 -20t21 -9t21 0t16 6q9 8 13 25t-13 29q1 -8 -3 -16t-15 -12q-11 -3 -20 2.5t-11.5 14.5t3 19t22.5 16q7 2 17.5 1t20.5 -6.5t17 -15t7 -24.5t-5.5 -28t-15 -22t-21.5 -14t-25 -5t-26 3.5t-24.5 11t-18.5 20.5t-8 34t7 38.5t21 31t30 21t35 8.5q26 2 47 -6t36 -23t23 -36
t9 -45q1 -26 -8.5 -52.5t-27.5 -47.5t-44 -33.5t-59 -10.5q-48 2 -88.5 25.5t-73.5 79.5q-12 22 -21 48.5t-19 56.5q-6 20 -12.5 38.5t-13.5 35.5q-54 -25 -118 -24zM332 726q-42 -2 -86 -32.5t-79.5 -82.5t-57.5 -122t-20 -149q2 -76 23.5 -130t43.5 -85q3 17 15.5 30.5
t37.5 22.5q23 9 52.5 7.5t59.5 -13.5t57.5 -34.5t47.5 -56.5q42 48 71 132t28 204q0 57 -14.5 113t-40 100t-61 70.5t-77.5 25.5z" />
    <glyph glyph-name="R" unicode="R" horiz-adv-x="558" 
d="M-20 -19q18 6 33 15t26.5 23.5t18.5 36.5t9 54q1 21 2.5 60.5t3 88.5t2.5 103.5t1.5 106.5t0 97t-2.5 75q-2 22 -11 38.5t-22.5 27t-29 16t-28.5 7.5v26q17 -7 37.5 -12.5t47.5 -9.5t61.5 -6t79.5 0q30 1 67 1.5t74 -5t71.5 -18t59.5 -37.5t37.5 -64.5t6.5 -98.5
q-8 -69 -30.5 -113.5t-54 -70t-68 -35t-71.5 -8.5q48 -27 79 -72t51 -108q12 -36 22.5 -66t26.5 -51.5t39 -32t60 -7.5l-6 -20q-17 3 -47 2.5t-63 -3t-63.5 -6.5t-48.5 -10l-6 19q29 14 39 42t-5 81q-8 26 -19 61.5t-27 69.5t-39 62t-54 39q-33 11 -56.5 12t-38.5 -3
q0 -45 1 -90.5t9 -85t25 -69.5t50 -43l-5 -16q-17 2 -48 3.5t-66 -1t-69.5 -9t-57.5 -21.5zM173 683q-11 -44 -18.5 -92.5t-12 -96t-5.5 -90.5t1 -74q63 -11 114 -9.5t88 22.5t59.5 64.5t28.5 116.5q4 44 -7.5 74t-32.5 49t-48.5 28.5t-57.5 12.5t-58.5 1t-50.5 -6z" />
    <glyph glyph-name="S" unicode="S" horiz-adv-x="502" 
d="M163 112q-10 0 -14.5 6t-4.5 13t4 12.5t12 4.5q-6 6 -20 5q-11 -2 -20.5 -14.5t-7.5 -29.5q1 -18 15 -34t39 -15q13 0 25 7t21 18.5t14 26.5t5 31q-1 17 -8 33.5t-19.5 30t-30.5 22t-41 8.5q-46 0 -72 -28t-24 -82q1 -27 14 -54.5t36.5 -49.5t56 -35.5t71.5 -13.5
q36 0 63 14t46 36.5t28.5 51.5t9.5 60q0 20 -6.5 44t-23 51t-43.5 57t-68 61q-40 31 -75.5 58t-62 53.5t-42 56t-15.5 66.5t13.5 71.5t40 60.5t65.5 41.5t89 13.5q29 -1 55.5 -10t50 -18t44.5 -14.5t39 1.5q8 3 14 9q5 5 10 13t7 22l28 -2q-3 -19 -7 -48t-5.5 -60.5t0.5 -62
t10 -52.5l-26 -6q-9 28 -20.5 56.5t-27 52.5t-35.5 43t-47 30q-24 9 -48.5 12.5t-47 -3.5t-43 -25t-37.5 -52t-13.5 -76t22.5 -73q11 -20 26.5 -37.5t32.5 -33t35.5 -30.5t36.5 -30q35 -31 65 -62t51.5 -63.5t33.5 -67t12 -70.5q0 -37 -18 -72t-49.5 -62t-73 -43.5
t-87.5 -16.5q-45 0 -84.5 15.5t-68.5 44t-46 67t-17 85.5q0 37 11 62.5t29 41.5t41 23t47 7q25 0 48.5 -7.5t41.5 -23.5t28.5 -41t10.5 -59q0 -24 -10.5 -42.5t-26.5 -31t-34.5 -18.5t-34.5 -5t-29 8t-22.5 17t-14.5 21.5t-5 22.5q1 10 4.5 22t11.5 22.5t20 17t29 6.5
q16 0 26 -9.5t11 -23.5q2 -12 -5.5 -20.5t-18.5 -8.5z" />
    <glyph glyph-name="T" unicode="T" horiz-adv-x="499" 
d="M-13 468q5 70 6.5 141t-13.5 152q59 -7 121.5 -14.5t128.5 -12t134.5 -3.5t139.5 10l-34 -291h-19q4 52 6.5 95.5t-9.5 76t-45.5 53t-101.5 27.5q-10 -61 -13.5 -137.5t-2 -154.5t7 -150t14.5 -123q8 -45 21 -73t29 -45t34 -25t35 -14l-8 -23q-31 12 -73 16t-83 1
t-76.5 -10.5t-54.5 -17.5l-8 28q18 10 34 23.5t29 36t21 57t10 86.5q1 33 0.5 78t-2.5 96t-4.5 103.5t-5.5 100.5t-6 87t-5 63q-60 -3 -94.5 -18.5t-52.5 -44t-24 -70t-8 -98.5l-28 -6v0z" />
    <glyph glyph-name="U" unicode="U" horiz-adv-x="637" 
d="M50 330q12 88 16.5 158t-2.5 118.5t-27 75.5t-57 29l4 21q24 -3 51 -7.5t57.5 -7t63.5 -2t68 6.5l-2 -23q-9 -3 -20.5 -18.5t-22.5 -47t-20.5 -80.5t-15.5 -119q-3 -46 -5.5 -98t0 -101.5t12.5 -94t30 -77.5t53 -50t83 -12q41 4 66 36t38 83.5t16.5 118t1.5 139.5
q-2 80 -4 135.5t-16 93.5q-12 31 -31.5 43.5t-46.5 20.5l3 24q57 -6 119.5 -6t116.5 11l3 -17q-14 -8 -26.5 -19.5t-22 -29.5t-15.5 -43t-7 -59q0 -34 0.5 -78.5t3 -96t6.5 -108.5t10 -116q7 -59 21.5 -96t32 -50.5t35.5 -2t33 50.5l15 -10q-4 -20 -17.5 -39t-33 -30.5
t-42 -13.5t-44.5 12.5t-41 48.5t-31 93q-9 -26 -22 -53.5t-35 -49t-56 -34t-85 -9.5q-123 7 -179 104t-32 276z" />
    <glyph glyph-name="V" unicode="V" horiz-adv-x="480" 
d="M24 573q-12 34 -21 57t-20 36.5t-28.5 19.5t-46.5 8v22q25 -3 58 -4.5t69 2t73.5 12.5t72.5 27l8 -27q-18 -8 -32 -15.5t-21.5 -22t-9.5 -39t4 -65.5q3 -20 9.5 -52.5t15.5 -71.5t20 -82.5t22 -86.5t21 -82t18 -69q19 45 37.5 100t34 109t27.5 102t17 80q6 38 6 62
t-5 39.5t-14 24.5t-21 17l7 27q20 -8 49 -13t62.5 -8.5t69.5 -5.5t72 -3l-6 -17q-54 -6 -91.5 -46t-65.5 -118q-14 -39 -29.5 -84.5t-31 -94t-30 -97.5t-25.5 -95q-9 -34 -13 -63q-4 -25 -5.5 -48t6.5 -31l-58 -22q-17 24 -28 44.5t-20.5 48.5t-21 69t-29.5 106t-32 115
t-26.5 91t-24 75.5t-23.5 68.5z" />
    <glyph glyph-name="W" unicode="W" horiz-adv-x="884" 
d="M899 648q-21 -14 -41 -31t-35 -44t-23 -67.5t-4 -102.5q2 -41 4.5 -88.5t0.5 -95.5t-11 -92.5t-30 -79.5t-56 -57t-88 -24q-39 -2 -68.5 11t-51 35.5t-35.5 52t-23 61.5q-15 -41 -35.5 -76t-53 -56.5t-78 -25t-109.5 18.5q-47 16 -74 46.5t-40 69t-15 81t1 82t9 72.5
t9 53q10 64 16.5 121.5t1.5 103t-25.5 76t-64.5 40.5l5 20q19 -3 45 -7t54 -6.5t55.5 -2t49.5 5.5q-5 -39 -13.5 -96.5t-16.5 -122.5t-14.5 -132.5t-7.5 -126.5q-3 -119 27.5 -174t107.5 -54q39 1 63 34t37.5 82t18.5 104.5t7 101.5q1 46 0 89.5t-6 80.5t-13.5 66.5
t-20.5 47.5q28 1 48 -1t37.5 -4.5t36.5 -3.5t45 4q-11 -31 -20 -64t-15.5 -72t-10 -86.5t-3.5 -107.5q1 -60 6.5 -109t20 -82.5t40 -49t66.5 -7.5q41 9 64 41t33.5 79t12 105.5t-0.5 119.5q-2 62 -7 105.5t-15.5 71.5t-26.5 42.5t-39 18.5l3 22q61 -10 126 -6.5t136 22.5
l4 -32v0z" />
    <glyph glyph-name="X" unicode="X" horiz-adv-x="565" 
d="M-72 45q21 9 41.5 18t42.5 22.5t45.5 35t50.5 56.5q23 31 57 79.5t69 102.5q-17 29 -33 56t-30.5 50.5t-27 42t-21.5 30.5q-20 25 -36 43.5t-33.5 30.5t-39 18.5t-52.5 8.5l1 28q72 -11 138.5 -13t142.5 15l6 -23q-31 -15 -41.5 -48.5t12.5 -79.5q8 -14 22 -39t33 -59
q38 59 69 109.5t45 78.5q9 19 12 37q2 15 -3 29.5t-24 22.5l5 15q26 -2 57.5 -4.5t63 -3.5t59.5 1t48 9l-2 -24q-21 -5 -39 -9.5t-38 -18t-46 -41.5t-63 -79q-29 -40 -58 -83.5t-57 -88.5q21 -36 44 -74.5t47 -77.5t48 -76t46 -69q29 -44 49.5 -67t36.5 -35t30 -16t31 -8
l1 -20q-30 4 -73 8t-87.5 4.5t-84.5 -2.5t-65 -13l-4 24q25 13 43.5 24.5t26 27.5t3.5 40.5t-23 64.5q-17 36 -46 89t-61 111q-32 -55 -56.5 -101.5t-38.5 -77.5q-18 -39 -11 -54.5t29 -22.5l-6 -22q-32 6 -67.5 8.5t-69 2.5t-63.5 -3t-52 -8l-3 18v0z" />
    <glyph glyph-name="Y" unicode="Y" horiz-adv-x="599" 
d="M49 471q3 62 -1.5 97.5t-14 55t-22 28t-26.5 17.5l3 24q18 -3 43 -6t56.5 -2.5t68.5 5.5t80 18l-2 -23q-17 -5 -33 -16.5t-30 -33.5t-25.5 -57.5t-18.5 -89.5q-7 -53 -10 -105t7.5 -93t37.5 -65t80 -20q53 3 90.5 39t60 87.5t31.5 110.5t5 108q-3 46 -8.5 80t-15 58
t-24 39t-35.5 23l10 21q21 -7 50.5 -13t60 -7.5t58.5 3t46 18.5l2 -22q-16 -11 -32 -30.5t-28 -51t-19.5 -77t-5.5 -107.5q1 -44 7 -84.5t12.5 -84.5t11 -95.5t4.5 -116.5t-9 -129t-33 -116t-67.5 -84t-112.5 -32q-49 0 -82 14.5t-55 38t-33.5 52t-17.5 55.5q-5 23 -8.5 46
t-9.5 45.5t-15 43.5t-25 39q46 -10 86 -13t69 8q-24 -38 -30 -84t3 -90q5 -22 16.5 -46t29.5 -42.5t43.5 -26.5t57.5 1q30 9 55 37t42 70.5t25 97.5t3 118q-7 70 -13 119t-9 84q-11 -25 -28.5 -54t-42.5 -53.5t-58 -41t-75 -16.5q-9 0 -23.5 1t-31.5 5t-36 12.5t-38 23.5
q-16 13 -25.5 29t-15 33.5t-8 35.5t-3.5 35q-2 32 -1.5 70t2.5 82z" />
    <glyph glyph-name="Z" unicode="Z" horiz-adv-x="515" 
d="M-10 50q40 46 67.5 85.5t53.5 80.5t57 87.5t78 107.5q70 91 112.5 154t62.5 102q-77 10 -138.5 9t-108 -24t-77.5 -73.5t-46 -139.5l-33 1q4 19 9 56t7.5 80.5t2 86.5t-6.5 73q59 -8 123 -14t127.5 -6.5t124 6.5t114.5 26q-1 -18 1 -29t4 -17q3 -7 6 -10
q-110 -143 -228.5 -307t-232.5 -357q43 1 86 1t83 3.5t74 12t59 26.5q32 22 51.5 59.5t33.5 93.5l22 -1q-14 -61 -22 -112t-13 -89q-5 -44 -7 -81q-53 12 -107 22t-108 14t-107.5 -1t-106.5 -21q-3 28 -6 46.5t-5 29.5q-3 12 -6 19z" />
    <glyph glyph-name="bracketleft" unicode="[" horiz-adv-x="205" 
d="M45 796q14 -1 35 -2q18 -1 46.5 -1.5t68.5 1.5l-2 -28q-27 -6 -47 -9q-11 -2 -19 -3q-2 -26 -5.5 -63.5t-6.5 -84t-6 -99t-4 -106.5q-1 -68 0 -135t2.5 -124.5t3.5 -101t4 -65.5l22 -2q10 -2 22.5 -3.5t26.5 -4.5l-6 -32q-7 1 -24 2t-38 1t-41.5 -1t-33.5 -4
q-3 61 -2.5 131.5t2.5 140t4 132.5t3 108q0 46 1.5 98.5t2 102t-1 90.5t-7.5 62z" />
    <glyph glyph-name="backslash" unicode="\" horiz-adv-x="429" 
d="M343 -25q-12 36 -29 83.5t-39.5 102t-49 114t-56.5 120.5q-56 112 -108.5 202t-86.5 142q15 -5 43.5 -5t51.5 7q1 0 11 -23t27.5 -64t42.5 -97t56 -122q24 -54 57 -125q28 -61 69.5 -147t96.5 -195q-25 7 -47 7h-39z" />
    <glyph glyph-name="bracketright" unicode="]" horiz-adv-x="210" 
d="M134 -69q-14 1 -35 2q-18 1 -46.5 1.5t-67.5 -1.5l2 28q14 2 26 4.5t21 4.5q10 2 18 3q2 25 5.5 63t7 84.5t6 99t3.5 106.5q1 68 0.5 135t-2 124t-4 101t-3.5 65q-12 0 -23 2t-23 3.5t-26 4.5l6 33q7 -1 24 -1.5t38 -0.5t41 1t33 3q3 -61 2.5 -131.5t-2 -140t-3.5 -132.5
t-3 -108q0 -46 -1.5 -98.5t-2 -102t1 -90.5t7.5 -62z" />
    <glyph glyph-name="asciicircum" unicode="^" horiz-adv-x="478" 
d="M20 316q41 68 73 122.5t56 97.5t41 74.5t29 54.5q27 54 34 76q8 -22 31 -74q19 -44 56.5 -126t101.5 -215q-20 1 -33.5 0.5t-22.5 -1.5q-11 -1 -17 -3q-4 12 -12.5 34.5t-19.5 51.5t-23.5 60.5t-24.5 61.5t-22.5 55.5t-18.5 41.5q-14 -25 -34.5 -67t-41.5 -86.5
t-38.5 -82.5t-24.5 -56q-6 -1 -18.5 -3t-26.5 -4.5t-26 -5.5t-18 -6z" />
    <glyph glyph-name="underscore" unicode="_" horiz-adv-x="659" 
d="M0 57q54 0 118.5 -0.5t131 0t131.5 1t120 2t96.5 4t61.5 6.5q0 -6 -4 -14t-7.5 -17t-4.5 -19.5t5 -22.5q-17 2 -60.5 3.5t-101.5 2t-125.5 0t-132.5 -2.5t-122 -6t-94 -10q-3 9 -3 18v18.5t-1.5 18.5t-7.5 18z" />
    <glyph glyph-name="grave" unicode="`" 
d="M256 769q10 -5 30 -19q17 -12 48 -35t80 -62l-27 -38q-12 11 -32 25t-43 28t-47 27.5t-45 24.5q3 7 7 15q4 7 11 16t18 18z" />
    <glyph glyph-name="a" unicode="a" horiz-adv-x="492" 
d="M507 37q-3 -13 -10 -28.5t-20 -28t-31.5 -19t-43.5 -0.5t-39.5 28t-20.5 56q-9 -14 -22.5 -29.5t-32 -28t-42 -20t-51.5 -5.5q-38 3 -67.5 20.5t-49.5 45t-29.5 62.5t-5.5 73t20.5 65t41.5 43.5t57 22.5t66 3q45 -5 75 -26.5t46 -47.5q5 46 3 98.5t-16 96t-43 72
t-79 27.5q-35 0 -57.5 -12.5t-36 -29.5t-18.5 -34.5t-5 -27.5t6 -22.5t17 -23t26 -16.5t34 -3q13 2 23 9t16 16t8.5 19t2.5 19q0 10 -6 17.5t-14 11.5t-18 2.5t-18 -9.5q9 1 18 -3.5t9 -18.5q0 -11 -9 -16.5t-20 -4.5t-20 9.5t-9 26.5q0 17 14.5 29t33.5 12q23 0 42.5 -18
t19.5 -50q0 -11 -5.5 -23.5t-16.5 -23.5t-29 -18.5t-42 -7.5t-43 9.5t-32 24t-19.5 32t-6.5 33.5t10 40.5t31.5 46.5t54 38t77.5 16q121 0 167 -84.5t15 -251.5q-12 -67 -13 -109t5 -67t17.5 -35t24.5 -12q11 -2 21 2q8 2 15.5 9.5t10.5 23.5zM338 88q-1 36 3 76
q-8 31 -32.5 57.5t-55.5 31.5q-23 4 -47.5 -0.5t-43.5 -18t-30 -37.5t-8 -59q5 -54 30.5 -82t75.5 -25q38 2 64.5 19.5t43.5 37.5z" />
    <glyph glyph-name="b" unicode="b" horiz-adv-x="554" 
d="M331 17q-47 0 -90.5 30.5t-72.5 84.5q9 -65 26 -119q-27 2 -54 0.5t-53 -5t-51 -8t-47 -8.5l-6 14q21 13 40 28.5t33 37t23 52t11 72.5q1 42 3.5 100t3.5 120.5t-1.5 122t-9.5 103.5q-8 45 -19.5 70.5t-26.5 39t-32 18t-34 7.5v19q13 -2 37 -3.5t52.5 -0.5t58 5.5
t53.5 16.5q-3 -24 -7 -63.5t-8 -89.5t-6.5 -108t-2.5 -119q13 24 31 46.5t39 41t44.5 31t48.5 15.5q30 4 66 -10.5t68 -50t53.5 -92t21.5 -135.5q0 -55 -16 -103t-42.5 -83.5t-61 -56t-72.5 -20.5zM158 305q0 -27 11 -61.5t31.5 -66t51.5 -53t72 -21.5q40 0 64 27.5t36 66
t15.5 79.5t2.5 67q-1 27 -9.5 58t-24 57.5t-37.5 44t-50 16.5q-33 -1 -63 -21.5t-52.5 -52t-35.5 -69t-12 -71.5z" />
    <glyph glyph-name="c" unicode="c" horiz-adv-x="517" 
d="M294 508q-43 0 -72.5 -19.5t-47.5 -52.5t-26 -76t-6 -90q4 -105 42 -166.5t102 -61.5q36 0 64 14t47.5 33.5t30.5 41t12 35.5h24q-5 -31 -21.5 -62.5t-44.5 -57t-66 -40.5t-85 -12q-60 4 -102.5 34.5t-68.5 77t-35 103t-2 110.5q6 54 25 97t47 73t63.5 46t75.5 17
q31 2 65 -10.5t67 -29.5q32 -17 49 -8t28 61l22 1l-5 -239l-24 -8q-3 23 -13 55.5t-29 62t-48 50.5t-68 21z" />
    <glyph glyph-name="d" unicode="d" horiz-adv-x="566" 
d="M42 316q2 48 19.5 95.5t46.5 85t67 59.5t81 19q33 -2 57 -16.5t41.5 -37t29.5 -51t20 -58.5q-2 61 -6 124t-12 118q-5 36 -12 71q-6 30 -14.5 62.5t-19.5 58.5q44 -7 96.5 -11.5t117.5 15.5v-20q-15 -4 -31 -8.5t-28.5 -15.5t-21 -31.5t-9.5 -55.5q-1 -24 -1 -60.5v-81
t0.5 -93t1.5 -95t2.5 -88t3.5 -72.5q3 -46 12 -75t23 -46.5t32 -27.5t39 -17l-5 -18q-17 3 -41 6t-51 3t-56 -3t-54 -11q8 37 16 72t13 81q-11 -24 -29.5 -52t-44 -52t-58.5 -39t-72 -12q-47 3 -77.5 29t-48 65.5t-23.5 87.5t-4 96zM273 535q-29 1 -54.5 -16t-45.5 -47.5
t-32.5 -72t-15.5 -89.5q-3 -50 3 -84t19.5 -56t34 -33t44.5 -13q40 -4 71 11t52 40t32.5 54.5t12.5 55.5q1 25 -7 66.5t-23.5 82t-38.5 70.5t-52 31z" />
    <glyph glyph-name="e" unicode="e" horiz-adv-x="474" 
d="M32 271q3 59 25.5 110t58.5 87.5t81.5 55.5t94.5 13t75.5 -30t37.5 -53.5t12 -58.5t0 -45q-1 -15 -3.5 -33t-5 -35.5t-2.5 -33t3 -25.5q-25 8 -58 17.5t-71.5 14.5t-80 3.5t-82.5 -14.5q-1 -38 5.5 -75.5t21.5 -71.5q13 -29 30 -51t36.5 -33.5t40 -12.5t41.5 12
q17 12 26 29q8 14 6.5 34t-21.5 46l125 6q-7 -20 -20.5 -50t-36.5 -58t-57 -47t-82 -17q-48 3 -86.5 30.5t-64.5 71.5t-39 99.5t-10 114.5zM280 511q-28 3 -54.5 -14t-48 -48.5t-36.5 -74.5t-21 -90q57 7 106 7.5t91 -6.5q11 23 20 59.5t8 72t-15.5 62.5t-49.5 32z" />
    <glyph glyph-name="f" unicode="f" horiz-adv-x="395" 
d="M257 -43q-30 14 -64 22.5t-68.5 12t-67.5 2.5t-61 -6l-1 29q15 1 28.5 2t26 10.5t23 32t18.5 66.5q11 57 15 113.5t2 113.5q-27 -2 -54 -9q5 11 5 24.5t-2 21.5q9 -1 21.5 -1.5t27.5 -1.5l-2 48t-3 48q-2 31 -2 69t4.5 75.5t16.5 71.5t33.5 59t55.5 36.5t83 4.5
q45 -7 76.5 -23t51 -37.5t28.5 -46t9 -48.5q0 -51 -16.5 -82t-39.5 -47.5t-47.5 -22t-39.5 -4.5q-35 2 -57.5 17t-33.5 36.5t-11 46t10.5 45t30 33.5t48.5 12t40 -19.5t10 -37.5q-1 -20 -14 -38.5t-40 -14.5q-16 3 -23.5 14t-7 23t8 21t21.5 8q8 -1 11 -6t2 -12t-4.5 -13.5
t-9.5 -10.5q10 -4 22 1.5t14 26.5q2 16 -9 26.5t-28 10.5q-17 -1 -35 -15t-20 -47q-2 -30 16 -52t44 -23q13 0 29.5 6t31.5 20t26.5 36t13.5 55q1 19 -5.5 37.5t-18.5 33t-29 24t-36 11.5t-41.5 -8.5t-42.5 -34.5t-35 -61.5t-20 -88.5q-4 -40 -7 -81t-4 -85q23 -1 47 -1.5
t45 -0.5t37.5 1t25.5 3q-5 -17 -7.5 -33t-0.5 -24q-40 8 -76 15t-71 9q0 -51 5.5 -108t17.5 -123q8 -42 16 -67t17.5 -40t22 -24t28.5 -19l-11 -17v0z" />
    <glyph glyph-name="g" unicode="g" horiz-adv-x="557" 
d="M434 -286q-16 -27 -38 -50.5t-49 -40t-57 -24.5t-62 -6q-36 3 -63 19t-45 39.5t-25.5 50t-4.5 49.5q3 24 15.5 47t32.5 41t48 29t63 10q16 -1 32 -8t28.5 -19t19 -28.5t5.5 -34.5q-2 -18 -10.5 -36t-22 -32.5t-31.5 -22t-38 -4.5q-22 3 -33 22.5t-9.5 41.5t16 40.5
t43.5 20.5q20 1 29.5 -14.5t1.5 -28.5q-9 -14 -25 -12.5t-23 21.5q-8 -6 -12.5 -17.5t-3.5 -23t8 -20t22 -8.5q18 0 30.5 7.5t20.5 19t11.5 24t3.5 22.5t-4 21.5t-13 21t-24 15t-37 4.5q-20 -1 -39.5 -9t-35.5 -22t-26 -34t-10 -44q0 -25 10.5 -45t28.5 -33.5t41 -21
t48 -6.5q24 1 54 17.5t54 50t36.5 86t1.5 126.5q-5 35 -7.5 67t-2.5 62q-13 -19 -30.5 -39.5t-39 -37t-47.5 -27t-56 -8.5q-36 2 -70.5 17t-61 49.5t-41 90.5t-9.5 140q4 84 30 137t61 82t73.5 38.5t67.5 6.5q43 -5 84.5 -35t64.5 -92q8 38 15.5 63t6.5 39q32 -9 70 -10
t78 2l-1 -19q-45 -4 -70.5 -37.5t-39.5 -106.5q-9 -46 -11 -89t-1 -83.5t4.5 -79t6.5 -76.5q2 -23 3 -54t-2 -65t-11.5 -69.5t-26.5 -66.5zM393 223q1 32 6 63q-7 53 -31.5 87.5t-77.5 40.5q-31 4 -61 -7.5t-54.5 -38t-41.5 -68t-21 -98.5q-5 -57 4.5 -101.5t29 -74
t45.5 -43t54 -10.5q25 4 49 20t43.5 38.5t33 49t18.5 52.5q1 22 2 43.5t2 46.5z" />
    <glyph glyph-name="h" unicode="h" horiz-adv-x="517" 
d="M148 360q14 33 34.5 64.5t47 55.5t57.5 36.5t66 5.5q40 -7 63.5 -38.5t35 -73.5t13.5 -88.5t1 -83.5q-2 -38 -4.5 -70t-6 -61t-7.5 -58t-8 -60q-5 -43 7.5 -64.5t30.5 -24.5t35.5 11t23.5 41l16 -7q-2 -18 -9.5 -35t-21 -28.5t-32.5 -15.5t-43 3q-23 7 -38.5 20t-23.5 37
t-9.5 62t3.5 95q4 38 7.5 80.5t4.5 84t-2.5 79.5t-15 66.5t-32 45.5t-53.5 17q-27 0 -51.5 -22t-42.5 -58t-28.5 -83t-10.5 -97v1q0 -5 0.5 -8t0.5 -7q5 -51 12.5 -81t19.5 -48t29.5 -29t41.5 -24l-5 -18q-19 6 -53.5 14t-73.5 13.5t-76 6.5t-61 -8l-8 24q13 5 28.5 10
t29.5 21t24 48.5t13 93.5q3 60 4.5 129t0.5 136t-4.5 127.5t-10.5 104.5q-6 34 -17 52.5t-24.5 28t-27 12.5t-23.5 6l-1 16q61 -5 124.5 -0.5t122.5 30.5l2 -17q-11 -11 -21.5 -20t-19.5 -24t-15.5 -39t-9.5 -64q-2 -26 -3.5 -63t-3 -79.5t-2 -89t-0.5 -91.5z" />
    <glyph glyph-name="i" unicode="i" horiz-adv-x="253" 
d="M15 5q23 8 38 21t23 26q10 15 13 31q22 102 22 194.5t-14 158.5q-4 21 -15 39q-9 15 -25 28.5t-41 17.5l-1 16q20 -2 37.5 -2.5t30.5 -0.5h28q12 -1 24 -1q11 -1 22.5 -1t22.5 -2q-3 -36 -5 -73.5t-3 -67.5q-2 -35 -2 -68q-2 -37 -3 -80.5t1 -82.5t7 -68.5t16 -38.5
q6 -4 16 -8q8 -4 21.5 -8t33.5 -8l1 -17q-20 1 -38.5 0.5t-32.5 -0.5q-17 -1 -32 -1q-21 -1 -45 -4q-20 -2 -45 -5t-48 -7zM118 604q-31 -2 -48 14.5t-19 37.5t11.5 39.5t43.5 22.5q31 4 49.5 -13t21.5 -38.5t-11 -41t-48 -21.5z" />
    <glyph glyph-name="j" unicode="j" horiz-adv-x="294" 
d="M128 559q-30 -2 -47.5 12.5t-17.5 36.5q0 23 17.5 40t46.5 19q30 2 47 -12.5t17 -37.5q0 -22 -16.5 -39t-46.5 -19zM-13 496q18 -1 50.5 -1t72.5 2.5t83.5 9t82.5 19.5l8 -17q-21 -13 -40 -27t-32.5 -36t-19.5 -55.5t1 -86.5q6 -53 14 -101t17 -92.5t17.5 -86.5t16.5 -84
q6 -28 7 -62t-3.5 -68t-14.5 -66t-28 -56.5t-44.5 -39.5t-61.5 -14q-53 1 -89 15.5t-58 36t-32 48t-11 50.5t7 55t24.5 59t41.5 47.5t57 21.5q32 1 50.5 -8t28 -24t11.5 -33t2 -34q0 -17 -5 -38t-16 -39t-29.5 -28.5t-46.5 -4.5q-27 5 -37 26t-6 44q4 24 19.5 42t41.5 18
q16 0 23.5 -9.5t5.5 -20.5q-1 -11 -8 -17.5t-15 -6.5q-15 1 -17 11t5 20q-9 0 -19 -13.5t-9 -33.5q1 -16 12 -27.5t26 -10.5q7 0 16 5t17 15t14 25t7 35q3 42 -16.5 62t-45.5 21q-16 0 -35 -10t-34.5 -29.5t-24.5 -47t-4 -61.5q2 -18 12 -40t27 -40t41.5 -28.5t54.5 -5.5
q35 6 54 32t25.5 67t3 93t-12.5 109q-19 114 -34.5 213.5t-32.5 165.5q-8 33 -23.5 53t-33 32t-34 18.5t-26.5 12.5z" />
    <glyph glyph-name="k" unicode="k" horiz-adv-x="509" 
d="M509 -253q-35 0 -69 11t-59 36.5t-37 68t-3 105.5q7 48 11.5 94.5t2.5 86t-14 70t-39 47.5q-25 17 -65 20t-97 -14q2 -43 5.5 -81t8.5 -68q3 -30 11 -52q6 -19 17 -34t28 -11l-7 -25q-20 7 -45.5 10t-54.5 1t-59.5 -9t-58.5 -21l-5 17q15 11 27 20t21.5 23t16.5 36t12 59
t12.5 96.5t13.5 128.5t8 142t-4 136q-6 47 -18 85q-5 16 -12.5 31.5t-17.5 28t-22.5 20.5t-27.5 9v15q19 -3 43.5 -6.5t56 -4.5t71 3.5t88.5 18.5v-20q-18 -10 -33 -20.5t-27.5 -29.5t-21.5 -50t-13 -82q-5 -48 -10.5 -111t-5.5 -130v-48.5t2 -48.5q48 17 86 44.5t64 57
t40 57.5t14 48q-2 15 -7 27q-5 10 -15 18.5t-27 9.5l3 25q62 -8 119 -6.5t114 26.5l4 -20q-15 -7 -27 -13.5t-22.5 -15.5t-20.5 -23.5t-22 -37.5q-9 -19 -24 -44t-35.5 -49.5t-47 -46t-57.5 -34.5q80 2 125 -41.5t51 -143.5q2 -51 -9 -102.5t-19 -97t-6 -82t30 -57.5
q27 -21 53.5 -25.5t49.5 4t40.5 28.5t27.5 47q9 27 8 46.5t-9 32t-20.5 18.5t-26.5 6q-28 0 -50 -21t-24 -55q-1 -12 3 -20t10.5 -12.5t14 -6.5t14.5 0q13 2 26.5 15t12.5 31q-6 -4 -15 -7.5t-16.5 -3.5t-13 4.5t-5.5 16.5q0 14 10.5 21.5t23.5 7.5t24 -8.5t11 -25.5
q1 -33 -21.5 -55.5t-52.5 -22.5q-22 0 -34.5 12.5t-17 31t0 40.5t17.5 40.5t34.5 31t51.5 12.5q21 0 35 -8t22.5 -20.5t12.5 -27.5t4 -30q1 -29 -8 -55.5t-27 -47.5t-45 -33.5t-62 -12.5z" />
    <glyph glyph-name="l" unicode="l" horiz-adv-x="252" 
d="M262 26q-28 4 -52 5t-43 2h-41q-22 -1 -43 -2q-18 -1 -37.5 -2.5t-34.5 -3.5l-6 13q23 8 38 20.5t23 25.5q10 15 13 31q7 34 11.5 82.5t6 105t0.5 116t-4 115.5t-8.5 103.5t-12.5 79.5q-6 20 -17 38q-9 15 -24.5 28.5t-39.5 17.5l-1 15q19 -2 36 -2.5t30 -0.5h27
q18 1 35 3q14 2 30 4t27 6q-5 -136 -7.5 -226.5t-4.5 -145.5q-2 -64 -3 -101t0 -80t4.5 -82.5t9.5 -70.5t15 -44q5 -9 16 -16q8 -6 22 -11t34 -7l1 -16v0z" />
    <glyph glyph-name="m" unicode="m" horiz-adv-x="763" 
d="M237 -4q-22 3 -49 6t-54.5 4.5t-52 0t-40.5 -7.5l-8 17q14 6 23.5 11t15 12.5t8.5 21t5 37.5q1 16 2 45.5t2 65t1 74.5t-1 75.5t-3 67.5t-5 50q-3 20 -10 30.5t-17.5 15.5t-24 6t-29.5 1v18q63 -5 114 -5t83 9l1 -13q-6 -2 -11 -9.5t-9.5 -23.5t-8 -42t-4.5 -66
q12 24 28 48t35.5 42t43 28.5t50.5 8.5q43 -4 64.5 -32t29.5 -66q30 58 76.5 91t105.5 26q35 -5 62 -31.5t44.5 -65.5t23 -86t-1.5 -91q-8 -44 -29.5 -97t-45 -106t-41.5 -100t-18 -77q0 -46 22.5 -67.5t54.5 -21.5q16 0 32.5 5t30 15.5t22 26t8.5 36.5q0 29 -21 42t-42 13
t-36 -12.5t-15 -31.5q0 -5 1.5 -11.5t5 -12.5t10.5 -10.5t18 -4.5q9 0 15 3t11 8q-14 5 -21.5 15t0.5 23q4 6 12 7.5t16.5 -2t14 -11.5t5.5 -20q0 -20 -16 -32.5t-36 -13.5q-21 -1 -38 12.5t-17 42.5q0 30 19.5 50t51.5 20q38 0 60.5 -22.5t22.5 -55.5q0 -17 -6 -37.5
t-20.5 -38.5t-39 -30.5t-62.5 -12.5q-24 0 -45.5 9t-38 27t-26 43.5t-10.5 58.5q0 36 14.5 80.5t34.5 96.5q31 84 43 158t6 129t-28.5 87t-60.5 32q-25 0 -43.5 -21t-30.5 -54t-19 -74t-11 -81.5t-5 -75t-1 -55.5q0 -25 6.5 -39.5t16 -22.5t20 -11.5l19.5 -6.5l-6 -16
q-11 2 -37 4.5t-55 3t-55.5 -2.5t-39.5 -12l-4 21q9 3 18 5.5t16.5 10.5t12 25.5t6.5 50.5q3 67 9.5 127t9.5 105q1 23 -1 43.5t-9 36t-20 24t-33 8.5q-21 -1 -46 -18t-46 -48t-35.5 -74.5t-14.5 -95.5l-1 1q2 -35 3 -68.5t3 -57.5q2 -25 4 -41.5t8.5 -27.5t19.5 -17.5
t36 -10.5l-2 -20v0z" />
    <glyph glyph-name="n" unicode="n" horiz-adv-x="517" 
d="M153 377q12 37 34 74t50.5 66.5t62 46.5t69.5 15q33 -3 54.5 -29t34.5 -61.5t17.5 -73t3.5 -62.5q-2 -31 -12.5 -59.5t-23 -57t-23.5 -58.5t-13 -63t7.5 -62.5t27.5 -45.5t42.5 -13.5t50.5 34.5l13 -11q-10 -17 -33 -33.5t-54 -16.5q-21 0 -41.5 8.5t-37 27t-27 47.5
t-11.5 71q0 35 9 65t19.5 60t19 62.5t7.5 72.5q-2 37 -11.5 60.5t-23 36t-29 16t-28.5 1.5q-27 -5 -55 -30.5t-50.5 -64t-36.5 -87.5t-15 -100v2q0 -25 -1 -44t1 -32q0 -29 5.5 -45.5t12.5 -25.5t15.5 -12.5t14.5 -4.5l-1 -18q-14 3 -35.5 3.5t-46.5 -2.5t-51.5 -11
t-48.5 -22l-7 14q15 12 26.5 21.5t20 24.5t14.5 39t9 63q6 79 8 155.5t-4 142.5q-2 21 -10.5 32t-20.5 15.5t-25 4.5t-25 -1l-1 17q22 2 45.5 5t45.5 6t39.5 6.5t27.5 8.5q-2 -32 -2.5 -63.5t-1.5 -57.5q-1 -30 -1 -57z" />
    <glyph glyph-name="o" unicode="o" horiz-adv-x="487" 
d="M231 557q42 1 83 -17t74 -54t53.5 -87.5t20.5 -117.5t-16.5 -116.5t-44 -85.5t-63 -53.5t-74.5 -21.5q-44 -3 -86 14.5t-75.5 53t-54.5 88t-22 120.5q-2 70 17.5 121.5t49.5 85.5t67 51t71 19zM273 70q21 2 45 18t42 47.5t26.5 78t-1.5 109.5t-30 102t-43.5 60.5
t-47.5 28t-42 5.5q-29 -2 -49 -19.5t-33.5 -45t-20 -62.5t-7.5 -73q-2 -48 7 -96t31 -86q21 -37 53 -54t70 -13z" />
    <glyph glyph-name="p" unicode="p" horiz-adv-x="531" 
d="M315 569q31 1 63 -16.5t58.5 -54.5t43 -93.5t16.5 -132.5t-22 -133t-55.5 -94.5t-74.5 -56t-79 -16.5q-39 2 -66.5 18t-45.5 40q-1 -27 -1.5 -62.5t-1 -70.5t0 -65.5t0.5 -49.5q2 -46 27 -69.5t68 -30.5l-8 -19q-26 4 -64 4.5t-75.5 -3t-69.5 -10t-46 -15.5l-9 17
q20 13 36 25t28.5 35.5t21 64.5t13.5 110q4 69 6 135.5t2.5 125.5t0.5 110.5t1 90.5q1 41 -7 76.5t-24 62t-39.5 42t-53.5 17.5l6 24q34 -4 60.5 -5.5t48.5 -1t40.5 3t35.5 7.5q-4 -38 -6 -73t-3 -64q29 57 74.5 90.5t99.5 36.5zM424 289q1 31 -7 71.5t-25 76.5t-44 59
t-64 19q-38 -5 -63.5 -33.5t-41 -67.5t-22.5 -83t-7 -78q-1 -18 2 -53.5t14 -70t32.5 -60.5t57.5 -26q30 0 59 18.5t52.5 51t39 77.5t17.5 99z" />
    <glyph glyph-name="q" unicode="q" horiz-adv-x="563" 
d="M584 520q-15 -1 -31 -10t-30.5 -32t-25 -64.5t-13.5 -106.5t-4 -129.5t-0.5 -121.5t3 -104.5t6.5 -79.5t13 -61.5t18.5 -54.5t18.5 -42.5t14 -24.5q-18 2 -44 -0.5t-55.5 -8.5t-58.5 -15.5t-53 -22.5l-7 27q16 10 33.5 22t31 37t22.5 68t9 115q0 66 -2 117.5t-5 87.5
q-8 -22 -21.5 -46t-33.5 -44t-48.5 -33t-66.5 -13q-47 0 -88.5 21t-72.5 59.5t-49 92.5t-18 119t23.5 116.5t59.5 87.5t79 55t82 19q30 0 53 -9.5t40 -26t29.5 -38t21.5 -45.5q-1 39 -2.5 67t-4.5 43q22 -2 47.5 -3.5t50 -1.5t45 2t32.5 7zM398 271q3 54 -6.5 95.5t-26 70.5
t-38.5 44.5t-43 17.5q-19 1 -45.5 -6.5t-52.5 -30.5t-46.5 -63.5t-27.5 -103.5t2.5 -110t28 -78.5t42 -47.5t44.5 -17t49.5 14.5t54 45.5t44 73t21.5 96z" />
    <glyph glyph-name="r" unicode="r" horiz-adv-x="457" 
d="M447 431q-1 -17 -3.5 -29t-3.5 -21.5t1 -17.5t11 -18q-27 8 -49 11.5t-39 5.5q-19 1 -34 0q10 14 13.5 31t5.5 42q1 18 -2 37t-20 24q-7 1 -15 1t-18 -4.5t-23 -14.5t-29 -29q-23 -27 -41 -57.5t-31 -60.5t-20.5 -56.5t-8.5 -45.5q0 -3 -1 -4q2 -39 5 -73t6 -58
q3 -23 8.5 -38t12.5 -24.5t15 -15.5t15 -11l2 -21q-14 6 -40 8.5t-55.5 0.5t-59.5 -9t-51 -19l-3 23q28 11 51.5 41.5t29.5 95.5q3 32 6.5 66t4.5 69t-1 72t-11 76q-8 28 -18 52q-8 20 -20.5 37.5t-27.5 21.5l-2 23q12 -2 30.5 -4t39.5 -3.5t43 -1.5t42 2q-4 -18 -10.5 -67
t-10.5 -110q13 30 34 67t49 68t63 50.5t77 15.5q25 -3 41.5 -17t26 -33t13 -40t2.5 -38z" />
    <glyph glyph-name="s" unicode="s" horiz-adv-x="455" 
d="M384 45q-6 -21 -17.5 -45t-30.5 -45t-45.5 -35.5t-60.5 -16.5q-24 -2 -45.5 3.5t-39 15.5t-30.5 23t-20 26q-12 26 -13 52.5t10 46.5q16 26 34.5 33t35.5 9q16 2 33 -2t30 -13t21 -22.5t7 -30.5q-1 -14 -7.5 -25.5t-16.5 -20t-21 -13t-20 -3.5q-14 2 -29 9.5t-17 22.5
t3.5 27.5t17.5 17.5q18 7 28.5 5.5t15 -7.5t5.5 -13t0 -11q-3 -10 -10 -14q-6 -4 -16 -2.5t-25 13.5q-3 -11 1 -18t10 -10q7 -4 18 -5q21 -2 33 13.5t10.5 34.5t-18.5 34t-53 13q-22 -2 -34 -14t-16 -28.5t0.5 -34.5t15.5 -31q12 -14 27 -22t31 -11t32 -1.5t30 7.5
q16 7 32 25t24 43.5t3.5 57t-29.5 64.5q-13 18 -47 42.5t-73 53t-74.5 59.5t-51.5 64q-15 32 -16 74t19 81t65.5 70t122.5 41q55 7 100.5 -8t75.5 -44t40.5 -69.5t-4.5 -84.5q-4 -14 -13.5 -29t-24 -28t-34.5 -20.5t-44 -5.5q-18 1 -38 9.5t-37 22t-30 30.5t-16 36
q-8 42 13.5 68t66.5 30q20 1 37 -6.5t29 -19.5t18 -27.5t4 -28.5q-6 -45 -50 -51q-16 -2 -34.5 5t-26.5 27q-5 14 -2 32.5t20 27.5q8 4 17.5 3t16.5 -5.5t10 -12.5t0 -19q-3 -7 -9 -11q-5 -3 -14 -3.5t-24 6.5q1 -13 7.5 -19t14.5 -8q9 -3 19 -3q18 2 27.5 10.5t11.5 20
t-4 24.5t-20 25q-20 15 -47 14.5t-47 -22.5q-26 -32 -13.5 -63t50.5 -51q6 -3 14.5 -7t20 -4.5t25.5 3.5t32 16q27 18 32 48t-4.5 60t-32 54t-51.5 30q-32 6 -57.5 3.5t-45.5 -10t-36 -18t-28 -20.5q-5 -5 -15 -18t-17 -32.5t-6.5 -45t17.5 -54.5q16 -28 41.5 -48.5t54 -38
t56.5 -34t50 -35.5q24 -20 38.5 -45.5t22 -52t8 -50.5t-3.5 -40z" />
    <glyph glyph-name="t" unicode="t" horiz-adv-x="304" 
d="M253 33q23 0 43 16t28 54l21 -8q-3 -24 -19 -48.5t-41 -41.5t-56.5 -22t-64.5 10q-36 17 -52 44t-20 62.5t-1 77t3 86.5q0 26 -0.5 61.5t-2 75.5t-4.5 82.5t-6 83.5q-34 -4 -64.5 -9.5t-51.5 -13.5q-1 9 -0.5 14t1 9.5t0.5 10t-2 15.5q24 2 53.5 4t60.5 4q-1 14 -2 27.5
t-3 26.5q-5 47 -18.5 75t-29.5 43t-30 20.5t-21 7.5l3 19q19 -8 47 -10.5t58.5 0t60 9.5t51.5 18q-10 -28 -17.5 -89t-12.5 -142q52 3 75 8q-5 -6 -5 -19.5t3 -24.5q-17 2 -36 2.5t-39 0.5q-3 -58 -4 -121t1.5 -124.5t8 -120t14.5 -107.5q8 -35 28 -50t43 -16z" />
    <glyph glyph-name="u" unicode="u" horiz-adv-x="484" 
d="M445 37q7 0 14 4q6 3 11.5 9t9.5 18h15q-1 -10 -6 -22.5t-15 -23t-25 -17.5t-35 -5q-64 6 -77 124q-9 -24 -20.5 -49t-27.5 -46t-37.5 -34.5t-51.5 -13.5q-38 0 -66.5 15.5t-47.5 41.5t-27 59.5t-6 69.5q3 50 14 101.5t13.5 97t-11 80t-59.5 50.5l4 15q15 -3 33 -8t38 -8
t42.5 -3t45.5 6q-12 -26 -21.5 -49t-15.5 -51t-9 -64t-3 -89t8.5 -89t24 -57t36.5 -29.5t47 -6.5q25 3 42.5 23.5t29 54t18 76.5t8.5 91t0.5 82t-7.5 57t-18 37.5t-32 22.5l2 16h43t50 1.5t46.5 4.5t32.5 8q-17 -33 -30.5 -83.5t-22.5 -106t-12 -111t2 -100t17.5 -72
t35.5 -27.5z" />
    <glyph glyph-name="v" unicode="v" horiz-adv-x="453" 
d="M288 530q36 -4 91 -9.5t125 2.5l-1 -12q-11 -3 -24 -8t-25.5 -14t-23.5 -23.5t-18 -37.5q-10 -27 -29 -85q-17 -50 -46.5 -137t-77.5 -226q-18 2 -32.5 2.5t-25.5 0.5q-12 0 -23 -1q-35 136 -57.5 220t-35.5 131q-16 55 -24 80q-18 52 -42.5 70.5t-49.5 21.5l4 17
q17 -3 43 -5t55 -2.5t60 1.5t59 9l6 -18q-16 -1 -31 -11.5t-24 -32t-9.5 -55t11.5 -79.5q21 -76 46.5 -148t51.5 -124q12 30 28.5 77t33 95.5t29.5 93t17 70.5q5 30 1 51t-13 36t-22.5 24.5t-26.5 15.5v10v0z" />
    <glyph glyph-name="w" unicode="w" horiz-adv-x="783" 
d="M824 570q-42 -9 -67.5 -49t-30.5 -115q-2 -25 -5.5 -66t-11.5 -87t-20.5 -92.5t-32 -84t-47.5 -60.5t-65 -22q-41 1 -69 29t-47 70.5t-29.5 93.5t-14.5 98q-8 -47 -23.5 -94t-38 -84.5t-53 -60t-67.5 -20.5q-46 2 -73 25t-40 56.5t-15 71.5t1 70q1 19 5.5 43.5t7.5 52
t3.5 56.5t-5.5 57q-8 41 -32 75.5t-69 56.5l5 18q29 -2 56.5 -3.5t58 0t66.5 6t82 15.5l6 -19q-18 -8 -36 -20t-33 -35.5t-25 -61.5t-11 -99q-2 -61 0 -116.5t11.5 -98t27.5 -67.5t47 -23q21 1 40 30.5t35 74.5t26.5 98t14.5 101t-0.5 84.5t-19.5 47.5q12 0 30 0.5t36 2
t34 3t25 4.5q-12 -14 -19 -44t-9.5 -69t-0.5 -83t8 -86q6 -36 15 -68.5t22.5 -57.5t32.5 -40t44 -15q18 0 34.5 20.5t29.5 58.5t20.5 91.5t7.5 119.5t-7.5 105.5t-21.5 62.5t-33.5 33.5t-43.5 19.5l8 20q26 -7 63 -12.5t75.5 -7.5t74.5 -0.5t60 8.5l3 -18v0z" />
    <glyph glyph-name="x" unicode="x" horiz-adv-x="452" 
d="M489 6q-25 4 -54.5 6t-58.5 2.5t-56 -1t-47 -5.5l-3 20q9 3 17 4t13.5 6t5.5 15.5t-8 32.5q-4 10 -12.5 29t-19.5 43t-24.5 52.5t-26.5 57.5q-26 -37 -48.5 -75t-42.5 -73q-11 -21 -9.5 -34.5t9.5 -21.5t19 -11.5t17 -6.5l-4 -18q-23 5 -50 8.5t-55 5t-55 0.5t-50 -7
l-2 19q38 14 77.5 44.5t80.5 90.5q16 24 39 59t48 74q-8 14 -16 30.5t-16 33.5q-26 54 -53.5 89.5t-53.5 55.5t-48.5 28t-39.5 8l9 32q33 -14 92.5 -15t146.5 13l4 -16q-9 -3 -18.5 -6t-15 -10.5t-5.5 -21t11 -37.5q6 -14 19 -45t31 -70q25 39 44.5 70t27.5 43q8 13 8 23
t-5.5 15.5t-14.5 7.5t-18 1l3 17q27 -2 59.5 -3.5t65.5 -1.5t63.5 2.5t53.5 9.5l-1 -26q-19 -1 -37 -5t-37.5 -13.5t-41 -27.5t-48.5 -47q-21 -25 -46 -56t-51 -66q12 -24 24 -50t24 -51t23.5 -48.5t21.5 -42.5q22 -41 40.5 -62.5t35 -31.5t31.5 -12.5t32 -5.5l-4 -24v0z
" />
    <glyph glyph-name="y" unicode="y" horiz-adv-x="474" 
d="M428 -189q-2 -44 -16.5 -78t-38.5 -56.5t-55.5 -34.5t-67.5 -13t-64.5 12t-48.5 34t-30.5 49t-9.5 57t12.5 51t30.5 36.5t42 21.5t46 7q40 -1 55 -25t15 -55q0 -17 -5.5 -34t-16 -30.5t-25 -22t-32.5 -8.5q-8 0 -17 2t-16.5 8.5t-12.5 18t-5 30.5q0 28 13 44t33 17
q14 0 22.5 -8t10 -18t-4 -18t-19.5 -8q-14 1 -14 11.5t5 18.5q-8 -4 -14.5 -13t-6.5 -23q0 -18 9 -28t23 -10q10 0 18.5 6.5t14.5 16t9.5 21t3.5 22.5q0 32 -20.5 48t-48.5 14q-11 -1 -25 -8t-26 -19.5t-20 -29.5t-7 -37t8 -39t22 -33.5t37.5 -21.5t53.5 -4q62 6 94.5 73
t30.5 178q-1 37 -2 64.5t-2 48.5t-1.5 38t-0.5 34q-8 -27 -20.5 -56t-33 -53t-50 -39t-70.5 -14q-31 1 -54 12.5t-39.5 31.5t-27 47t-14.5 59q-5 40 -0.5 80.5t10.5 79.5q6 51 8.5 87t-2 60.5t-18 41t-38.5 30.5l11 20q11 -3 22.5 -6.5t29 -5t44.5 -0.5t69 6
q-8 -15 -16 -39.5t-15 -54t-12.5 -62.5t-8.5 -64t-2.5 -69t7.5 -71.5t22.5 -57t42.5 -25.5t48.5 11t37 31t24 36t10.5 26t5 31.5t5 55.5t3 68t-1 68q-2 29 -7.5 48t-13.5 31t-17.5 19t-19.5 11l6 20q16 -7 37.5 -11t45 -5.5t45 -1t37.5 3.5q-26 -54 -39 -140.5t-8 -209.5
q2 -56 6 -99t8 -81t6 -75.5t1 -81.5z" />
    <glyph glyph-name="z" unicode="z" horiz-adv-x="419" 
d="M403 210q-12 -47 -18 -88t-8 -72q-3 -36 -1 -67l-16 -5q-6 14 -13 25.5t-20.5 19.5t-36.5 11.5t-61 0.5q-28 -2 -61 -4q-28 -2 -64.5 -4t-76.5 -5q36 65 77 125t78.5 117t69.5 111t50 107q-35 8 -80 8.5t-85.5 -11t-70 -35.5t-32.5 -65l-19 4q6 24 11 49.5t7.5 51
t2.5 49.5t-4 44l22 3q6 -11 18 -20.5t34 -15t55.5 -6.5t83.5 5q37 5 68 9q26 3 50 6t32 2q-26 -62 -60.5 -128t-69 -129.5t-63.5 -121t-45 -101.5q43 -1 76 -0.5t59.5 12.5t48.5 40.5t44 82.5z" />
    <glyph glyph-name="braceleft" unicode="{" horiz-adv-x="233" 
d="M98 529q-13 49 -10.5 93t18.5 79t43.5 57.5t63.5 27.5l-1 -28q-10 3 -24 -7t-24.5 -31t-13.5 -51t9 -68q10 -36 14 -73t-1.5 -71t-21 -62.5t-42.5 -45.5q11 -15 21 -32.5t15.5 -41.5t5 -55t-9.5 -72q-12 -51 -14 -88t4 -62.5t20 -41.5t34 -24l-11 -27q-25 15 -46 30
t-34.5 38.5t-18.5 59t3 91.5q14 114 3 167.5t-49 55.5l1 32q15 -3 32 3t28.5 23t14.5 47.5t-9 76.5z" />
    <glyph glyph-name="bar" unicode="|" horiz-adv-x="193" 
d="M111 739q-3 -68 -4 -146t0 -157.5t3.5 -155.5t5.5 -139.5t5.5 -110.5t4.5 -68l-65 -5q3 192 1.5 334t-5.5 237q-4 111 -11 189l65 22v0z" />
    <glyph glyph-name="braceright" unicode="}" horiz-adv-x="239" 
d="M125 162q13 -49 10.5 -93.5t-18 -79t-43 -57t-64.5 -27.5l1 28q10 -3 24 7t24.5 30.5t14 51t-8.5 68.5q-11 35 -14.5 72.5t1.5 71.5t20.5 62.5t43.5 45.5q-11 15 -21 32.5t-16 41t-5.5 54.5t10.5 72q12 51 14 88.5t-4.5 63t-20.5 41.5t-34 24l11 27q25 -14 46 -29.5
t34.5 -39.5t18 -60t-2.5 -91q-14 -113 -2.5 -166.5t49.5 -55.5l-2 -32q-15 3 -32 -3t-28.5 -23t-14.5 -47.5t9 -76.5z" />
    <glyph glyph-name="asciitilde" unicode="~" horiz-adv-x="456" 
d="M415 341q-38 -32 -86 -36t-93 22q-21 12 -44.5 13.5t-45.5 -4.5t-39.5 -18.5t-27.5 -29.5l-48 47q10 11 28 25t42 23t53.5 8.5t62.5 -16.5q32 -16 56.5 -19.5t43.5 0.5t33 13.5t25 20.5z" />
    <glyph glyph-name="DEL" horiz-adv-x="261" 
 />
    <glyph glyph-name="Adieresis" unicode="&#xc4;" horiz-adv-x="574" 
d="M113 231q-44 -4 -85.5 1.5t-74 22t-53 45t-23.5 70.5q-3 39 12.5 66t39.5 41t53.5 16.5t55 -7t43.5 -31t20 -53.5q3 -46 -19 -66t-53 -21t-53.5 13t-24.5 46q-1 16 3.5 27.5t11 19t15.5 11t17 3.5q17 1 27.5 -7.5t12.5 -25.5q1 -16 -9 -22.5t-23 -1.5q-9 3 -10.5 14
t3.5 20q-9 -2 -15 -9t-6 -21q0 -18 10 -30.5t38 -10.5q14 0 22.5 7t13.5 16t6.5 18.5t1.5 15.5t-2.5 18t-11 23.5t-24 20.5t-41.5 11q-27 1 -44 -8.5t-27 -24.5t-14 -32t-3 -30q1 -26 15.5 -47t43 -34.5t71 -18.5t98.5 2q15 38 29 79t26 81t21 78t13 70q9 76 -15 119.5
t-71 45.5l4 26q18 -3 51.5 -7t73.5 -6.5t80 -2t72 7.5l1 -16q-13 -4 -24 -8t-18 -10.5t-10 -17t1 -26.5q4 -17 13 -65t22 -113t30 -140t37 -144t40.5 -122t41.5 -86.5t43 -46t46 -1.5q12 7 21 19q8 11 14 28t7 43l15 3q4 -16 2 -40.5t-11 -48.5t-27 -42.5t-46 -21.5
q-23 -3 -51.5 2t-57 29t-55 74t-45.5 137q-5 25 -10 49.5t-10 47.5q-29 -2 -79 -5t-104 -7q-15 -63 -23 -112q-5 -30 -4.5 -49t5.5 -30.5t16.5 -18.5t29.5 -13l-1 -21q-17 4 -52 5t-74.5 -1.5t-78 -9t-60.5 -18.5l-8 34q21 9 35.5 12.5t25.5 10t21 20t21 40.5q9 20 24.5 57
t35.5 85h-1zM309 651q-8 -32 -20 -74t-25 -89.5t-26.5 -98.5t-25.5 -100q47 7 88.5 11t72.5 6q-23 108 -40 194t-24 151zM229 833q-20 -2 -31.5 8t-13.5 24q-3 14 8 27.5t31 15.5q21 3 32 -7t12 -24q2 -14 -7 -27t-31 -17zM393 838q-20 -6 -33 2.5t-15 20.5q-3 12 8 27
t32 20q22 5 33.5 -3t13.5 -21q2 -14 -6.5 -27.5t-32.5 -18.5z" />
    <glyph glyph-name="Aring" unicode="&#xc5;" horiz-adv-x="574" 
d="M309 651q-8 -32 -20 -74t-25 -89.5t-26.5 -98.5t-25.5 -100q47 7 88.5 11t72.5 6q-23 108 -40 194t-24 151zM328 927q15 -6 26 -18t17 -26.5t8 -30.5t0 -29q-4 -18 -14 -35t-26 -27q21 1 40 2.5t36 5.5l1 -16q-13 -4 -24 -8t-18 -10.5t-10 -17t1 -26.5q4 -17 13 -65
t22 -113t30 -140t37 -144t40.5 -122t41.5 -86.5t43 -46t46 -1.5q12 7 21 19q8 11 14 28t7 43l15 3q4 -16 2 -40.5t-11 -48.5t-27 -42.5t-46 -21.5q-23 -3 -51.5 2t-57 29t-54.5 74t-44 137l-22 97q-29 -2 -79 -5t-104 -7q-15 -63 -23 -112q-5 -30 -4.5 -49t5.5 -30.5
t16.5 -18.5t29.5 -13l-1 -21q-17 4 -52 5t-74.5 -1.5t-78 -9t-60.5 -18.5l-8 34q21 9 35.5 12.5t25.5 10t21 20t21 40.5q9 20 24.5 57t35.5 85h-1q-44 -4 -85.5 2t-74 22.5t-53 44.5t-23.5 70q-3 39 12.5 66t39.5 41t53.5 16.5t55.5 -7t44 -30.5t20 -53q2 -47 -20 -67
t-53 -21t-53.5 13t-24.5 46q-1 16 3.5 27.5t11 19t15.5 11t17 3.5q17 1 27.5 -7.5t12.5 -25.5q1 -16 -9 -22.5t-23 -1.5q-9 3 -10.5 14t3.5 20q-9 -2 -15 -9t-6 -21q0 -18 10 -30.5t38 -10.5q14 0 22.5 7t13.5 16t6.5 18.5t1.5 15.5t-2.5 18t-11 23.5t-24 20.5t-41.5 11
q-27 1 -44 -9t-27 -25t-14 -32t-3 -29q1 -26 15.5 -47t43 -34.5t71 -18.5t98.5 2q15 38 29 79t26 81t21 78t13 70q9 76 -15 119.5t-71 45.5l4 26q18 -2 49 -6t68 -7q-23 12 -34 36.5t-1 59.5q4 16 15 31t26 25t32.5 13.5t34.5 -2.5zM339 835q3 15 -2.5 34t-24.5 22
q-12 2 -21 -1.5t-15.5 -10.5t-10.5 -15t-5 -15q-4 -15 3 -33.5t21 -22.5q16 -6 33 7.5t22 34.5z" />
    <glyph glyph-name="Ccedilla" unicode="&#xc7;" horiz-adv-x="602" 
d="M326 -122q15 1 28.5 0.5t24 -5.5t17.5 -16t10 -31q2 -20 -5 -40t-19.5 -36t-30 -25t-36.5 -8q-38 3 -56.5 26t-24.5 52q19 -17 40.5 -27t41.5 -5q13 4 24.5 18.5t14.5 30.5t-6 27.5t-37 8.5q-26 -2 -40.5 3t-20.5 16.5t-5.5 28.5t4.5 38q-49 12 -93 44.5t-76.5 85
t-50.5 125t-14 163.5q4 102 36.5 181t80.5 131.5t105.5 77.5t113.5 19q34 -4 60 -19t45 -36.5t32 -46.5t21 -47q6 -6 13 -6q19 -1 34.5 28.5t26.5 97.5l28 -3q-9 -34 -19.5 -78.5t-19 -91.5t-13.5 -93t-3 -83q-15 6 -28.5 8.5t-24.5 3.5q-12 1 -22 0q2 62 -3.5 119
t-20.5 100.5t-39.5 70.5t-60.5 30q-32 3 -69 -13.5t-70 -59t-57 -113.5t-30 -177q-3 -56 4 -118t28 -114.5t57 -87t91 -33.5q42 3 78 22q31 17 61 51t43 98l33 -20q-8 -26 -23.5 -63.5t-42 -73t-65 -60.5t-92.5 -25q-7 -19 -5.5 -35.5t27.5 -14.5z" />
    <glyph glyph-name="Eacute" unicode="&#xc9;" horiz-adv-x="618" 
d="M-31 453q-69 1 -101 42t-26 102q3 30 21.5 60t54.5 52t91.5 32t132.5 1q17 -2 56 -4.5t91.5 -3t115 3t125.5 14.5q0 -21 -0.5 -54t-0.5 -68t2 -67.5t8 -51.5l-30 -4q0 52 -11.5 91t-42 62.5t-86 30.5t-144.5 -4q-9 -54 -14.5 -123.5t-5.5 -160.5q76 -17 116.5 11.5
t48.5 104.5l24 -4q-4 -21 -8 -54t-5.5 -71t0.5 -77.5t10 -73.5l-20 -8q-7 31 -15 57.5t-24.5 43t-46 21t-80.5 -8.5q2 -50 5 -105.5t8 -118.5q5 -10 13.5 -19.5t25.5 -17t44 -12t68 -4.5q57 -1 92.5 16.5t55 41.5t26 50.5t6.5 43.5l29 -3l-13 -206q-22 0 -59 -0.5t-82.5 -2
t-97 -4t-102 -6.5t-97 -10t-82.5 -14l-6 20q20 8 37 19.5t28.5 34.5t17.5 63.5t5 107.5q-1 60 -2.5 130t-3.5 136.5t-4 124t-3 92.5q-30 10 -72 9.5t-79.5 -15t-64 -44t-26.5 -76.5q0 -27 10 -47t26 -32.5t36.5 -18t42.5 -3.5q22 1 39 10t28 22.5t16 30.5t2 34q-5 33 -31 50
t-60 3q-14 -6 -26 -20t-10 -35q1 -11 8 -19.5t16.5 -11.5t20 -0.5t19.5 12.5q-9 0 -15.5 5t-6.5 15q0 6 4 11.5t10.5 8t14 1t13.5 -9.5t5 -20t-8.5 -22.5t-21 -17t-32.5 -4.5q-23 3 -35 19.5t-13 38.5q-2 25 17.5 49.5t56.5 27.5q29 3 47.5 -7t29 -25.5t14 -34t3.5 -33.5
q0 -14 -6.5 -31.5t-21 -32.5t-38 -25t-57.5 -10zM419 933q11 -9 18 -18t11 -16q4 -8 7 -15q-21 -11 -45.5 -24.5t-47 -27.5t-42.5 -28t-32 -25l-27 38q49 39 80 62t48 35q20 14 30 19z" />
    <glyph glyph-name="Ntilde" unicode="&#xd1;" horiz-adv-x="604" 
d="M67 610q-14 70 -34.5 105t-63.5 28l-5 28q19 -2 45.5 -2t57 1t61.5 3.5t59 7.5q12 -46 31.5 -104.5t43.5 -122.5t50.5 -130.5t53 -129.5t51 -119t44.5 -98q0 54 -1.5 115.5t-3.5 123t-5 118.5t-7 100q-4 49 -10.5 82t-15.5 54.5t-20.5 35t-26.5 22.5v20q24 -5 54.5 -8
t63 -4.5t66 -0.5t65.5 6v-23q-16 -1 -33.5 -8.5t-32.5 -24.5t-24 -44.5t-9 -67.5q0 -27 1 -73t2 -102.5t1 -118.5t-0.5 -121t-2.5 -109.5t-6 -83.5l-65 7q-31 62 -68 144.5t-76 167.5t-77 163t-71 132q-6 -63 -7 -137.5t3 -150t11 -148t16 -132.5q-26 -1 -58 -3t-60.5 -5
t-49.5 -7t-25 -9l-5 21q18 10 33.5 17t27.5 22t19.5 45t10.5 86q6 114 7.5 226.5t-15.5 205.5zM312 882q25 -12 44 -15t33.5 0.5t25 11t18.5 15.5l31 -38q-29 -24 -65.5 -27.5t-71.5 17.5q-16 9 -34 10t-35 -3.5t-30.5 -14t-20.5 -22.5l-37 35q7 8 21 18.5t32.5 17.5t41 7
t47.5 -12z" />
    <glyph glyph-name="Odieresis" unicode="&#xd6;" 
d="M290 -63q-42 0 -91 25t-90.5 76.5t-68.5 131.5t-25 190q2 101 33.5 172.5t77.5 116.5t97.5 66t93.5 21q53 0 101.5 -23t86.5 -67.5t61.5 -110t26.5 -150.5q3 -94 -23 -176.5t-69.5 -143t-99.5 -95t-111 -33.5zM99 348q-1 -30 1 -66.5t9 -74.5t19.5 -74.5t31.5 -65.5
t45 -48t61 -21q34 -2 66 16t59.5 50t49.5 75t37 89.5t22 93t5 87.5q-3 38 -7 65.5t-11 47.5q0 -18 -3.5 -36.5t-12.5 -36.5t-24.5 -34t-39.5 -27q-36 -17 -68 -18.5t-57 9.5t-41.5 34.5t-20.5 57.5q-5 34 5.5 60.5t28.5 45t41 28.5t45 12q7 0 19 -1.5t24 -8t21 -20.5t10 -38
q1 -25 -10.5 -42.5t-28 -27.5t-34 -11.5t-29.5 4.5q-11 7 -13 17.5t2 20t12.5 15.5t18.5 4q15 -4 18.5 -16.5t0.5 -23.5q20 5 29.5 21t9 33t-11 30.5t-31.5 13.5q-38 0 -66 -24.5t-29 -70.5q0 -15 3 -32t12.5 -31t26.5 -22.5t46 -6.5q28 2 49.5 14.5t36 31t22.5 41.5t8 47
q1 43 -10 71.5t-28.5 46t-39 24.5t-41.5 8q-44 1 -85 -29.5t-74 -78.5t-54.5 -108.5t-24.5 -119.5zM248 792q-20 -2 -31.5 8t-13.5 24q-3 14 8 27.5t31 15.5q21 3 32 -7t12 -24q2 -14 -7 -27t-31 -17zM412 797q-20 -6 -33 2.5t-15 20.5q-3 12 8 27t32 20q22 5 33.5 -3
t13.5 -21q2 -14 -6.5 -27.5t-32.5 -18.5z" />
    <glyph glyph-name="Udieresis" unicode="&#xdc;" horiz-adv-x="637" 
d="M50 330q12 88 16.5 158t-2.5 118.5t-27 75.5t-57 29l4 21q24 -3 51 -7.5t57.5 -7t63.5 -2t68 6.5l-2 -23q-9 -3 -20.5 -18.5t-22.5 -47t-20.5 -80.5t-15.5 -119q-3 -46 -5.5 -98t0 -101.5t12.5 -94t30 -77.5t53 -50t83 -12q41 4 66 36t38 83.5t16.5 118t1.5 139.5
q-2 80 -4 135.5t-16 93.5q-12 31 -31.5 43.5t-46.5 20.5l3 24q57 -6 119.5 -6t116.5 11l3 -17q-14 -8 -26.5 -19.5t-22 -29.5t-15.5 -43t-7 -59q0 -34 0.5 -78.5t3 -96t6.5 -108.5t10 -116q7 -59 21.5 -96t32 -50.5t35.5 -2t33 50.5l15 -10q-4 -20 -17.5 -39t-33 -30.5
t-42 -13.5t-44.5 12.5t-41 48.5t-31 93q-9 -26 -22 -53.5t-35 -49t-56 -34t-85 -9.5q-123 7 -179 104t-32 276zM229 772q-20 -2 -31.5 8t-13.5 24q-3 14 8 27.5t31 15.5q21 3 32 -7t12 -24q2 -14 -7 -27t-31 -17zM393 777q-20 -6 -33 2.5t-15 20.5q-3 12 8 27t32 20
q22 5 33.5 -3t13.5 -21q2 -14 -6.5 -27.5t-32.5 -18.5z" />
    <glyph glyph-name="aacute" unicode="&#xe1;" horiz-adv-x="492" 
d="M507 37q-3 -13 -10 -28.5t-20 -28t-31.5 -19t-43.5 -0.5t-39.5 28t-20.5 56q-9 -14 -22.5 -29.5t-32 -28t-42 -20t-51.5 -5.5q-38 3 -67.5 20.5t-49.5 45t-29.5 62.5t-5.5 73t20.5 65t41.5 43.5t57 22.5t66 3q45 -5 75 -26.5t46 -47.5q5 46 3 98.5t-16 96t-43 72
t-79 27.5q-35 0 -57.5 -12.5t-36 -29.5t-18.5 -34.5t-5 -27.5t6 -22.5t17 -23t26 -16.5t34 -3q13 2 23 9t16 16t8.5 19t2.5 19q0 10 -6 17.5t-14 11.5t-18 2.5t-18 -9.5q9 1 18 -3.5t9 -18.5q0 -11 -9 -16.5t-20 -4.5t-20 9.5t-9 26.5q0 17 14.5 29t33.5 12q23 0 42.5 -18
t19.5 -50q0 -11 -5.5 -23.5t-16.5 -23.5t-29 -18.5t-42 -7.5t-43 9.5t-32 24t-19.5 32t-6.5 33.5t10 40.5t31.5 46.5t54 38t77.5 16q121 0 167 -84.5t15 -251.5q-12 -67 -13 -109t5 -67t17.5 -35t24.5 -12q11 -2 21 2q8 2 15.5 9.5t10.5 23.5zM338 88q-1 36 3 76
q-8 31 -32.5 57.5t-55.5 31.5q-23 4 -47.5 -0.5t-43.5 -18t-30 -37.5t-8 -59q5 -54 30.5 -82t75.5 -25q38 2 64.5 19.5t43.5 37.5zM359 769q11 -9 18 -18t11 -16q4 -8 7 -15q-21 -11 -45.5 -24.5t-47 -27.5t-42.5 -28t-32 -25l-27 38q49 39 80 62t48 35q20 14 30 19z" />
    <glyph glyph-name="agrave" unicode="&#xe0;" horiz-adv-x="492" 
d="M507 37q-3 -13 -10 -28.5t-20 -28t-31.5 -19t-43.5 -0.5t-39.5 28t-20.5 56q-9 -14 -22.5 -29.5t-32 -28t-42 -20t-51.5 -5.5q-38 3 -67.5 20.5t-49.5 45t-29.5 62.5t-5.5 73t20.5 65t41.5 43.5t57 22.5t66 3q45 -5 75 -26.5t46 -47.5q5 46 3 98.5t-16 96t-43 72
t-79 27.5q-35 0 -57.5 -12.5t-36 -29.5t-18.5 -34.5t-5 -27.5t6 -22.5t17 -23t26 -16.5t34 -3q13 2 23 9t16 16t8.5 19t2.5 19q0 10 -6 17.5t-14 11.5t-18 2.5t-18 -9.5q9 1 18 -3.5t9 -18.5q0 -11 -9 -16.5t-20 -4.5t-20 9.5t-9 26.5q0 17 14.5 29t33.5 12q23 0 42.5 -18
t19.5 -50q0 -11 -5.5 -23.5t-16.5 -23.5t-29 -18.5t-42 -7.5t-43 9.5t-32 24t-19.5 32t-6.5 33.5t10 40.5t31.5 46.5t54 38t77.5 16q121 0 167 -84.5t15 -251.5q-12 -67 -13 -109t5 -67t17.5 -35t24.5 -12q11 -2 21 2q8 2 15.5 9.5t10.5 23.5zM338 88q-1 36 3 76
q-8 31 -32.5 57.5t-55.5 31.5q-23 4 -47.5 -0.5t-43.5 -18t-30 -37.5t-8 -59q5 -54 30.5 -82t75.5 -25q38 2 64.5 19.5t43.5 37.5zM196 760q10 -5 30 -19q17 -12 48 -35t80 -62l-27 -38q-12 11 -32 25t-43 28t-47 27.5t-45 24.5q3 7 7 15q4 7 11 16t18 18z" />
    <glyph glyph-name="acircumflex" unicode="&#xe2;" horiz-adv-x="492" 
d="M507 37q-3 -13 -10 -28.5t-20 -28t-31.5 -19t-43.5 -0.5t-39.5 28t-20.5 56q-9 -14 -22.5 -29.5t-32 -28t-42 -20t-51.5 -5.5q-38 3 -67.5 20.5t-49.5 45t-29.5 62.5t-5.5 73t20.5 65t41.5 43.5t57 22.5t66 3q45 -5 75 -26.5t46 -47.5q5 46 3 98.5t-16 96t-43 72
t-79 27.5q-35 0 -57.5 -12.5t-36 -29.5t-18.5 -34.5t-5 -27.5t6 -22.5t17 -23t26 -16.5t34 -3q13 2 23 9t16 16t8.5 19t2.5 19q0 10 -6 17.5t-14 11.5t-18 2.5t-18 -9.5q9 1 18 -3.5t9 -18.5q0 -11 -9 -16.5t-20 -4.5t-20 9.5t-9 26.5q0 17 14.5 29t33.5 12q23 0 42.5 -18
t19.5 -50q0 -11 -5.5 -23.5t-16.5 -23.5t-29 -18.5t-42 -7.5t-43 9.5t-32 24t-19.5 32t-6.5 33.5t10 40.5t31.5 46.5t54 38t77.5 16q121 0 167 -84.5t15 -251.5q-12 -67 -13 -109t5 -67t17.5 -35t24.5 -12q11 -2 21 2q8 2 15.5 9.5t10.5 23.5zM338 88q-1 36 3 76
q-8 31 -32.5 57.5t-55.5 31.5q-23 4 -47.5 -0.5t-43.5 -18t-30 -37.5t-8 -59q5 -54 30.5 -82t75.5 -25q38 2 64.5 19.5t43.5 37.5zM244 774q30 -32 64.5 -59t66.5 -45l-18 -40q-32 11 -62 36.5t-53 49.5l-96 -92l-30 41q39 30 64 51t39 34q17 15 25 24z" />
    <glyph glyph-name="adieresis" unicode="&#xe4;" horiz-adv-x="492" 
d="M507 37q-3 -13 -10 -28.5t-20 -28t-31.5 -19t-43.5 -0.5t-39.5 28t-20.5 56q-9 -14 -22.5 -29.5t-32 -28t-42 -20t-51.5 -5.5q-38 3 -67.5 20.5t-49.5 45t-29.5 62.5t-5.5 73t20.5 65t41.5 43.5t57 22.5t66 3q45 -5 75 -26.5t46 -47.5q5 46 3 98.5t-16 96t-43 72
t-79 27.5q-35 0 -57.5 -12.5t-36 -29.5t-18.5 -34.5t-5 -27.5t6 -22.5t17 -23t26 -16.5t34 -3q13 2 23 9t16 16t8.5 19t2.5 19q0 10 -6 17.5t-14 11.5t-18 2.5t-18 -9.5q9 1 18 -3.5t9 -18.5q0 -11 -9 -16.5t-20 -4.5t-20 9.5t-9 26.5q0 17 14.5 29t33.5 12q23 0 42.5 -18
t19.5 -50q0 -11 -5.5 -23.5t-16.5 -23.5t-29 -18.5t-42 -7.5t-43 9.5t-32 24t-19.5 32t-6.5 33.5t10 40.5t31.5 46.5t54 38t77.5 16q121 0 167 -84.5t15 -251.5q-12 -67 -13 -109t5 -67t17.5 -35t24.5 -12q11 -2 21 2q8 2 15.5 9.5t10.5 23.5zM338 88q-1 36 3 76
q-8 31 -32.5 57.5t-55.5 31.5q-23 4 -47.5 -0.5t-43.5 -18t-30 -37.5t-8 -59q5 -54 30.5 -82t75.5 -25q38 2 64.5 19.5t43.5 37.5zM178 619q-20 -2 -31.5 8t-13.5 24q-3 14 8 27.5t31 15.5q21 3 32 -7t12 -24q2 -14 -7 -27t-31 -17zM342 624q-20 -6 -33 2.5t-15 20.5
q-3 12 8 27t32 20q22 5 33.5 -3t13.5 -21q2 -14 -6.5 -27.5t-32.5 -18.5z" />
    <glyph glyph-name="atilde" unicode="&#xe3;" horiz-adv-x="492" 
d="M507 37q-3 -13 -10 -28.5t-20 -28t-31.5 -19t-43.5 -0.5t-39.5 28t-20.5 56q-9 -14 -22.5 -29.5t-32 -28t-42 -20t-51.5 -5.5q-38 3 -67.5 20.5t-49.5 45t-29.5 62.5t-5.5 73t20.5 65t41.5 43.5t57 22.5t66 3q45 -5 75 -26.5t46 -47.5q5 46 3 98.5t-16 96t-43 72
t-79 27.5q-35 0 -57.5 -12.5t-36 -29.5t-18.5 -34.5t-5 -27.5t6 -22.5t17 -23t26 -16.5t34 -3q13 2 23 9t16 16t8.5 19t2.5 19q0 10 -6 17.5t-14 11.5t-18 2.5t-18 -9.5q9 1 18 -3.5t9 -18.5q0 -11 -9 -16.5t-20 -4.5t-20 9.5t-9 26.5q0 17 14.5 29t33.5 12q23 0 42.5 -18
t19.5 -50q0 -11 -5.5 -23.5t-16.5 -23.5t-29 -18.5t-42 -7.5t-43 9.5t-32 24t-19.5 32t-6.5 33.5t10 40.5t31.5 46.5t54 38t77.5 16q121 0 167 -84.5t15 -251.5q-12 -67 -13 -109t5 -67t17.5 -35t24.5 -12q11 -2 21 2q8 2 15.5 9.5t10.5 23.5zM338 88q-1 36 3 76
q-8 31 -32.5 57.5t-55.5 31.5q-23 4 -47.5 -0.5t-43.5 -18t-30 -37.5t-8 -59q5 -54 30.5 -82t75.5 -25q38 2 64.5 19.5t43.5 37.5zM262 689q25 -12 44 -15t33.5 0.5t25 11t18.5 15.5l31 -38q-29 -24 -65.5 -27.5t-71.5 17.5q-16 9 -34 10t-35 -3.5t-30.5 -14t-20.5 -22.5
l-37 35q7 8 21 18.5t32.5 17.5t41 7t47.5 -12z" />
    <glyph glyph-name="aring" unicode="&#xe5;" horiz-adv-x="492" 
d="M338 88q-1 36 3 76q-4 15 -12.5 30t-20 27.5t-26 21t-29.5 11.5q-23 4 -47.5 -0.5t-43.5 -18.5t-30 -38t-8 -59q5 -54 30.5 -82t75.5 -25q38 2 64.5 19.5t43.5 37.5zM296 731q15 -5 26 -17t17 -26.5t8 -30.5t0 -29q-4 -23 -17 -42t-36 -27q86 -21 115.5 -103.5
t3.5 -225.5q-12 -67 -13 -109t5 -67t17.5 -35t24.5 -12q11 -2 21 2q8 2 15.5 9.5t10.5 23.5l13 -5q-3 -13 -10 -28.5t-20 -28t-31.5 -19t-43.5 -0.5t-39.5 28t-20.5 56q-9 -14 -22.5 -29.5t-32 -28t-42 -20t-51.5 -5.5q-38 3 -67.5 20.5t-49.5 45t-29.5 63t-5.5 73.5
q4 37 20.5 64t41.5 43.5t57 22.5t66 3q45 -5 75 -26.5t46 -47.5q5 46 3 98.5t-16 96t-43 72t-79 27.5q-35 0 -57.5 -12.5t-36 -29.5t-18.5 -34.5t-5 -27.5t6 -22.5t17 -23t26 -16.5t34 -3q13 2 23 9t16 16t8.5 19t2.5 19q0 10 -6 18t-14 11.5t-18 2.5t-18 -10q9 1 18 -3.5
t9 -18.5q0 -11 -9 -16.5t-20 -4.5t-20 9.5t-9 26.5q0 17 14.5 29t33.5 12q23 0 42.5 -18t19.5 -50q0 -11 -5.5 -23.5t-16.5 -23.5t-29 -18.5t-42 -7.5t-43 9.5t-32 24t-19.5 32t-6.5 33.5t10 39.5t30.5 46t52 38.5t75.5 17q-23 13 -35.5 37.5t-2.5 61.5q4 16 15 31t26 25
t32.5 13t34.5 -3zM307 639q3 15 -2 34t-24 22q-24 4 -37 -11.5t-16 -30.5q-2 -7 -1 -16t4.5 -17.5t8.5 -14.5t12 -8q16 -5 33 8t22 34z" />
    <glyph glyph-name="ccedilla" unicode="&#xe7;" horiz-adv-x="517" 
d="M299 -54q15 1 29 0.5t24.5 -5.5t17.5 -16t9 -31q2 -21 -5 -41t-19.5 -35.5t-29.5 -24.5t-36 -8q-38 3 -57 26t-24 52q18 -18 39.5 -27.5t42.5 -4.5q13 3 24.5 18t14.5 30.5t-6.5 27.5t-36.5 9q-26 -2 -40.5 3t-21 15.5t-6.5 26.5t4 36q-53 10 -90.5 42t-60 77t-30.5 98
t-2 105q6 54 25 97t47 73t63.5 46t75.5 18q31 1 65 -11.5t67 -29.5q32 -17 49 -8t28 61l22 1l-5 -239l-24 -8q-3 23 -13 55.5t-29 62t-48 50.5t-68 21q-42 0 -72 -19.5t-48 -52.5t-26 -76t-6 -90q4 -105 42 -166.5t102 -61.5q36 0 64 14t47.5 33.5t30.5 41t12 35.5h24
q-5 -28 -19.5 -57.5t-38 -54t-56 -41t-72.5 -19.5q-4 -9 -6 -18t-0.5 -16t8 -11t19.5 -3z" />
    <glyph glyph-name="eacute" unicode="&#xe9;" horiz-adv-x="474" 
d="M32 271q3 59 25.5 110t58.5 87.5t81.5 55.5t94.5 13t75.5 -30t37.5 -53.5t12 -58.5t0 -45q-1 -15 -3.5 -33t-5 -35.5t-2.5 -33t3 -25.5q-25 8 -58 17.5t-71.5 14.5t-80 3.5t-82.5 -14.5q-1 -38 5.5 -75.5t21.5 -71.5q13 -29 30 -51t36.5 -33.5t40 -12.5t41.5 12
q17 12 26 29q8 14 6.5 34t-21.5 46l125 6q-7 -20 -20.5 -50t-36.5 -58t-57 -47t-82 -17q-48 3 -86.5 30.5t-64.5 71.5t-39 99.5t-10 114.5zM280 511q-28 3 -54.5 -14t-48 -48.5t-36.5 -74.5t-21 -90q57 7 106 7.5t91 -6.5q11 23 20 59.5t8 72t-15.5 62.5t-49.5 32zM359 739
q11 -9 18 -18t11 -16q4 -8 7 -15q-21 -11 -45.5 -24.5t-47 -27.5t-42.5 -28t-32 -25l-27 38q49 39 80 62t48 35q20 14 30 19z" />
    <glyph glyph-name="egrave" unicode="&#xe8;" horiz-adv-x="474" 
d="M32 271q3 59 25.5 110t58.5 87.5t81.5 55.5t94.5 13t75.5 -30t37.5 -53.5t12 -58.5t0 -45q-1 -15 -3.5 -33t-5 -35.5t-2.5 -33t3 -25.5q-25 8 -58 17.5t-71.5 14.5t-80 3.5t-82.5 -14.5q-1 -38 5.5 -75.5t21.5 -71.5q13 -29 30 -51t36.5 -33.5t40 -12.5t41.5 12
q17 12 26 29q8 14 6.5 34t-21.5 46l125 6q-7 -20 -20.5 -50t-36.5 -58t-57 -47t-82 -17q-48 3 -86.5 30.5t-64.5 71.5t-39 99.5t-10 114.5zM280 511q-28 3 -54.5 -14t-48 -48.5t-36.5 -74.5t-21 -90q57 7 106 7.5t91 -6.5q11 23 20 59.5t8 72t-15.5 62.5t-49.5 32zM196 739
q10 -5 30 -19q17 -12 48 -35t80 -62l-27 -38q-12 11 -32 25t-43 28t-47 27.5t-45 24.5q3 7 7 15q4 7 11 16t18 18z" />
    <glyph glyph-name="ecircumflex" unicode="&#xea;" horiz-adv-x="474" 
d="M32 271q3 59 25.5 110t58.5 87.5t81.5 55.5t94.5 13t75.5 -30t37.5 -53.5t12 -58.5t0 -45q-1 -15 -3.5 -33t-5 -35.5t-2.5 -33t3 -25.5q-25 8 -58 17.5t-71.5 14.5t-80 3.5t-82.5 -14.5q-1 -38 5.5 -75.5t21.5 -71.5q13 -29 30 -51t36.5 -33.5t40 -12.5t41.5 12
q17 12 26 29q8 14 6.5 34t-21.5 46l125 6q-7 -20 -20.5 -50t-36.5 -58t-57 -47t-82 -17q-48 3 -86.5 30.5t-64.5 71.5t-39 99.5t-10 114.5zM280 511q-28 3 -54.5 -14t-48 -48.5t-36.5 -74.5t-21 -90q57 7 106 7.5t91 -6.5q11 23 20 59.5t8 72t-15.5 62.5t-49.5 32zM265 755
q30 -32 64.5 -59t66.5 -45l-18 -40q-32 11 -62 36.5t-53 49.5l-96 -92l-30 41q39 30 64 51t39 34q17 15 25 24z" />
    <glyph glyph-name="edieresis" unicode="&#xeb;" horiz-adv-x="474" 
d="M32 271q3 59 25.5 110t58.5 87.5t81.5 55.5t94.5 13t75.5 -30t37.5 -53.5t12 -58.5t0 -45q-1 -15 -3.5 -33t-5 -35.5t-2.5 -33t3 -25.5q-25 8 -58 17.5t-71.5 14.5t-80 3.5t-82.5 -14.5q-1 -38 5.5 -75.5t21.5 -71.5q13 -29 30 -51t36.5 -33.5t40 -12.5t41.5 12
q17 12 26 29q8 14 6.5 34t-21.5 46l125 6q-7 -20 -20.5 -50t-36.5 -58t-57 -47t-82 -17q-48 3 -86.5 30.5t-64.5 71.5t-39 99.5t-10 114.5zM280 511q-28 3 -54.5 -14t-48 -48.5t-36.5 -74.5t-21 -90q57 7 106 7.5t91 -6.5q11 23 20 59.5t8 72t-15.5 62.5t-49.5 32zM198 588
q-20 -2 -31.5 8t-13.5 24q-3 14 8 27.5t31 15.5q21 3 32 -7t12 -24q2 -14 -7 -27t-31 -17zM362 593q-20 -6 -33 2.5t-15 20.5q-3 12 8 27t32 20q22 5 33.5 -3t13.5 -21q2 -14 -6.5 -27.5t-32.5 -18.5z" />
    <glyph glyph-name="iacute" unicode="&#xed;" horiz-adv-x="253" 
d="M15 5q23 8 38 21t23 26q10 15 13 31q22 102 22 194.5t-14 158.5q-4 21 -15 39q-9 15 -25 28.5t-41 17.5l-1 16q20 -2 37.5 -2.5t30.5 -0.5h28q12 -1 24 -1q11 -1 22.5 -1t22.5 -2q-3 -36 -5 -73.5t-3 -67.5q-2 -35 -2 -68q-2 -37 -3 -80.5t1 -82.5t7 -68.5t16 -38.5
q6 -4 16 -8q8 -4 21.5 -8t33.5 -8l1 -17q-20 1 -38.5 0.5t-32.5 -0.5q-17 -1 -32 -1q-21 -1 -45 -4q-20 -2 -45 -5t-48 -7l-7 12v0zM246 769q11 -9 18 -18t11 -16q4 -8 7 -15q-21 -11 -45.5 -24.5t-47 -27.5t-42.5 -28t-32 -25l-27 38q49 39 80 62t48 35q20 14 30 19z" />
    <glyph glyph-name="igrave" unicode="&#xec;" horiz-adv-x="253" 
d="M15 5q23 8 38 21t23 26q10 15 13 31q22 102 22 194.5t-14 158.5q-4 21 -15 39q-9 15 -25 28.5t-41 17.5l-1 16q20 -2 37.5 -2.5t30.5 -0.5h28q12 -1 24 -1q11 -1 22.5 -1t22.5 -2q-3 -36 -5 -73.5t-3 -67.5q-2 -35 -2 -68q-2 -37 -3 -80.5t1 -82.5t7 -68.5t16 -38.5
q6 -4 16 -8q8 -4 21.5 -8t33.5 -8l1 -17q-20 1 -38.5 0.5t-32.5 -0.5q-17 -1 -32 -1q-21 -1 -45 -4q-20 -2 -45 -5t-48 -7l-7 12v0zM11 760q10 -5 30 -19q17 -12 48 -35t80 -62l-27 -38q-12 11 -32 25t-43 28t-47 27.5t-45 24.5q3 7 7 15q4 7 11 16t18 18z" />
    <glyph glyph-name="icircumflex" unicode="&#xee;" horiz-adv-x="253" 
d="M15 5q23 8 38 21t23 26q10 15 13 31q22 102 22 194.5t-14 158.5q-4 21 -15 39q-9 15 -25 28.5t-41 17.5l-1 16q20 -2 37.5 -2.5t30.5 -0.5h28q12 -1 24 -1q11 -1 22.5 -1t22.5 -2q-3 -36 -5 -73.5t-3 -67.5q-2 -35 -2 -68q-2 -37 -3 -80.5t1 -82.5t7 -68.5t16 -38.5
q6 -4 16 -8q8 -4 21.5 -8t33.5 -8l1 -17q-20 1 -38.5 0.5t-32.5 -0.5q-17 -1 -32 -1q-21 -1 -45 -4q-20 -2 -45 -5t-48 -7l-7 12v0zM121 774q30 -32 64.5 -59t66.5 -45l-18 -40q-32 11 -62 36.5t-53 49.5l-96 -92l-30 41q39 30 64 51t39 34q17 15 25 24z" />
    <glyph glyph-name="idieresis" unicode="&#xef;" horiz-adv-x="253" 
d="M15 5q23 8 38 21t23 26q10 15 13 31q22 102 22 194.5t-14 158.5q-4 21 -15 39q-9 15 -25 28.5t-41 17.5l-1 16q20 -2 37.5 -2.5t30.5 -0.5h28q12 -1 24 -1q11 -1 22.5 -1t22.5 -2q-3 -36 -5 -73.5t-3 -67.5q-2 -35 -2 -68q-2 -37 -3 -80.5t1 -82.5t7 -68.5t16 -38.5
q6 -4 16 -8q8 -4 21.5 -8t33.5 -8l1 -17q-20 1 -38.5 0.5t-32.5 -0.5q-17 -1 -32 -1q-21 -1 -45 -4q-20 -2 -45 -5t-48 -7l-7 12v0zM55 619q-20 -2 -31.5 8t-13.5 24q-3 14 8 27.5t31 15.5q21 3 32 -7t12 -24q2 -14 -7 -27t-31 -17zM219 624q-20 -6 -33 2.5t-15 20.5
q-3 12 8 27t32 20q22 5 33.5 -3t13.5 -21q2 -14 -6.5 -27.5t-32.5 -18.5z" />
    <glyph glyph-name="ntilde" unicode="&#xf1;" horiz-adv-x="517" 
d="M153 377q12 37 34 74t50.5 66.5t62 46.5t69.5 15q33 -3 54.5 -29t34.5 -61.5t17.5 -73t3.5 -62.5q-2 -31 -12.5 -59.5t-23 -57t-23.5 -58.5t-13 -63t7.5 -62.5t27.5 -45.5t42.5 -13.5t50.5 34.5l13 -11q-10 -17 -33 -33.5t-54 -16.5q-21 0 -41.5 8.5t-37 27t-27 47.5
t-11.5 71q0 35 9 65t19.5 60t19 62.5t7.5 72.5q-2 37 -11.5 60.5t-23 36t-29 16t-28.5 1.5q-27 -5 -55 -30.5t-50.5 -64t-36.5 -87.5t-15 -100v2q0 -25 -1 -44t1 -32q0 -29 5.5 -45.5t12.5 -25.5t15.5 -12.5t14.5 -4.5l-1 -18q-14 3 -35.5 3.5t-46.5 -2.5t-51.5 -11
t-48.5 -22l-7 14q15 12 26.5 21.5t20 24.5t14.5 39t9 63q6 79 8 155.5t-4 142.5q-2 21 -10.5 32t-20.5 15.5t-25 4.5t-25 -1l-1 17q22 2 45.5 5t45.5 6t39.5 6.5t27.5 8.5q-2 -32 -2.5 -63.5t-1.5 -57.5q-1 -30 -1 -57zM262 689q25 -12 44 -15t33.5 0.5t25 11t18.5 15.5
l31 -38q-29 -24 -65.5 -27.5t-71.5 17.5q-16 9 -34 10t-35 -3.5t-30.5 -14t-20.5 -22.5l-37 35q7 8 21 18.5t32.5 17.5t41 7t47.5 -12z" />
    <glyph glyph-name="oacute" unicode="&#xf3;" horiz-adv-x="487" 
d="M231 557q42 1 83 -17t74 -54t53.5 -87.5t20.5 -117.5t-16.5 -116.5t-44 -85.5t-63 -53.5t-74.5 -21.5q-44 -3 -86 14.5t-75.5 53t-54.5 88t-22 120.5q-2 70 17.5 121.5t49.5 85.5t67 51t71 19zM273 70q21 2 45 18t42 47.5t26.5 78t-1.5 109.5t-30 102t-43.5 60.5
t-47.5 28t-42 5.5q-29 -2 -49 -19.5t-33.5 -45t-20 -62.5t-7.5 -73q-2 -48 7 -96t31 -86q21 -37 53 -54t70 -13zM338 760q11 -9 18 -18t11 -16q4 -8 7 -15q-21 -11 -45.5 -24.5t-47 -27.5t-42.5 -28t-32 -25l-27 38q49 39 80 62t48 35q20 14 30 19z" />
    <glyph glyph-name="ograve" unicode="&#xf2;" horiz-adv-x="487" 
d="M231 557q42 1 83 -17t74 -54t53.5 -87.5t20.5 -117.5t-16.5 -116.5t-44 -85.5t-63 -53.5t-74.5 -21.5q-44 -3 -86 14.5t-75.5 53t-54.5 88t-22 120.5q-2 70 17.5 121.5t49.5 85.5t67 51t71 19zM273 70q21 2 45 18t42 47.5t26.5 78t-1.5 109.5t-30 102t-43.5 60.5
t-47.5 28t-42 5.5q-29 -2 -49 -19.5t-33.5 -45t-20 -62.5t-7.5 -73q-2 -48 7 -96t31 -86q21 -37 53 -54t70 -13zM185 760q10 -5 30 -19q17 -12 48 -35t80 -62l-27 -38q-12 11 -32 25t-43 28t-47 27.5t-45 24.5q3 7 7 15q4 7 11 16t18 18z" />
    <glyph glyph-name="ocircumflex" unicode="&#xf4;" horiz-adv-x="487" 
d="M231 557q42 1 83 -17t74 -54t53.5 -87.5t20.5 -117.5t-16.5 -116.5t-44 -85.5t-63 -53.5t-74.5 -21.5q-44 -3 -86 14.5t-75.5 53t-54.5 88t-22 120.5q-2 70 17.5 121.5t49.5 85.5t67 51t71 19zM273 70q21 2 45 18t42 47.5t26.5 78t-1.5 109.5t-30 102t-43.5 60.5
t-47.5 28t-42 5.5q-29 -2 -49 -19.5t-33.5 -45t-20 -62.5t-7.5 -73q-2 -48 7 -96t31 -86q21 -37 53 -54t70 -13zM244 774q30 -32 64.5 -59t66.5 -45l-18 -40q-32 11 -62 36.5t-53 49.5l-96 -92l-30 41q39 30 64 51t39 34q17 15 25 24z" />
    <glyph glyph-name="odieresis" unicode="&#xf6;" horiz-adv-x="487" 
d="M231 557q42 1 83 -17t74 -54t53.5 -87.5t20.5 -117.5t-16.5 -116.5t-44 -85.5t-63 -53.5t-74.5 -21.5q-44 -3 -86 14.5t-75.5 53t-54.5 88t-22 120.5q-2 70 17.5 121.5t49.5 85.5t67 51t71 19zM273 70q21 2 45 18t42 47.5t26.5 78t-1.5 109.5t-30 102t-43.5 60.5
t-47.5 28t-42 5.5q-29 -2 -49 -19.5t-33.5 -45t-20 -62.5t-7.5 -73q-2 -48 7 -96t31 -86q21 -37 53 -54t70 -13zM167 619q-20 -2 -31.5 8t-13.5 24q-3 14 8 27.5t31 15.5q21 3 32 -7t12 -24q2 -14 -7 -27t-31 -17zM331 624q-20 -6 -33 2.5t-15 20.5q-3 12 8 27t32 20
q22 5 33.5 -3t13.5 -21q2 -14 -6.5 -27.5t-32.5 -18.5z" />
    <glyph glyph-name="otilde" unicode="&#xf5;" horiz-adv-x="487" 
d="M231 557q42 1 83 -17t74 -54t53.5 -87.5t20.5 -117.5t-16.5 -116.5t-44 -85.5t-63 -53.5t-74.5 -21.5q-44 -3 -86 14.5t-75.5 53t-54.5 88t-22 120.5q-2 70 17.5 121.5t49.5 85.5t67 51t71 19zM273 70q21 2 45 18t42 47.5t26.5 78t-1.5 109.5t-30 102t-43.5 60.5
t-47.5 28t-42 5.5q-29 -2 -49 -19.5t-33.5 -45t-20 -62.5t-7.5 -73q-2 -48 7 -96t31 -86q21 -37 53 -54t70 -13zM241 689q25 -12 44 -15t33.5 0.5t25 11t18.5 15.5l31 -38q-29 -24 -65.5 -27.5t-71.5 17.5q-16 9 -34 10t-35 -3.5t-30.5 -14t-20.5 -22.5l-37 35q7 8 21 18.5
t32.5 17.5t41 7t47.5 -12z" />
    <glyph glyph-name="uacute" unicode="&#xfa;" horiz-adv-x="484" 
d="M445 37q7 0 14 4q6 3 11.5 9t9.5 18h15q-1 -10 -6 -22.5t-15 -23t-25 -17.5t-35 -5q-64 6 -77 124q-9 -24 -20.5 -49t-27.5 -46t-37.5 -34.5t-51.5 -13.5q-38 0 -66.5 15.5t-47.5 41.5t-27 59.5t-6 69.5q3 50 14 101.5t13.5 97t-11 80t-59.5 50.5l4 15q15 -3 33 -8t38 -8
t42.5 -3t45.5 6q-12 -26 -21.5 -49t-15.5 -51t-9 -64t-3 -89t8.5 -89t24 -57t36.5 -29.5t47 -6.5q25 3 42.5 23.5t29 54t18 76.5t8.5 91t0.5 82t-7.5 57t-18 37.5t-32 22.5l2 16h43t50 1.5t46.5 4.5t32.5 8q-17 -33 -30.5 -83.5t-22.5 -106t-12 -111t2 -100t17.5 -72
t35.5 -27.5zM338 729q11 -9 18 -18t11 -16q4 -8 7 -15q-21 -11 -45.5 -24.5t-47 -27.5t-42.5 -28t-32 -25l-27 38q49 39 80 62t48 35q20 14 30 19z" />
    <glyph glyph-name="ugrave" unicode="&#xf9;" horiz-adv-x="484" 
d="M445 37q7 0 14 4q6 3 11.5 9t9.5 18h15q-1 -10 -6 -22.5t-15 -23t-25 -17.5t-35 -5q-64 6 -77 124q-9 -24 -20.5 -49t-27.5 -46t-37.5 -34.5t-51.5 -13.5q-38 0 -66.5 15.5t-47.5 41.5t-27 59.5t-6 69.5q3 50 14 101.5t13.5 97t-11 80t-59.5 50.5l4 15q15 -3 33 -8t38 -8
t42.5 -3t45.5 6q-12 -26 -21.5 -49t-15.5 -51t-9 -64t-3 -89t8.5 -89t24 -57t36.5 -29.5t47 -6.5q25 3 42.5 23.5t29 54t18 76.5t8.5 91t0.5 82t-7.5 57t-18 37.5t-32 22.5l2 16h43t50 1.5t46.5 4.5t32.5 8q-17 -33 -30.5 -83.5t-22.5 -106t-12 -111t2 -100t17.5 -72
t35.5 -27.5zM124 739q10 -5 30 -19q17 -12 48 -35t80 -62l-27 -38q-12 11 -32 25t-43 28t-47 27.5t-45 24.5q3 7 7 15q4 7 11 16t18 18z" />
    <glyph glyph-name="ucircumflex" unicode="&#xfb;" horiz-adv-x="484" 
d="M445 37q7 0 14 4q6 3 11.5 9t9.5 18h15q-1 -10 -6 -22.5t-15 -23t-25 -17.5t-35 -5q-64 6 -77 124q-9 -24 -20.5 -49t-27.5 -46t-37.5 -34.5t-51.5 -13.5q-38 0 -66.5 15.5t-47.5 41.5t-27 59.5t-6 69.5q3 50 14 101.5t13.5 97t-11 80t-59.5 50.5l4 15q15 -3 33 -8t38 -8
t42.5 -3t45.5 6q-12 -26 -21.5 -49t-15.5 -51t-9 -64t-3 -89t8.5 -89t24 -57t36.5 -29.5t47 -6.5q25 3 42.5 23.5t29 54t18 76.5t8.5 91t0.5 82t-7.5 57t-18 37.5t-32 22.5l2 16h43t50 1.5t46.5 4.5t32.5 8q-17 -33 -30.5 -83.5t-22.5 -106t-12 -111t2 -100t17.5 -72
t35.5 -27.5zM234 755q30 -32 64.5 -59t66.5 -45l-18 -40q-32 11 -62 36.5t-53 49.5l-96 -92l-30 41q39 30 64 51t39 34q17 15 25 24z" />
    <glyph glyph-name="udieresis" unicode="&#xfc;" horiz-adv-x="484" 
d="M445 37q7 0 14 4q6 3 11.5 9t9.5 18h15q-1 -10 -6 -22.5t-15 -23t-25 -17.5t-35 -5q-64 6 -77 124q-9 -24 -20.5 -49t-27.5 -46t-37.5 -34.5t-51.5 -13.5q-38 0 -66.5 15.5t-47.5 41.5t-27 59.5t-6 69.5q3 50 14 101.5t13.5 97t-11 80t-59.5 50.5l4 15q15 -3 33 -8t38 -8
t42.5 -3t45.5 6q-12 -26 -21.5 -49t-15.5 -51t-9 -64t-3 -89t8.5 -89t24 -57t36.5 -29.5t47 -6.5q25 3 42.5 23.5t29 54t18 76.5t8.5 91t0.5 82t-7.5 57t-18 37.5t-32 22.5l2 16h43t50 1.5t46.5 4.5t32.5 8q-17 -33 -30.5 -83.5t-22.5 -106t-12 -111t2 -100t17.5 -72
t35.5 -27.5zM157 588q-20 -2 -31.5 8t-13.5 24q-3 14 8 27.5t31 15.5q21 3 32 -7t12 -24q2 -14 -7 -27t-31 -17zM321 593q-20 -6 -33 2.5t-15 20.5q-3 12 8 27t32 20q22 5 33.5 -3t13.5 -21q2 -14 -6.5 -27.5t-32.5 -18.5z" />
    <glyph glyph-name="degree" unicode="&#xb0;" horiz-adv-x="179" 
d="M117 783q15 -5 26 -17t17 -26.5t8 -30.5t0 -29q-3 -15 -10 -29t-18 -24.5t-27 -15.5t-35 -2q-18 3 -33 11t-25.5 22t-13.5 32.5t3 42.5q5 16 16 31t25.5 25t32 13t34.5 -3zM128 691q4 16 -1.5 34.5t-24.5 22.5q-12 2 -21 -1.5t-15.5 -10.5t-10.5 -15t-6 -15q-2 -8 -1 -17
t4.5 -17t9 -14.5t11.5 -8.5q17 -5 33.5 8.5t21.5 33.5z" />
    <glyph glyph-name="cent" unicode="&#xa2;" horiz-adv-x="389" 
d="M279 429q1 34 0.5 64.5t-4.5 53.5t-12.5 37.5t-22.5 15.5t-35 -10.5t-42 -35t-39 -59.5t-28 -85q-8 -41 -6.5 -84.5t11.5 -80.5t29.5 -62t47.5 -29q20 -3 40 3t37.5 18.5t31 30t20.5 36.5l34 -21q-5 -10 -16 -31t-31 -41t-49.5 -34t-69.5 -11q-5 -14 -10.5 -35.5
t-10.5 -41.5q-6 -24 -13 -49l-39 12q10 32 15.5 56t8.5 39q4 18 4 29q-39 15 -64 46.5t-38.5 69.5t-16.5 79t2 76q6 39 23 82.5t42.5 80.5t59.5 63.5t73 32.5q3 10 7 27q3 14 7 35t9 50l48 -7l-23 -107q12 -3 21.5 -11t15.5 -19l1 1l3 -6l2 -4l2 -4q4 -6 9 -9.5t10.5 0
t11.5 17.5t12 42q7 -3 15 -3q4 0 7 1l-53 -219z" />
    <glyph glyph-name="sterling" unicode="&#xa3;" horiz-adv-x="463" 
d="M391 91q20 2 39.5 12t32.5 35l15 -12q-4 -15 -17 -35t-36 -34.5t-58 -17t-82 17.5q-42 17 -80 17t-68.5 -9.5t-51.5 -23.5t-28 -24q-1 12 -5 24t-10 22.5t-13.5 18t-15.5 8.5q18 11 38 32t36 50t24.5 66t2.5 81q-29 -4 -57.5 -8.5t-52.5 -11.5q-5 4 -4 20t0 26
q17 2 45.5 2t63.5 2q-4 12 -7.5 24t-8.5 24q-25 60 -28 117t14 101t54.5 72.5t94.5 31.5t90 -11t49.5 -36.5t20.5 -47.5t4 -43q0 -24 -10.5 -49t-29 -44t-44.5 -29t-58 -3q-40 8 -59 28.5t-24 44t0.5 46t14.5 34.5q6 9 15.5 17t21 13t24 5.5t26.5 -6.5q21 -11 25 -32.5
t-1 -41.5q-6 -20 -23 -33t-37 -4q-7 3 -10 10.5t-2 15.5t6.5 14t15.5 7q8 1 12 -4.5t4 -12.5q8 6 10 17.5t-2 22.5t-13 17.5t-23 3.5q-9 -2 -18 -8.5t-16 -16.5t-10 -23.5t-1 -28.5q3 -15 12 -27t22 -20.5t28.5 -12.5t32.5 -3q16 1 32 8.5t28 22.5t17.5 38t2.5 56
q-2 20 -10.5 38t-23.5 31t-37.5 20t-52.5 5t-57.5 -16t-44.5 -39.5t-20.5 -62.5t14.5 -83q11 -31 24 -68t21 -76q26 3 49.5 7.5t40.5 12.5l10 -49q-15 2 -39.5 2.5t-54.5 -0.5q10 -57 2.5 -110t-44.5 -95q54 20 97.5 15t72.5 -17q21 -9 40.5 -19t42.5 -8z" />
    <glyph glyph-name="section" unicode="&#xa7;" horiz-adv-x="371" 
d="M139 83q14 3 19 -7t3 -21q12 2 19.5 12.5t8.5 27.5q1 16 -8.5 29.5t-34.5 13.5q-9 0 -20 -5t-21 -14.5t-17 -25t-7 -36.5q-1 -22 7 -41t21.5 -33.5t31 -23t34.5 -9.5q18 -1 35 5t30.5 18.5t22.5 31.5t10 44q2 50 -24 84.5t-75 67.5q-20 13 -43.5 29t-43.5 36.5t-34 46
t-14 58.5q0 52 28 93.5t73 55.5q-18 12 -36.5 24.5t-34.5 29.5t-26 39.5t-11 53.5q-1 33 12.5 63.5t36 53t52 35t61.5 9.5q31 -2 50.5 -14.5t29.5 -28t13 -31.5t3 -25q-1 -15 -7 -29.5t-17 -26t-26.5 -18.5t-36.5 -5q-21 1 -32 9.5t-14.5 19t-0.5 21t9 16.5q9 9 22.5 9
t19.5 -11q4 -8 1 -17t-12 -12q5 -4 11 -6.5t13 -2.5q12 0 20.5 5.5t13.5 14.5t7.5 19.5t2.5 20.5q0 23 -16.5 42t-48.5 19q-25 0 -46.5 -11t-37 -28t-24.5 -37t-10 -39q-1 -41 28 -68t76 -53q24 -13 46.5 -27t40 -31.5t28 -39.5t10.5 -52q0 -57 -31.5 -101.5t-88.5 -62.5
q5 -4 10 -7.5t10 -8.5q28 -21 51 -40t40 -41t26 -48t8 -61q-1 -37 -15.5 -64.5t-37 -44.5t-50 -25t-55.5 -6q-31 2 -57.5 14t-46 32.5t-31 49t-11.5 64.5q0 28 11.5 48.5t29.5 33t39.5 18t41.5 4.5q31 -2 47 -22t14 -49q-1 -15 -6.5 -28t-14.5 -22.5t-20 -15t-23 -4.5
q-12 0 -20.5 8.5t-11 19t2 20t18.5 11.5zM166 266q10 4 22 12t22.5 20t18.5 29t10 41q4 44 -16.5 74.5t-49.5 53.5q-27 -8 -50.5 -35.5t-24.5 -71.5q-1 -19 2.5 -34.5t11.5 -29.5t21.5 -28.5t32.5 -30.5z" />
    <glyph glyph-name="bullet" unicode="&#x2022;" horiz-adv-x="246" 
d="M142 444q15 -5 26 -17t17.5 -26.5t8.5 -30.5t0 -29q-3 -15 -10 -29t-18.5 -24.5t-27 -15.5t-35.5 -2q-18 3 -33 11.5t-25 22t-13.5 32t3.5 42.5q4 16 15 31t25.5 25t32 13t34.5 -3z" />
    <glyph glyph-name="paragraph" unicode="&#xb6;" horiz-adv-x="499" 
d="M241 266q-29 10 -66 30t-70 52t-56 77t-23 104q0 68 27 111t67.5 66.5t88 30t88.5 0.5q31 -4 64 -3q28 0 61.5 4.5t65.5 17.5q-5 -7 -8 -20t-4.5 -28.5t-1 -32.5t2.5 -32q-24 16 -73 24q-4 -42 -4.5 -98t1 -117.5t5 -124.5t8.5 -119t11 -101.5t13 -71.5q-14 3 -39.5 -0.5
t-46.5 -8.5q3 26 3 72.5t-1 97t-2.5 97.5t-1.5 74q-1 24 -2 64t-1 84t0.5 85.5t2.5 70.5q-24 0 -48 -3q-4 -48 -2.5 -127t5 -172t7 -190t3.5 -181q-9 1 -22 -2q-11 -2 -27.5 -7t-36.5 -15q3 15 6 48t5 74t2 86t-1 84z" />
    <glyph glyph-name="germandbls" unicode="&#xdf;" horiz-adv-x="627" 
d="M387 398q12 -30 34.5 -53.5t48.5 -44.5t51.5 -40.5t45.5 -41.5q21 -23 32 -50.5t15 -54.5t1.5 -51t-9.5 -40q-8 -20 -23 -42.5t-36.5 -40.5t-49.5 -28.5t-62 -8.5q-24 1 -44.5 9.5t-37 21t-27.5 27t-16 28.5q-9 28 -6.5 53.5t15.5 43.5q20 25 39 29t36 4t33 -6t28 -16.5
t18 -25.5t3 -31q-3 -14 -11 -24.5t-18.5 -17.5t-22 -10t-20.5 -1q-14 3 -28 12.5t-14 25.5q0 15 7.5 27t19.5 15q19 4 29 1t14 -9.5t3.5 -13.5t-2.5 -11q-4 -8 -11 -12q-6 -3 -15.5 -0.5t-23.5 16.5q-5 -11 -1.5 -17.5t9.5 -11.5q7 -5 18 -8q20 -4 33.5 9.5t14 32.5t-14 36
t-50.5 20q-21 1 -35 -9t-20 -25.5t-4 -34.5t12 -34q19 -30 53 -40t62 -2q17 5 35 21t29 40.5t11 56t-20 67.5q-11 19 -42 47.5t-65.5 62t-65.5 69t-43 70.5q-5 14 -5 30.5t2 33.5q4 34 19.5 60t32.5 47t31 40.5t16 40.5q1 19 -5.5 37.5t-18.5 33t-29 24t-36 11.5t-41.5 -8.5
t-42.5 -34.5t-35 -61.5t-20 -88.5q-4 -44 -7 -88t-4 -92q-1 -56 4 -116.5t19 -131.5q8 -42 16 -67t17.5 -40t22 -24t28.5 -19l-11 -17q-30 14 -64 22.5t-68.5 12t-67.5 2.5t-61 -6l-1 29q15 1 28.5 2t26 10.5t23 32t18.5 66.5q11 57 14.5 113.5t1.5 114.5q-34 -2 -62 -10
q5 11 5 24.5t-2 21.5q10 -1 25 -2t33 -2q-1 24 -2 48.5t-3 48.5q-2 31 -2 69t4.5 75.5t16.5 71.5t33.5 59t55.5 36.5t83 4.5q45 -7 76.5 -23t51 -37.5t28.5 -46t9 -48.5q0 -30 -10.5 -55.5t-24 -48l-25.5 -42.5t-14 -39q-2 -15 0 -30.5t9 -32.5z" />
    <glyph glyph-name="registered" unicode="&#xae;" horiz-adv-x="628" 
d="M339 740q56 -2 102 -31t77.5 -73t46.5 -97t10 -103q-4 -50 -27.5 -95t-61 -79t-87 -53.5t-105.5 -17.5q-44 1 -91.5 18.5t-86.5 52t-63.5 87.5t-21.5 127q3 72 31.5 123.5t72 83.5t97.5 46t107 11zM303 225q42 -2 82 15.5t71 51.5t47 84.5t10 115.5q-6 58 -31.5 98.5
t-60 65.5t-71 35.5t-63.5 9.5q-42 -2 -78.5 -21t-63.5 -50.5t-43.5 -73t-17.5 -88.5q-2 -47 14.5 -90t46.5 -76.5t70.5 -54t87.5 -22.5zM376 602q48 -1 68.5 -26t19.5 -67q0 -19 -9 -35.5t-23.5 -28t-33 -17.5t-39.5 -4q-20 3 -33 20t-14 37q0 19 14.5 35t37.5 14
q9 -1 14 -6.5t5 -12.5q1 -8 -4.5 -15t-17.5 -7q-11 0 -15 11q-6 -6 -8 -17q-1 -9 5.5 -18t21.5 -9q14 0 23 6t14.5 15.5t7.5 20t2 19.5q0 8 -3.5 17.5t-10 17.5t-16 13t-21.5 4q-18 -1 -37 -15t-34.5 -34.5t-26 -45t-11.5 -46.5q-2 -23 2 -40q2 -17 7.5 -26t12 -14t13.5 -7
t13 -5l-3 -17q-14 2 -31.5 3.5t-34.5 1.5t-31.5 -2.5t-21.5 -6.5l-4 15q9 6 15 10.5t10 13t6 23.5t3 41q1 27 1.5 53.5t-3 49t-13 39t-28.5 24.5l-2 18q6 -3 18 -5.5t26.5 -3.5t30.5 -0.5t30 4.5q-3 -14 -6.5 -37t-5.5 -49q8 16 20.5 32.5t28.5 29.5t34 21t37 8z" />
    <glyph glyph-name="copyright" unicode="&#xa9;" horiz-adv-x="628" 
d="M339 740q56 -2 102 -31t77.5 -73t46.5 -97t10 -103q-4 -50 -27.5 -95t-61 -79t-87 -53.5t-105.5 -17.5q-44 1 -91.5 18.5t-86.5 52t-63.5 87.5t-21.5 127q3 72 31.5 123.5t72 83.5t97.5 46t107 11zM303 225q42 -2 82 15.5t71 51.5t47 84.5t10 115.5q-6 58 -31.5 98.5
t-60 65.5t-71 35.5t-63.5 9.5q-42 -2 -78.5 -21t-63.5 -50.5t-43.5 -73t-17.5 -88.5q-2 -47 14.5 -90t46.5 -76.5t70.5 -54t87.5 -22.5zM355 486q2 14 2.5 33t-3 35.5t-12 28.5t-23.5 12q-30 2 -49.5 -29.5t-26.5 -88.5q-4 -29 -4.5 -56t5 -48.5t17.5 -35.5t33 -15
q21 -2 40 6.5t35 21t27.5 27.5t16.5 26l18 -7q-3 -5 -14 -23.5t-30 -38t-46 -32.5t-61 -6q-35 6 -56.5 26.5t-32.5 49.5t-12.5 63t4.5 68q7 34 20 59.5t29.5 43t35 26.5t35.5 9q33 0 50 -17t28 -35t23.5 -30t36.5 -2q-11 -8 -21.5 -18t-19.5 -20.5t-15.5 -20.5t-8.5 -17z
" />
    <glyph glyph-name="acute" unicode="&#xb4;" 
d="M378 769q11 -9 18 -18t11 -16q4 -8 7 -15q-21 -11 -45.5 -24.5t-47 -27.5t-42.5 -28t-32 -25l-27 38q49 39 80 62t48 35q20 14 30 19z" />
    <glyph glyph-name="dieresis" unicode="&#xa8;" 
d="M238 659q-20 -2 -31.5 8t-13.5 24q-3 14 8 27.5t31 15.5q21 3 32 -7t12 -24q2 -14 -7 -27t-31 -17zM402 664q-20 -6 -33 2.5t-15 20.5q-3 12 8 27t32 20q22 5 33.5 -3t13.5 -21q2 -14 -6.5 -27.5t-32.5 -18.5z" />
    <glyph glyph-name="AE" unicode="&#xc6;" horiz-adv-x="743" 
d="M705 -23q-30 2 -68.5 3t-80.5 1t-84.5 -2.5t-80.5 -6.5t-69.5 -11t-51.5 -17l-5 31q13 11 23 26t17.5 38.5t12.5 58t10 85.5q3 51 3 108q-21 -3 -45 -7t-48 -8.5t-47 -9t-41 -8.5q-14 -47 -24 -89t-15 -74q-4 -23 -1 -41q2 -16 11 -30t30 -17l-1 -23q-18 1 -48 0.5
t-63 -3.5t-64.5 -9t-52.5 -15l-9 28q36 23 77.5 91.5t80.5 169.5q19 50 39 112.5t36.5 122.5t27.5 109t12 72q2 45 -11 62t-48 21l4 23q25 -5 71.5 -11t102.5 -10.5t116.5 -7t115.5 0.5t98.5 12.5t65.5 28.5q-13 -51 -19 -112t2 -139h-28q0 30 -1 62t-14 57t-44 38t-91 6
q-39 -5 -60.5 -12t-32 -17t-13.5 -22.5t-4 -27.5q-1 -10 -2 -33.5t-2 -57t-1.5 -75t1.5 -87.5q48 7 76 18.5t44 28.5t24 40t16 52h26q-2 -14 -4.5 -37.5t-5 -51t-4.5 -57.5t-2.5 -57t0 -49t3.5 -34l-25 -6q-6 28 -20 46.5t-33.5 29t-43 14.5t-48.5 3q2 -29 5 -58t8 -58
q9 -63 22.5 -96t32 -47t41.5 -14.5t51 0.5q25 1 46 5t37.5 22.5t29 57.5t21.5 109l24 -8q-6 -33 -10 -56.5t-5.5 -48t0 -55t7.5 -77.5zM171 332q27 5 65.5 10.5t91.5 11.5q-2 47 -6.5 93.5t-10.5 89t-12 78.5t-12 62q-11 -28 -24.5 -66.5t-29 -84t-31.5 -95.5t-31 -99z" />
    <glyph glyph-name="Oslash" unicode="&#xd8;" 
d="M593 385q3 -94 -23 -176.5t-69.5 -143t-99 -95t-110.5 -33.5q-23 0 -47.5 7t-49.5 21q-10 -27 -18 -51t-14 -45q-16 0 -38.5 -0.5t-46.5 -8.5q17 38 33.5 73.5t31.5 69.5q-27 25 -50.5 59t-41 78t-27 99t-8.5 121q1 67 16.5 121.5t39.5 96t55.5 71.5t64.5 49.5t66 28.5
t61 9q65 0 123 -35q19 48 29.5 74.5t12.5 25.5q22 -8 50 -8.5t44 5.5q-16 -28 -36 -63.5t-43 -80.5q41 -45 66.5 -112t28.5 -157zM505 409q-3 38 -7 65.5t-11 47.5q0 -18 -3.5 -36.5t-12.5 -36.5t-24.5 -34t-39.5 -27q-36 -17 -68 -18.5t-57 9.5t-41.5 34.5t-20.5 57.5
q-5 34 5.5 60.5t28.5 45t41 28.5t45 12q7 0 19 -1.5t24 -8t21 -20.5t10 -38q1 -25 -10.5 -42.5t-28 -27.5t-34 -11.5t-29.5 4.5q-11 7 -13 17.5t2 20t12.5 15.5t18.5 4q15 -4 18.5 -16.5t0.5 -23.5q20 5 29.5 21t9 33t-11 30.5t-31.5 13.5q-38 0 -66 -24.5t-29 -70.5
q0 -15 3 -32t12.5 -31t26.5 -22.5t46 -6.5q28 2 49.5 14.5t36 31t22.5 41.5t8 47q1 43 -10 71.5t-28.5 46t-39 24.5t-41.5 8q-44 1 -85 -29.5t-74 -78.5t-54.5 -108.5t-24.5 -119.5q-1 -30 1 -66.5t9 -74.5t19.5 -74.5t31.5 -65.5t45 -48t61 -21q34 -3 66 15.5t59.5 50.5
t49.5 75t37 89.5t22 93.5t5 87z" />
    <glyph glyph-name="plusminus" unicode="&#xb1;" horiz-adv-x="519" 
d="M296 537q-12 -41 -14 -179q23 1 49.5 2.5t51.5 3.5t46.5 3.5t33.5 3.5q-2 -10 -4.5 -29.5t-2.5 -35.5q-32 2 -78 3.5t-96 0.5q0 -38 1 -64.5t2.5 -46t3.5 -32.5t3 -24q-8 0 -19.5 -1t-23 -3t-21.5 -4t-14 -3q8 26 10.5 71.5t2.5 105.5q-53 -2 -101.5 -7t-80.5 -16
q-3 7 -4 18t-0.5 23t1 22t-0.5 15q11 -2 32.5 -3.5t47.5 -2.5t54 -1h52q0 33 -0.5 64t-2.5 55t-5 39t-9 17q18 -2 37.5 -4.5t48.5 9.5zM51 68q47 0 105.5 -0.5t113 0.5t98.5 4t61 8q0 -6 -2 -14t-4 -17t-2.5 -19.5t2.5 -22.5q-10 2 -35 3.5t-58.5 2t-72 0t-76 -2.5t-70 -6
t-53.5 -10q-4 17 -2 36.5t-5 37.5z" />
    <glyph glyph-name="yen" unicode="&#xa5;" horiz-adv-x="474" 
d="M302 658q8 -2 27.5 -5.5t43 -6.5t48 -4t43.5 2v-16q-7 -2 -18.5 -7t-24.5 -14t-26.5 -23t-24.5 -33q-14 -25 -31.5 -51.5t-33.5 -52t-28.5 -48t-16.5 -40.5q0 -2 -0.5 -3t-0.5 -3l108.5 3.5t57.5 0.5q-4 -15 0.5 -25.5t0.5 -26.5q-38 5 -82 7t-89 3q-2 -21 -2.5 -47
t1.5 -52q52 2 98 4.5t81 6.5l1 -29q-33 1 -79 -0.5t-99 -6.5q2 -17 5 -31.5t8 -22.5q5 -7 13 -13q7 -5 18.5 -11t30.5 -10l-3 -17q-11 3 -38 1.5t-57.5 -6t-59.5 -10t-45 -10.5l-3 16q19 9 40.5 35t28.5 73q-44 -5 -85 -11t-78 -14l-22 46q35 2 84 4t103 4q0 22 -0.5 48.5
t-2.5 52.5q-47 -1 -86 -3t-65 -6q-8 6 -6.5 20.5t-1.5 23.5q37 -2 77 -1.5t80 2.5q-1 5 -1 10t-1 10q-15 28 -39.5 73t-55 89.5t-65.5 80.5t-70 46l3 18q37 -14 85 -13t103 9v-10q-17 0 -28.5 -12t-4.5 -28q3 -7 13.5 -30.5t25.5 -54t33 -64t36 -60.5q20 25 42.5 61t37 71
t15.5 62t-22 35l4 14v0z" />
    <glyph glyph-name="mu" unicode="&#xb5;" horiz-adv-x="494" 
d="M31 -95q4 23 8.5 60.5t8.5 82.5t8 93.5t6.5 94t4 84.5t1.5 64q0 38 -12 68t-52 44l4 15q14 -3 32 -8t38 -8t42.5 -3t46.5 6q-13 -26 -22.5 -49t-15.5 -51t-9 -64t-3 -89t8.5 -89t24 -57t36.5 -29.5t46 -6.5q25 3 43 23.5t30 54t18 76.5t8 91t0.5 82t-7.5 57t-18 37.5
t-32 22.5l1 16h43.5t50.5 1.5t46.5 4.5t33.5 8q-17 -34 -30.5 -84t-22.5 -105.5t-12 -111t2 -100t17.5 -72t35.5 -27.5q7 0 14 4q5 3 11 9t9 18h15q-1 -10 -6 -22.5t-15 -23t-24.5 -17.5t-35.5 -5q-64 6 -77 124q-9 -24 -20.5 -49t-27.5 -46t-38 -34.5t-51 -13.5
q-23 0 -42.5 12t-32.5 29q-2 -19 -4 -37q-2 -16 -3 -33t0 -28q3 -40 6.5 -63t11 -37.5t19 -24t29.5 -21.5l-2 -18q-59 26 -117.5 30.5t-118.5 -0.5l1 16q10 3 23.5 6.5t26.5 13t24 28t17 51.5z" />
    <glyph glyph-name="ordfeminine" unicode="&#xaa;" horiz-adv-x="327" 
d="M263 375q1 -27 11.5 -41.5t23.5 -19t25 1t17 18.5l17 -13q-8 -26 -28 -38.5t-42.5 -10t-40.5 21.5t-21 57q-14 -22 -37.5 -42.5t-58.5 -21.5q-22 -1 -41.5 8t-33.5 27t-22 44.5t-6 60.5q1 29 13.5 62t32.5 61t45 46t52 17q31 -2 47 -18.5t24 -39.5q2 11 4 24.5t1 24.5
l45 -15q-9 -22 -14.5 -52.5t-8.5 -61t-4 -58t0 -42.5zM220 441q1 16 -3 35.5t-11.5 37t-18 30t-22.5 13.5t-25 -6.5t-23.5 -21t-18.5 -32.5t-10 -40q-3 -22 -0.5 -43t9 -37.5t16.5 -27t24 -11.5q13 0 27 9.5t26 24.5t20.5 33.5t9.5 35.5z" />
    <glyph glyph-name="ordmasculine" unicode="&#xba;" horiz-adv-x="317" 
d="M274 418q-4 -25 -14.5 -48.5t-28 -40.5t-41 -25.5t-53.5 -3.5q-27 4 -50 18t-38.5 37t-21 54t4.5 70q7 27 23.5 51.5t39 41t49 22t53.5 -4.5q23 -9 39.5 -29t26 -44.5t12.5 -50.5t-1 -47zM119 353q15 -5 31 -0.5t30 16t24 28t14 36.5q3 16 2.5 34t-5.5 34t-16 28t-28 15
q-21 3 -37 -4t-27.5 -19.5t-19 -28t-10.5 -29.5q-3 -15 -1.5 -32.5t7.5 -33t15.5 -28t20.5 -16.5z" />
    <glyph glyph-name="ae" unicode="&#xe6;" horiz-adv-x="761" 
d="M792 128q-12 -5 -33.5 -30t-51.5 -53t-68.5 -49.5t-85.5 -19.5q-69 4 -117 34.5t-71 80.5q-10 -20 -26.5 -39t-40.5 -35t-55 -25.5t-71 -9.5q-41 0 -71 12t-50 32t-30 47.5t-11 58.5q-1 28 15.5 63.5t48.5 64t79.5 44t109.5 3.5q24 -4 41 -8.5t29 -9.5q1 28 1.5 65t-9 70
t-34.5 56t-74 25q-54 2 -85 -9t-46.5 -27.5t-18.5 -34.5t0 -28q3 -12 9.5 -22t18.5 -15.5t29 -5.5t40 8q18 6 27.5 14t14 15.5t4.5 14.5t-3 13q-6 11 -19.5 13.5t-29.5 -0.5q6 -9 1.5 -20.5t-20.5 -16.5q-8 -2 -17 0.5t-13 10.5q-6 10 2 22.5t30 22.5q12 5 27 7t28.5 -1.5
t24.5 -13.5t16 -29q2 -10 -0.5 -24t-13 -27t-32.5 -22.5t-59 -10.5q-18 0 -35.5 4.5t-31.5 14t-23 24t-10 32.5q-1 21 7.5 43t29 40t54.5 29t85 9q27 -2 55.5 -7t54.5 -16.5t46.5 -30.5t32.5 -48q11 25 29.5 49.5t43 43t55 27t66.5 2.5q42 -7 65.5 -35t36 -64.5t16.5 -77
t6 -71.5q-1 -24 0 -45q0 -18 1.5 -36.5t4.5 -26.5q-27 0 -66.5 3.5t-82.5 9t-83.5 11.5t-70.5 11q4 -37 16 -73.5t30 -66t43 -48.5t55 -20q23 -2 41.5 10t30.5 29.5t16.5 35t-1.5 28.5q26 -5 52 -5.5t46 0.5q24 1 45 4zM217 32q28 1 47.5 14t32 32.5t20 43t11 47t4 44.5
t0.5 34q-20 12 -44 17.5t-47 6.5q-41 1 -66 -10.5t-39 -30.5t-18.5 -41t-3.5 -42t6 -41t16.5 -38t31 -27.5t49.5 -8.5zM421 339q-6 -32 -5 -66q30 -7 75.5 -14t114.5 -9q12 27 19.5 70t5 84t-16 72t-43.5 36q-24 3 -47.5 -10t-43.5 -37t-36 -57t-23 -69z" />
    <glyph glyph-name="oslash" unicode="&#xf8;" horiz-adv-x="487" 
d="M311 485q-23 22 -46.5 29t-42.5 5q-29 -2 -49 -19.5t-33.5 -45t-20 -62.5t-7.5 -73q-2 -46 6.5 -93.5t29.5 -85.5q24 49 42.5 88t30.5 65q14 31 25 54q18 38 34.5 73t30.5 65zM182 98q19 -17 42 -23.5t49 -4.5q21 2 45 18t42 47.5t26.5 78t-1.5 109.5q-5 37 -14.5 65
t-22.5 49q-16 -29 -33 -60.5t-34 -65.5q-29 -55 -53.5 -109t-45.5 -104zM120 -65q-15 0 -35.5 0.5t-42.5 -7.5q19 37 36 71t33 64q-38 36 -60.5 90.5t-24.5 126.5q-2 70 17.5 121.5t49.5 85.5t67 51t71 19q52 2 101 -26q18 43 28.5 67.5t12.5 23.5q20 -7 46.5 -7t40.5 5
q-32 -48 -79 -126q36 -36 58.5 -90t22.5 -123q0 -66 -16.5 -116.5t-44 -85.5t-63 -53.5t-74.5 -21.5q-59 -3 -109 27q-11 -28 -19.5 -52t-15.5 -44z" />
    <glyph glyph-name="questiondown" unicode="&#xbf;" horiz-adv-x="485" 
d="M242.015 -13.9561q-50.9971 0 -92.4941 13.999t-70.4961 37.4971q-28.998 23.499 -44.4971 53.9971t-14.499 62.4961q2 53.9971 23.999 93.4941q21.998 39.498 54.4961 66.9961t69.9961 43.9971q37.4971 16.499 70.4951 23.499q1 17.999 0.5 41.4971
q-0.5 23.499 -2.49902 48.9971q-2 25.499 -6 50.4971q-4 24.999 -11.999 45.9971q7.99902 -2 23.498 -1.5t31.998 2.5t31.998 6t24.499 9.99902q-5 -27.998 -9.5 -65.9961q-4.5 -37.9971 -6.99902 -73.9951q-2.5 -35.998 -3.5 -63.9961t1 -34.998q-19.999 2 -54.4971 -5.5
q-34.498 -7.49902 -66.9961 -29.998q-32.498 -22.498 -55.4961 -60.9961q-22.999 -38.4971 -19.999 -98.4941q2 -41.9971 18.999 -67.4951q16.999 -25.499 41.9971 -38.998q24.999 -13.499 54.4971 -16.999t55.4961 -0.5q29.999 3 56.4971 14.999t44.4971 30.498
t26.498 44.4971q8.5 25.999 3.5 57.9971q-3 19.999 -16.499 37.4971q-13.499 17.499 -33.498 28.999q-19.998 11.499 -44.4971 15.499q-24.498 3.99902 -48.4971 -3q-17.999 -6 -30.998 -16.999t-19.999 -25.498q-6.99902 -14.5 -7.99902 -29.499t4 -28.998
q8.99902 -26.998 27.498 -37.4971q18.499 -10.5 37.498 -9.5q26.998 2 41.4971 13.499q14.499 11.5 16.499 26.499q2 20.998 -11.499 29.498q-13.5 8.49902 -27.499 8.49902t-23.998 -9.99902q7.99902 -2 13.999 -9.5q6 -7.49902 1 -18.498q-3 -7 -10.999 -10
q-8 -3 -16.499 -0.5q-8.5 2.5 -13.999 10.5q-5.5 7.99902 -3.5 22.998q3.99902 18.999 21.998 27.998q17.999 9 35.998 10q8 0 18.499 -3t20.499 -9.49902q9.99902 -6.5 16.499 -16.499q6.49902 -10 6.49902 -23.999q1 -25.998 -21.498 -46.9971
q-22.499 -20.999 -60.4971 -20.999q-17.998 0 -35.4971 5.5t-31.498 15.499q-14 9.99902 -22.999 24.499q-8.99902 14.499 -9.99902 32.498q-2 25.998 6.49902 48.4961q8.5 22.499 26.999 38.998q18.498 16.499 46.4971 25.998q27.998 9.5 63.9961 8.5
q37.9971 -1 65.9961 -11.999q27.998 -11 46.4971 -27.499q18.498 -16.499 27.498 -36.4971q8.99902 -19.999 8.99902 -40.998q0 -38.9971 -17.999 -72.4951q-17.998 -33.498 -49.9961 -57.9971q-31.998 -24.498 -75.4961 -38.9971q-43.4971 -14.499 -94.4941 -14.499z
M271.013 615.005q-24.998 -2.99902 -40.9971 7.5t-16.999 33.498q-1 22.998 14.999 39.9971t44.9971 17.999q19.999 1 38.498 -8.49902q18.499 -9.5 20.499 -32.498q1.99902 -21.999 -17.499 -38.498q-19.499 -16.499 -43.498 -19.499z" />
    <glyph glyph-name="exclamdown" unicode="&#xa1;" horiz-adv-x="195" 
d="M164.002 -1.95703q-20.999 1.99902 -40.498 -0.5q-19.498 -2.5 -35.9971 -6.5t-29.998 -8q-13.5 -3.99902 -21.499 -3.99902q9.99902 11.999 19.499 51.9971q9.49902 39.9971 16.499 95.9941q6.99902 55.9961 9.99902 121.492t0 129.492q-2 62.9961 -3 102.493
q-1 39.498 -3 61.4971q-1.99902 21.998 -5.49902 30.998q-3.5 8.99902 -11.5 10.999q19.999 -3 45.998 -1q25.998 2 36.9971 4q-8.99902 -14.999 -12.499 -32.998t-3.5 -42.498q0 -24.498 2.5 -57.9961t5.5 -79.4951q2 -29.998 3.5 -68.4961q1.5 -38.4971 2.99902 -78.9951
q1.5 -40.4971 3.5 -79.9951q2 -39.4971 4.5 -70.9951t6.49902 -52.4971q4 -20.999 9 -24.998zM107.006 629.004q-19.999 -7.99902 -38.998 -5q-18.999 3 -27.998 22.999q-6 14.999 2 33.498q7.99902 18.499 31.998 28.498q22.998 9.99902 43.4971 5
q20.499 -5 25.498 -22.999q5 -16.999 -4.99902 -35.498q-10 -18.498 -30.998 -26.498z" />
    <glyph glyph-name="logicalnot" unicode="&#xac;" horiz-adv-x="589" 
d="M531 394q-1 -30 -1.5 -54t0 -43.5t2 -36t6.5 -32.5q-12 2 -24 1.5t-22 -2.5l-22 -4q3 26 4 53t-3 53q-61 1 -126 1.5t-122.5 0t-103.5 -2t-70 -4.5q-1 13 -2 24.5t-3 19.5q-2 10 -3 17q34 -2 78.5 -2.5t85.5 -0.5q48 0 96 1t92 3q38 2 76.5 3.5t61.5 4.5z" />
    <glyph glyph-name="guillemotleft" unicode="&#xab;" horiz-adv-x="370" 
d="M135 213q16 18 42 48.5t53 62.5t50.5 60.5t35.5 44.5q-3 -21 -4 -38.5t-1 -33.5q-6 -7 -23.5 -26t-39 -41t-42.5 -43.5t-32 -34.5q10 -13 28.5 -34t39.5 -42.5t41.5 -39t34.5 -23.5q-2 -21 -3 -36t-1 -25v-19q-3 3 -15 16.5t-29 34t-36.5 45t-38.5 48t-35 44t-25 32.5z
M189 -7q-3 3 -15 16.5t-29 34t-37 45t-39 48t-34.5 44t-24.5 32.5q16 18 42 48.5t53 62.5t50.5 60.5t35.5 44.5q-3 -21 -4.5 -38.5t-0.5 -33.5q-6 -7 -23.5 -26t-39.5 -41t-42.5 -43.5t-32.5 -34.5q10 -13 29 -34t40 -42.5t41.5 -39t34.5 -23.5q-2 -21 -3 -36t-1 -25v-19z
" />
    <glyph glyph-name="guillemotright" unicode="&#xbb;" horiz-adv-x="359" 
d="M213 209q-16 -18 -42 -48.5t-53 -62.5t-50.5 -60.5t-35.5 -44.5q4 20 5 38t0 34q6 7 24 26t39.5 41t42.5 43.5t32 34.5q-10 13 -28.5 34t-39.5 42.5t-41.5 39t-34.5 23.5q2 20 3 35.5t1 25.5v19q3 -3 14.5 -16.5t28.5 -34t37 -45t39 -48t34.5 -44t24.5 -32.5zM160 429
q3 -3 15 -16.5t29 -34t36.5 -45t38.5 -48t35 -44t25 -32.5q-16 -18 -42 -48.5t-53 -62.5t-51 -60.5t-35 -44.5q6 38 4 72q6 7 24 26t39.5 41t42.5 43.5t32 34.5q-10 13 -28.5 34t-39.5 42.5t-41.5 39t-34.5 23.5q2 20 3 35.5t1 25.5v19z" />
    <glyph glyph-name="ellipsis" unicode="&#x2026;" horiz-adv-x="520" 
d="M75 86q23 2 39 -12t17 -35q0 -22 -16 -37t-39 -16q-23 -2 -39.5 12t-16.5 35q0 20 16 36t39 17zM249 86q23 2 39 -12t17 -35q0 -22 -16 -37t-39 -16q-23 -2 -39.5 12t-16.5 35q0 20 16 36t39 17zM423 86q23 2 39 -12t17 -35q0 -22 -16 -37t-39 -16q-23 -2 -39.5 12
t-16.5 35q0 20 16 36t39 17z" />
    <glyph glyph-name="uni00A0" unicode="&#xa0;" horiz-adv-x="307" 
 />
    <glyph glyph-name="Agrave" unicode="&#xc0;" horiz-adv-x="574" 
d="M113 231q-44 -4 -85.5 1.5t-74 22t-53 45t-23.5 70.5q-3 39 12.5 66t39.5 41t53.5 16.5t55 -7t43.5 -31t20 -53.5q3 -46 -19 -66t-53 -21t-53.5 13t-24.5 46q-1 16 3.5 27.5t11 19t15.5 11t17 3.5q17 1 27.5 -7.5t12.5 -25.5q1 -16 -9 -22.5t-23 -1.5q-9 3 -10.5 14
t3.5 20q-9 -2 -15 -9t-6 -21q0 -18 10 -30.5t38 -10.5q14 0 22.5 7t13.5 16t6.5 18.5t1.5 15.5t-2.5 18t-11 23.5t-24 20.5t-41.5 11q-27 1 -44 -8.5t-27 -24.5t-14 -32t-3 -30q1 -26 15.5 -47t43 -34.5t71 -18.5t98.5 2q15 38 29 79t26 81t21 78t13 70q9 76 -15 119.5
t-71 45.5l4 26q18 -3 51.5 -7t73.5 -6.5t80 -2t72 7.5l1 -16q-13 -4 -24 -8t-18 -10.5t-10 -17t1 -26.5q4 -17 13 -65t22 -113t30 -140t37 -144t40.5 -122t41.5 -86.5t43 -46t46 -1.5q12 7 21 19q8 11 14 28t7 43l15 3q4 -16 2 -40.5t-11 -48.5t-27 -42.5t-46 -21.5
q-23 -3 -51.5 2t-57 29t-55 74t-45.5 137q-5 25 -10 49.5t-10 47.5q-29 -2 -79 -5t-104 -7q-15 -63 -23 -112q-5 -30 -4.5 -49t5.5 -30.5t16.5 -18.5t29.5 -13l-1 -21q-17 4 -52 5t-74.5 -1.5t-78 -9t-60.5 -18.5l-8 34q21 9 35.5 12.5t25.5 10t21 20t21 40.5q9 20 24.5 57
t35.5 85h-1zM309 651q-8 -32 -20 -74t-25 -89.5t-26.5 -98.5t-25.5 -100q47 7 88.5 11t72.5 6q-23 108 -40 194t-24 151zM175 984q10 -5 30 -19q17 -12 48 -35t80 -62l-27 -38q-12 11 -32 25t-43 28t-47 27.5t-45 24.5q3 7 7 15q4 7 11 16t18 18z" />
    <glyph glyph-name="Atilde" unicode="&#xc3;" horiz-adv-x="574" 
d="M113 231q-44 -4 -85.5 1.5t-74 22t-53 45t-23.5 70.5q-3 39 12.5 66t39.5 41t53.5 16.5t55 -7t43.5 -31t20 -53.5q3 -46 -19 -66t-53 -21t-53.5 13t-24.5 46q-1 16 3.5 27.5t11 19t15.5 11t17 3.5q17 1 27.5 -7.5t12.5 -25.5q1 -16 -9 -22.5t-23 -1.5q-9 3 -10.5 14
t3.5 20q-9 -2 -15 -9t-6 -21q0 -18 10 -30.5t38 -10.5q14 0 22.5 7t13.5 16t6.5 18.5t1.5 15.5t-2.5 18t-11 23.5t-24 20.5t-41.5 11q-27 1 -44 -8.5t-27 -24.5t-14 -32t-3 -30q1 -26 15.5 -47t43 -34.5t71 -18.5t98.5 2q15 38 29 79t26 81t21 78t13 70q9 76 -15 119.5
t-71 45.5l4 26q18 -3 51.5 -7t73.5 -6.5t80 -2t72 7.5l1 -16q-13 -4 -24 -8t-18 -10.5t-10 -17t1 -26.5q4 -17 13 -65t22 -113t30 -140t37 -144t40.5 -122t41.5 -86.5t43 -46t46 -1.5q12 7 21 19q8 11 14 28t7 43l15 3q4 -16 2 -40.5t-11 -48.5t-27 -42.5t-46 -21.5
q-23 -3 -51.5 2t-57 29t-55 74t-45.5 137q-5 25 -10 49.5t-10 47.5q-29 -2 -79 -5t-104 -7q-15 -63 -23 -112q-5 -30 -4.5 -49t5.5 -30.5t16.5 -18.5t29.5 -13l-1 -21q-17 4 -52 5t-74.5 -1.5t-78 -9t-60.5 -18.5l-8 34q21 9 35.5 12.5t25.5 10t21 20t21 40.5q9 20 24.5 57
t35.5 85h-1zM309 651q-8 -32 -20 -74t-25 -89.5t-26.5 -98.5t-25.5 -100q47 7 88.5 11t72.5 6q-23 108 -40 194t-24 151zM293 892q25 -12 44 -15t33.5 0.5t25 11t18.5 15.5l31 -38q-29 -24 -65.5 -27.5t-71.5 17.5q-16 9 -34 10t-35 -3.5t-30.5 -14t-20.5 -22.5l-37 35
q7 8 21 18.5t32.5 17.5t41 7t47.5 -12z" />
    <glyph glyph-name="Otilde" unicode="&#xd5;" 
d="M290 -63q-42 0 -91 25t-90.5 76.5t-68.5 131.5t-25 190q2 101 33.5 172.5t77.5 116.5t97.5 66t93.5 21q53 0 101.5 -23t86.5 -67.5t61.5 -110t26.5 -150.5q3 -94 -23 -176.5t-69.5 -143t-99.5 -95t-111 -33.5zM99 348q-1 -30 1 -66.5t9 -74.5t19.5 -74.5t31.5 -65.5
t45 -48t61 -21q34 -2 66 16t59.5 50t49.5 75t37 89.5t22 93t5 87.5q-3 38 -7 65.5t-11 47.5q0 -18 -3.5 -36.5t-12.5 -36.5t-24.5 -34t-39.5 -27q-36 -17 -68 -18.5t-57 9.5t-41.5 34.5t-20.5 57.5q-5 34 5.5 60.5t28.5 45t41 28.5t45 12q7 0 19 -1.5t24 -8t21 -20.5t10 -38
q1 -25 -10.5 -42.5t-28 -27.5t-34 -11.5t-29.5 4.5q-11 7 -13 17.5t2 20t12.5 15.5t18.5 4q15 -4 18.5 -16.5t0.5 -23.5q20 5 29.5 21t9 33t-11 30.5t-31.5 13.5q-38 0 -66 -24.5t-29 -70.5q0 -15 3 -32t12.5 -31t26.5 -22.5t46 -6.5q28 2 49.5 14.5t36 31t22.5 41.5t8 47
q1 43 -10 71.5t-28.5 46t-39 24.5t-41.5 8q-44 1 -85 -29.5t-74 -78.5t-54.5 -108.5t-24.5 -119.5zM332 862q25 -12 44 -15t33.5 0.5t25 11t18.5 15.5l31 -38q-29 -24 -65.5 -27.5t-71.5 17.5q-16 9 -34 10t-35 -3.5t-30.5 -14t-20.5 -22.5l-37 35q7 8 21 18.5t32.5 17.5
t41 7t47.5 -12z" />
    <glyph glyph-name="OE" unicode="&#x152;" horiz-adv-x="896" 
d="M293 -29q-49 2 -95 26t-82 69.5t-58 111t-22 150.5q-1 102 27 176t68.5 123t85.5 74t78 29q49 6 95 -14t69 -74q0 26 -1.5 51t-6.5 37q20 -1 54 -2.5t75.5 -1.5t85.5 1.5t83.5 6t70 11.5t45.5 19q-10 -24 -17 -58t-10.5 -70t-4.5 -70.5t0 -58.5l-27 -2q-2 30 -6 61.5
t-17.5 56.5t-40.5 39.5t-73 10.5q-72 -7 -106 -20q-14 -60 -23.5 -130.5t-10.5 -155.5q30 -1 53.5 2.5t42.5 17.5t34 40t28 70l25 3q-8 -52 -9.5 -122t11.5 -145l-24 -9q-24 58 -62.5 78t-98.5 3q2 -75 7.5 -142t12.5 -105q23 -1 49.5 -0.5t53.5 2.5q42 4 75 13t52 32
q23 26 28 58t8 74l27 -4q-2 -23 -3 -55.5t-1 -66t1.5 -65.5t4.5 -53q-20 5 -52 7.5t-68.5 3.5t-76 0t-75 -3.5t-64 -6t-43.5 -8.5q11 16 14 41t0 57q-9 -19 -24.5 -39.5t-38 -37t-53.5 -27t-70 -9.5zM261 678q-26 -8 -51 -29t-44 -59.5t-29 -97t-5 -141.5t28.5 -146
t56.5 -103.5t72 -57.5t76 -6q32 9 53 46.5t32 88.5t14 107t-1 103q-9 94 -30.5 153t-36.5 82q-10 15 -24 29t-31.5 23t-38 12t-41.5 -4z" />
    <glyph glyph-name="oe" unicode="&#x153;" horiz-adv-x="827" 
d="M637 569q48 0 79.5 -21.5t49 -53.5t22.5 -69t0 -68l-6.5 -39t-4 -25.5t-1.5 -19.5t2 -20q-24 3 -56.5 3.5t-71 -1t-80.5 -5t-85 -8.5q3 -37 13 -64t19 -47q16 -33 37.5 -53t43.5 -28t41 -6t30 13q7 8 10 20.5t2.5 25t-4 25t-9.5 20.5q25 -5 55 -7t65 2q-7 -22 -21 -48.5
t-35.5 -49.5t-51.5 -38.5t-69 -15.5q-30 0 -59.5 11.5t-55 31.5t-45.5 47t-30 59q-11 -20 -29.5 -45.5t-45.5 -47t-61.5 -35.5t-77.5 -12q-52 3 -90 29t-62 64.5t-33.5 84t-4.5 86.5q6 48 26.5 98t56 90.5t86 64.5t116.5 20q59 -5 94 -34t47 -60q11 24 29.5 47t43.5 40.5
t55.5 28t65.5 10.5zM203 56q44 -3 77 13.5t56.5 46t38.5 66.5t24 75.5t12 73t3 58.5q-1 51 -24.5 84.5t-64.5 35.5q-42 2 -81 -22.5t-69 -65.5t-49 -93.5t-21 -106.5q-3 -82 25.5 -122t72.5 -43zM676 304q12 40 13.5 83t-6 78.5t-23 58t-37.5 20.5q-17 -1 -40 -17t-44 -47.5
t-37 -80t-18 -114.5q32 8 81.5 12.5t110.5 6.5z" />
    <glyph glyph-name="endash" unicode="&#x2013;" horiz-adv-x="475" 
d="M41 385q47 0 105.5 -0.5t113 0.5t98.5 4t61 8q0 -6 -2.5 -14t-4.5 -17t-2.5 -19.5t3.5 -21.5q-10 2 -35 3.5t-58.5 2t-72 -0.5t-76 -3t-70 -6t-53.5 -10q-4 18 -2 37t-5 37z" />
    <glyph glyph-name="emdash" unicode="&#x2014;" horiz-adv-x="757" 
d="M41 394q54 0 118.5 -0.5t131 0t131 1t119.5 2t96.5 4t62.5 6.5q0 -6 -4 -14t-7.5 -17t-4.5 -19t5 -22q-17 2 -60.5 3.5t-101.5 2t-125.5 -0.5t-132.5 -3t-122 -6t-94 -10q-3 9 -3 18.5v19t-1.5 18.5t-7.5 17z" />
    <glyph glyph-name="quotedblleft" unicode="&#x201c;" horiz-adv-x="293" 
d="M81 547q-22 -2 -37.5 11.5t-20.5 35.5q-4 19 -1.5 39.5t13 38t29.5 30.5t48 16l7 -25q-15 -4 -32 -14t-22 -34l15 3q23 1 39.5 -13t16.5 -35t-16 -36.5t-39 -16.5zM213 547q-23 -2 -38 11.5t-20 35.5q-5 19 -2 39.5t13.5 38t29.5 30.5t47 16l8 -25q-15 -4 -32.5 -14
t-22.5 -34q4 1 7.5 1.5t8.5 1.5q23 1 39 -13t16 -35t-15.5 -36.5t-38.5 -16.5z" />
    <glyph glyph-name="quotedblright" unicode="&#x201d;" horiz-adv-x="293" 
d="M212 718q23 1 38 -12.5t20 -34.5q4 -19 1.5 -39.5t-13 -38t-30 -30.5t-47.5 -16l-7 24q15 3 32 13.5t22 35.5q-7 -4 -15 -4q-23 -2 -39 12.5t-17 35.5q0 21 16 36.5t39 17.5zM81 718q22 1 37 -12.5t20 -34.5q4 -19 1.5 -39.5t-13 -38t-29.5 -30.5t-47 -16l-7 24
q13 3 31 13.5t23 35.5q-7 -4 -16 -4q-23 -2 -39 12.5t-16 35.5t16 36.5t39 17.5z" />
    <glyph glyph-name="quoteleft" unicode="&#x2018;" horiz-adv-x="162" 
d="M81 547q-22 -2 -37.5 11.5t-20.5 35.5q-4 19 -1.5 39.5t13 38t29.5 30.5t48 16l7 -25q-15 -4 -32 -14t-22 -34l15 3q23 1 39.5 -13t16.5 -35t-16 -36.5t-39 -16.5z" />
    <glyph glyph-name="quoteright" unicode="&#x2019;" horiz-adv-x="162" 
d="M81 718q22 1 37 -12.5t20 -34.5q4 -19 1.5 -39.5t-13 -38t-29.5 -30.5t-47 -16l-7 24q13 3 31 13.5t23 35.5q-7 -4 -16 -4q-23 -2 -39 12.5t-16 35.5t16 36.5t39 17.5z" />
    <glyph glyph-name="divide" unicode="&#xf7;" horiz-adv-x="475" 
d="M229 435q-38 -3 -44 25q-5 20 6 32.5t33 16.5q24 4 36 -6t14 -26t-10 -28t-35 -14zM218 292q14 4 32.5 0t24.5 -22q7 -17 -2.5 -31.5t-32.5 -21.5t-38.5 -2t-20.5 23q-6 17 6 32t31 22zM41 385q47 0 105.5 -0.5t113 0.5t98.5 4t61 8q0 -6 -2.5 -14t-4.5 -17t-2.5 -19.5
t3.5 -21.5q-10 2 -35 3.5t-58.5 2t-72 -0.5t-76 -3t-70 -6t-53.5 -10q-4 18 -2 37t-5 37z" />
    <glyph glyph-name="ydieresis" unicode="&#xff;" horiz-adv-x="474" 
d="M428 -189q-2 -44 -16.5 -78t-38.5 -56.5t-55.5 -34.5t-67.5 -13t-64.5 12t-48.5 34t-30.5 49t-9.5 57t12.5 51t30.5 36.5t42 21.5t46 7q40 -1 55 -25t15 -55q0 -17 -5.5 -34t-16 -30.5t-25 -22t-32.5 -8.5q-8 0 -17 2t-16.5 8.5t-12.5 18t-5 30.5q0 28 13 44t33 17
q14 0 22.5 -8t10 -18t-4 -18t-19.5 -8q-14 1 -14 11.5t5 18.5q-8 -4 -14.5 -13t-6.5 -23q0 -18 9 -28t23 -10q10 0 18.5 6.5t14.5 16t9.5 21t3.5 22.5q0 32 -20.5 48t-48.5 14q-11 -1 -25 -8t-26 -19.5t-20 -29.5t-7 -37t8 -39t22 -33.5t37.5 -21.5t53.5 -4q62 6 94.5 73
t30.5 178q-1 37 -2 64.5t-2 48.5t-1.5 38t-0.5 34q-8 -27 -20.5 -56t-33 -53t-50 -39t-70.5 -14q-31 1 -54 12.5t-39.5 31.5t-27 47t-14.5 59q-5 40 -0.5 80.5t10.5 79.5q6 51 8.5 87t-2 60.5t-18 41t-38.5 30.5l11 20q11 -3 22.5 -6.5t29 -5t44.5 -0.5t69 6
q-8 -15 -16 -39.5t-15 -54t-12.5 -62.5t-8.5 -64t-2.5 -69t7.5 -71.5t22.5 -57t42.5 -25.5t48.5 11t37 31t24 36t10.5 26t5 31.5t5 55.5t3 68t-1 68q-2 29 -7.5 48t-13.5 31t-17.5 19t-19.5 11l6 20q16 -7 37.5 -11t45 -5.5t45 -1t37.5 3.5q-26 -54 -39 -140.5t-8 -209.5
q2 -56 6 -99t8 -81t6 -75.5t1 -81.5zM167 568q-20 -2 -31.5 8t-13.5 24q-3 14 8 27.5t31 15.5q21 3 32 -7t12 -24q2 -14 -7 -27t-31 -17zM331 573q-20 -6 -33 2.5t-15 20.5q-3 12 8 27t32 20q22 5 33.5 -3t13.5 -21q2 -14 -6.5 -27.5t-32.5 -18.5z" />
    <glyph glyph-name="Ydieresis" unicode="&#x178;" horiz-adv-x="599" 
d="M49 471q3 62 -1.5 97.5t-14 55t-22 28t-26.5 17.5l3 24q18 -3 43 -6t56.5 -2.5t68.5 5.5t80 18l-2 -23q-17 -5 -33 -16.5t-30 -33.5t-25.5 -57.5t-18.5 -89.5q-7 -53 -10 -105t7.5 -93t37.5 -65t80 -20q53 3 90.5 39t60 87.5t31.5 110.5t5 108q-3 46 -8.5 80t-15 58
t-24 39t-35.5 23l10 21q21 -7 50.5 -13t60 -7.5t58.5 3t46 18.5l2 -22q-16 -11 -32 -30.5t-28 -51t-19.5 -77t-5.5 -107.5q1 -44 7 -84.5t12.5 -84.5t11 -95.5t4.5 -116.5t-9 -129t-33 -116t-67.5 -84t-112.5 -32q-49 0 -82 14.5t-55 38t-33.5 52t-17.5 55.5q-5 23 -8.5 46
t-9.5 45.5t-15 43.5t-25 39q46 -10 86 -13t69 8q-24 -38 -30 -84t3 -90q5 -22 16.5 -46t29.5 -42.5t43.5 -26.5t57.5 1q30 9 55 37t42 70.5t25 97.5t3 118q-7 70 -13 119t-9 84q-11 -25 -28.5 -54t-42.5 -53.5t-58 -41t-75 -16.5q-9 0 -23.5 1t-31.5 5t-36 12.5t-38 23.5
q-16 13 -25.5 29t-15 33.5t-8 35.5t-3.5 35q-2 32 -1.5 70t2.5 82zM198 802q-20 -2 -31.5 8t-13.5 24q-3 14 8 27.5t31 15.5q21 3 32 -7t12 -24q2 -14 -7 -27t-31 -17zM362 807q-20 -6 -33 2.5t-15 20.5q-3 12 8 27t32 20q22 5 33.5 -3t13.5 -21q2 -14 -6.5 -27.5
t-32.5 -18.5z" />
    <glyph glyph-name="fraction" unicode="&#x2044;" horiz-adv-x="463" 
d="M48 -15h-39.5t-49.5 -8q67 109 118 195t86 147q40 71 71 125q39 66 70 122.5t53.5 97.5t35 64t14.5 23q22 -8 51 -8t46 6q-40 -53 -103 -143t-131 -202q-37 -60 -70.5 -119.5t-62 -114t-51 -102t-38.5 -83.5z" />
    <glyph glyph-name="Euro" unicode="&#x20ac;" horiz-adv-x="583" 
d="M374 108q30 1 60 9q26 7 55.5 21.5t55.5 42.5l17 -20q-7 -10 -25.5 -29t-48 -37.5t-69 -31t-89.5 -9.5q-46 3 -81 20.5t-60 45.5t-41 65.5t-23 81.5q-76 -3 -123 -22q-5 9 -6.5 19t-0.5 18q1 10 4 19q26 -2 54.5 -3t67.5 -1q-3 24 -3 50v22.5t2 22.5q-21 -2 -41 -3
q-18 -1 -38.5 -2t-38.5 1l-3 52q24 -2 56.5 -3t70.5 -1q10 48 31 91t52.5 76.5t73 55t93.5 27.5q28 1 58 -4q26 -5 56.5 -17t59.5 -37l-14 -29q-77 48 -151 40q-28 -3 -57 -17.5t-54 -40t-44 -62t-28 -82.5q39 1 79 2.5t77 4.5t69.5 6.5t57.5 8.5l-18 -65q-20 3 -52.5 5
t-70 2.5t-76.5 0t-72 -2.5q0 -3 -0.5 -6t-0.5 -5q-3 -47 0 -89q46 2 106.5 5.5t143.5 9.5l-16 -49q-69 1 -126 2t-104 1q11 -73 52 -116.5t123 -43.5z" />
    <glyph glyph-name="guilsinglleft" unicode="&#x2039;" horiz-adv-x="244" 
d="M10 213q16 18 42 48.5t53 62.5t50.5 60.5t35.5 44.5q-3 -21 -4.5 -38.5t-0.5 -33.5q-6 -7 -23.5 -26t-39.5 -41t-42.5 -43.5t-32.5 -34.5q10 -13 29 -34t40 -42.5t41.5 -39t34.5 -23.5q-2 -21 -3 -36t-1 -25v-19q-3 3 -15 16.5t-29 34t-37 45t-39 48t-34.5 44t-24.5 32.5
z" />
    <glyph glyph-name="guilsinglright" unicode="&#x203a;" horiz-adv-x="233" 
d="M213 209q-16 -18 -42 -48.5t-53 -62.5t-50.5 -60.5t-35.5 -44.5q4 20 5 38t0 34q6 7 24 26t39.5 41t42.5 43.5t32 34.5q-10 13 -28.5 34t-39.5 42.5t-41.5 39t-34.5 23.5q2 20 3 35.5t1 25.5v19q3 -3 14.5 -16.5t28.5 -34t37 -45t39 -48t34.5 -44t24.5 -32.5z" />
    <glyph glyph-name="fi" unicode="&#xfb01;" horiz-adv-x="556" 
d="M495 43q5 -3 15 -7q8 -3 21.5 -6.5t33.5 -6.5l1 -15h-71q-17 0 -32 -1q-21 -2 -45 -4l-45 -4.5t-48 -5.5l-7 10q23 8 38 19t23 22q10 12 13 26q11 43 16 71.5t5.5 50t-3 42t-10.5 49.5q-6 29 -23.5 44t-33.5 22q-42 8 -89.5 11.5t-92.5 0.5q0 -52 5 -110.5t18 -126.5
q8 -42 16 -67t17.5 -40t22 -24t28.5 -19l-11 -17q-30 14 -64 22.5t-68.5 12t-67.5 2.5t-61 -6l-1 29q15 1 28.5 2t26 10.5t23 32t18.5 66.5q11 58 15 114.5t2 114.5q-17 -2 -32.5 -4.5t-29.5 -6.5q3 6 4 16.5t1 22t-0.5 21.5t-1.5 14q6 0 21 -2.5t35 -5.5q-1 18 -2 36.5
t-2 36.5q-2 31 -2 69t4.5 75.5t16.5 71.5t33.5 59t55.5 36.5t83 4.5q45 -7 76.5 -23t51 -37.5t28.5 -46t9 -48.5q0 -51 -16.5 -82t-39.5 -47.5t-47.5 -22t-39.5 -4.5q-35 2 -57.5 17t-33.5 36.5t-11 46t10.5 45t30 33.5t48.5 12t40 -19.5t10 -37.5q-1 -20 -14 -38.5
t-40 -14.5q-16 3 -23.5 14t-7 23t8 21t21.5 8q8 -1 11 -6t2 -12t-4.5 -13.5t-9.5 -10.5q10 -4 22 1.5t14 26.5q2 16 -9 26.5t-28 10.5q-17 -1 -35 -15t-20 -47q-2 -30 16 -52t44 -23q13 0 29.5 6t31.5 20t26.5 36t13.5 55q1 19 -5.5 37.5t-18.5 33t-29 24t-36 11.5
t-41.5 -8.5t-42.5 -34.5t-35 -61.5t-20 -88.5q-3 -36 -6 -72.5t-4 -75.5q26 -3 54.5 -6t57.5 -1q32 0 66 2q29 2 66.5 4.5t76.5 9.5q-3 -42 -5 -79t-3 -66q-2 -33 -2 -62q-4 -63 -2 -105.5t24 -57.5z" />
    <glyph glyph-name="fl" unicode="&#xfb02;" horiz-adv-x="567" 
d="M505 74q6 -8 16 -15q8 -6 22 -11.5t34 -7.5l1 -16q-28 4 -52 5t-43 2h-41q-22 -1 -43 -2q-18 -1 -37.5 -2t-34.5 -3l-6 12q23 8 37.5 20.5t22.5 25.5q10 15 14 31q7 31 11 80t5.5 105.5t1 115.5t-3.5 111t-8 91t-12 55q-6 13 -13.5 25.5t-17 23t-21.5 17.5t-26 8
q-19 2 -41.5 -8.5t-42.5 -34.5t-35 -61.5t-20 -88.5q-4 -40 -7 -81t-4 -85q23 -1 47 -1.5t45 -0.5t37.5 1t25.5 3q-5 -17 -7.5 -33t-0.5 -24q-40 8 -76 15t-71 9q0 -51 5.5 -108t17.5 -123q8 -42 16 -67t17.5 -40t22 -24t28.5 -19l-11 -17q-30 14 -64 22.5t-68.5 12
t-67.5 2.5t-61 -6l-1 29q15 1 28.5 2t26 10.5t23 32t18.5 66.5q11 57 15 113.5t2 113.5q-27 -2 -54 -9q5 11 5 24.5t-2 21.5q9 -1 21.5 -1.5t27.5 -1.5l-2 48t-3 48q-2 31 -2 69t4.5 75.5t16.5 71.5t33.5 59t55.5 36.5t83 4.5q49 -8 82.5 -30.5t54 -56t31 -76t14 -90t3 -98
t-1.5 -99.5q-1 -37 0.5 -80t5 -82t9.5 -70.5t15 -44.5z" />
    <glyph glyph-name="periodcentered" unicode="&#xb7;" horiz-adv-x="203" 
d="M95 414q23 2 39.5 -12.5t17.5 -34.5q0 -22 -16.5 -37.5t-39.5 -16.5q-23 -2 -39 12.5t-16 34.5q0 21 16 37t38 17z" />
    <glyph glyph-name="quotesinglbase" unicode="&#x201a;" horiz-adv-x="162" 
d="M81 93q22 1 37 -12t20 -35q4 -19 1.5 -39.5t-13 -38t-29.5 -30.5t-47 -16l-7 25q13 3 31 13t23 35q-8 -3 -16 -3q-23 -2 -39 12t-16 35q0 22 16 37t39 17z" />
    <glyph glyph-name="quotedblbase" unicode="&#x201e;" horiz-adv-x="293" 
d="M212 93q23 1 38 -12t20 -35q4 -19 1.5 -39.5t-13 -38t-30 -30.5t-47.5 -16l-7 25q15 3 32 13t22 35q-8 -3 -15 -3q-23 -2 -39 12t-17 35q0 22 16 37t39 17zM81 93q22 1 37 -12t20 -35q4 -19 1.5 -39.5t-13 -38t-29.5 -30.5t-47 -16l-7 25q13 3 31 13t23 35q-8 -3 -16 -3
q-23 -2 -39 12t-16 35q0 22 16 37t39 17z" />
    <glyph glyph-name="perthousand" unicode="&#x2030;" horiz-adv-x="906" 
d="M125 -28q-4 5 -11 13t-18 15.5t-26 13t-36 4.5q122 189 208.5 316.5t140.5 205.5q63 92 103 145q-20 -14 -40.5 -27t-43 -18.5t-46.5 -1t-50 24.5q-18 14 -32 23t-25 15q13 -22 22.5 -50.5t10.5 -68.5q0 -27 -11 -59t-33 -57.5t-55 -39.5t-77 -5q-41 8 -62 28t-28.5 45.5
t-5 52.5t8.5 49t23 51.5t44 55t63 40.5t80 8q25 -5 42.5 -17.5t34.5 -26t36.5 -24t48.5 -10.5q22 1 44 9q19 7 40.5 21.5t38.5 42.5q5 -8 17 -20.5t28 -17.5q-3 -3 -19.5 -25.5t-42 -59.5t-58.5 -87.5t-69 -109.5q-37 -62 -72.5 -125t-67.5 -123t-59 -113t-46 -93zM232 575
q4 22 2 44.5t-8.5 41t-16.5 31t-23 15.5t-31 -2t-35.5 -17.5t-33 -34t-24.5 -52.5q-8 -30 -6 -57.5t11.5 -48t25 -33t34.5 -12.5q20 0 37.5 10.5t31 28t23 40t13.5 46.5zM482 318q17 -1 35 -11t32.5 -29.5t23 -49.5t5.5 -72t-17.5 -74.5t-36.5 -54t-50 -32t-59 -8.5t-52 15
t-33.5 34t-17 47.5t-1.5 55.5q2 28 15.5 60.5t35.5 59.5t52.5 44t67.5 15zM521 156q8 66 -6 95t-41 32q-15 1 -31.5 -3t-32 -16t-28.5 -33t-20 -52q-7 -32 -5 -59.5t10.5 -48.5t23 -34t32.5 -14q36 -4 63 31t35 102zM779 318q17 -1 35 -11t32.5 -29.5t22.5 -49.5t5 -72
t-17 -74.5t-36 -54t-50 -32t-59 -8.5t-52 15t-33.5 34t-17 47.5t-1.5 55.5q2 28 15.5 60.5t35.5 59.5t52.5 44t67.5 15zM818 156q8 66 -6 95t-41 32q-15 1 -31.5 -3t-32 -16t-28.5 -33t-20 -52q-7 -32 -5 -59.5t10.5 -48.5t23 -34t32.5 -14q36 -4 63 31t35 102z" />
    <glyph glyph-name="Acircumflex" unicode="&#xc2;" horiz-adv-x="574" 
d="M113 231q-44 -4 -85.5 1.5t-74 22t-53 45t-23.5 70.5q-3 39 12.5 66t39.5 41t53.5 16.5t55 -7t43.5 -31t20 -53.5q3 -46 -19 -66t-53 -21t-53.5 13t-24.5 46q-1 16 3.5 27.5t11 19t15.5 11t17 3.5q17 1 27.5 -7.5t12.5 -25.5q1 -16 -9 -22.5t-23 -1.5q-9 3 -10.5 14
t3.5 20q-9 -2 -15 -9t-6 -21q0 -18 10 -30.5t38 -10.5q14 0 22.5 7t13.5 16t6.5 18.5t1.5 15.5t-2.5 18t-11 23.5t-24 20.5t-41.5 11q-27 1 -44 -8.5t-27 -24.5t-14 -32t-3 -30q1 -26 15.5 -47t43 -34.5t71 -18.5t98.5 2q15 38 29 79t26 81t21 78t13 70q9 76 -15 119.5
t-71 45.5l4 26q18 -3 51.5 -7t73.5 -6.5t80 -2t72 7.5l1 -16q-13 -4 -24 -8t-18 -10.5t-10 -17t1 -26.5q4 -17 13 -65t22 -113t30 -140t37 -144t40.5 -122t41.5 -86.5t43 -46t46 -1.5q12 7 21 19q8 11 14 28t7 43l15 3q4 -16 2 -40.5t-11 -48.5t-27 -42.5t-46 -21.5
q-23 -3 -51.5 2t-57 29t-55 74t-45.5 137q-5 25 -10 49.5t-10 47.5q-29 -2 -79 -5t-104 -7q-15 -63 -23 -112q-5 -30 -4.5 -49t5.5 -30.5t16.5 -18.5t29.5 -13l-1 -21q-17 4 -52 5t-74.5 -1.5t-78 -9t-60.5 -18.5l-8 34q21 9 35.5 12.5t25.5 10t21 20t21 40.5q9 20 24.5 57
t35.5 85h-1zM309 651q-8 -32 -20 -74t-25 -89.5t-26.5 -98.5t-25.5 -100q47 7 88.5 11t72.5 6q-23 108 -40 194t-24 151zM285 989q30 -32 64.5 -59t66.5 -45l-18 -40q-32 11 -62 36.5t-53 49.5l-96 -92l-30 41q39 30 64 51t39 34q17 15 25 24z" />
    <glyph glyph-name="Ecircumflex" unicode="&#xca;" horiz-adv-x="618" 
d="M-31 453q-69 1 -101 42t-26 102q3 30 21.5 60t54.5 52t91.5 32t132.5 1q17 -2 56 -4.5t91.5 -3t115 3t125.5 14.5q0 -21 -0.5 -54t-0.5 -68t2 -67.5t8 -51.5l-30 -4q0 52 -11.5 91t-42 62.5t-86 30.5t-144.5 -4q-9 -54 -14.5 -123.5t-5.5 -160.5q76 -17 116.5 11.5
t48.5 104.5l24 -4q-4 -21 -8 -54t-5.5 -71t0.5 -77.5t10 -73.5l-20 -8q-7 31 -15 57.5t-24.5 43t-46 21t-80.5 -8.5q2 -50 5 -105.5t8 -118.5q5 -10 13.5 -19.5t25.5 -17t44 -12t68 -4.5q57 -1 92.5 16.5t55 41.5t26 50.5t6.5 43.5l29 -3l-13 -206q-22 0 -59 -0.5t-82.5 -2
t-97 -4t-102 -6.5t-97 -10t-82.5 -14l-6 20q20 8 37 19.5t28.5 34.5t17.5 63.5t5 107.5q-1 60 -2.5 130t-3.5 136.5t-4 124t-3 92.5q-30 10 -72 9.5t-79.5 -15t-64 -44t-26.5 -76.5q0 -27 10 -47t26 -32.5t36.5 -18t42.5 -3.5q22 1 39 10t28 22.5t16 30.5t2 34q-5 33 -31 50
t-60 3q-14 -6 -26 -20t-10 -35q1 -11 8 -19.5t16.5 -11.5t20 -0.5t19.5 12.5q-9 0 -15.5 5t-6.5 15q0 6 4 11.5t10.5 8t14 1t13.5 -9.5t5 -20t-8.5 -22.5t-21 -17t-32.5 -4.5q-23 3 -35 19.5t-13 38.5q-2 25 17.5 49.5t56.5 27.5q29 3 47.5 -7t29 -25.5t14 -34t3.5 -33.5
q0 -14 -6.5 -31.5t-21 -32.5t-38 -25t-57.5 -10zM306 948q30 -32 64.5 -59t66.5 -45l-18 -40q-32 11 -62 36.5t-53 49.5l-96 -92l-30 41q39 30 64 51t39 34q17 15 25 24z" />
    <glyph glyph-name="Aacute" unicode="&#xc1;" horiz-adv-x="574" 
d="M113 231q-44 -4 -85.5 1.5t-74 22t-53 45t-23.5 70.5q-3 39 12.5 66t39.5 41t53.5 16.5t55 -7t43.5 -31t20 -53.5q3 -46 -19 -66t-53 -21t-53.5 13t-24.5 46q-1 16 3.5 27.5t11 19t15.5 11t17 3.5q17 1 27.5 -7.5t12.5 -25.5q1 -16 -9 -22.5t-23 -1.5q-9 3 -10.5 14
t3.5 20q-9 -2 -15 -9t-6 -21q0 -18 10 -30.5t38 -10.5q14 0 22.5 7t13.5 16t6.5 18.5t1.5 15.5t-2.5 18t-11 23.5t-24 20.5t-41.5 11q-27 1 -44 -8.5t-27 -24.5t-14 -32t-3 -30q1 -26 15.5 -47t43 -34.5t71 -18.5t98.5 2q15 38 29 79t26 81t21 78t13 70q9 76 -15 119.5
t-71 45.5l4 26q18 -3 51.5 -7t73.5 -6.5t80 -2t72 7.5l1 -16q-13 -4 -24 -8t-18 -10.5t-10 -17t1 -26.5q4 -17 13 -65t22 -113t30 -140t37 -144t40.5 -122t41.5 -86.5t43 -46t46 -1.5q12 7 21 19q8 11 14 28t7 43l15 3q4 -16 2 -40.5t-11 -48.5t-27 -42.5t-46 -21.5
q-23 -3 -51.5 2t-57 29t-55 74t-45.5 137q-5 25 -10 49.5t-10 47.5q-29 -2 -79 -5t-104 -7q-15 -63 -23 -112q-5 -30 -4.5 -49t5.5 -30.5t16.5 -18.5t29.5 -13l-1 -21q-17 4 -52 5t-74.5 -1.5t-78 -9t-60.5 -18.5l-8 34q21 9 35.5 12.5t25.5 10t21 20t21 40.5q9 20 24.5 57
t35.5 85h-1zM309 651q-8 -32 -20 -74t-25 -89.5t-26.5 -98.5t-25.5 -100q47 7 88.5 11t72.5 6q-23 108 -40 194t-24 151zM419 974q11 -9 18 -18t11 -16q4 -8 7 -15q-21 -11 -45.5 -24.5t-47 -27.5t-42.5 -28t-32 -25l-27 38q49 39 80 62t48 35q20 14 30 19z" />
    <glyph glyph-name="Edieresis" unicode="&#xcb;" horiz-adv-x="618" 
d="M-31 453q-69 1 -101 42t-26 102q3 30 21.5 60t54.5 52t91.5 32t132.5 1q17 -2 56 -4.5t91.5 -3t115 3t125.5 14.5q0 -21 -0.5 -54t-0.5 -68t2 -67.5t8 -51.5l-30 -4q0 52 -11.5 91t-42 62.5t-86 30.5t-144.5 -4q-9 -54 -14.5 -123.5t-5.5 -160.5q76 -17 116.5 11.5
t48.5 104.5l24 -4q-4 -21 -8 -54t-5.5 -71t0.5 -77.5t10 -73.5l-20 -8q-7 31 -15 57.5t-24.5 43t-46 21t-80.5 -8.5q2 -50 5 -105.5t8 -118.5q5 -10 13.5 -19.5t25.5 -17t44 -12t68 -4.5q57 -1 92.5 16.5t55 41.5t26 50.5t6.5 43.5l29 -3l-13 -206q-22 0 -59 -0.5t-82.5 -2
t-97 -4t-102 -6.5t-97 -10t-82.5 -14l-6 20q20 8 37 19.5t28.5 34.5t17.5 63.5t5 107.5q-1 60 -2.5 130t-3.5 136.5t-4 124t-3 92.5q-30 10 -72 9.5t-79.5 -15t-64 -44t-26.5 -76.5q0 -27 10 -47t26 -32.5t36.5 -18t42.5 -3.5q22 1 39 10t28 22.5t16 30.5t2 34q-5 33 -31 50
t-60 3q-14 -6 -26 -20t-10 -35q1 -11 8 -19.5t16.5 -11.5t20 -0.5t19.5 12.5q-9 0 -15.5 5t-6.5 15q0 6 4 11.5t10.5 8t14 1t13.5 -9.5t5 -20t-8.5 -22.5t-21 -17t-32.5 -4.5q-23 3 -35 19.5t-13 38.5q-2 25 17.5 49.5t56.5 27.5q29 3 47.5 -7t29 -25.5t14 -34t3.5 -33.5
q0 -14 -6.5 -31.5t-21 -32.5t-38 -25t-57.5 -10zM238 802q-20 -2 -31.5 8t-13.5 24q-3 14 8 27.5t31 15.5q21 3 32 -7t12 -24q2 -14 -7 -27t-31 -17zM402 807q-20 -6 -33 2.5t-15 20.5q-3 12 8 27t32 20q22 5 33.5 -3t13.5 -21q2 -14 -6.5 -27.5t-32.5 -18.5z" />
    <glyph glyph-name="Egrave" unicode="&#xc8;" horiz-adv-x="618" 
d="M-31 453q-69 1 -101 42t-26 102q3 30 21.5 60t54.5 52t91.5 32t132.5 1q17 -2 56 -4.5t91.5 -3t115 3t125.5 14.5q0 -21 -0.5 -54t-0.5 -68t2 -67.5t8 -51.5l-30 -4q0 52 -11.5 91t-42 62.5t-86 30.5t-144.5 -4q-9 -54 -14.5 -123.5t-5.5 -160.5q76 -17 116.5 11.5
t48.5 104.5l24 -4q-4 -21 -8 -54t-5.5 -71t0.5 -77.5t10 -73.5l-20 -8q-7 31 -15 57.5t-24.5 43t-46 21t-80.5 -8.5q2 -50 5 -105.5t8 -118.5q5 -10 13.5 -19.5t25.5 -17t44 -12t68 -4.5q57 -1 92.5 16.5t55 41.5t26 50.5t6.5 43.5l29 -3l-13 -206q-22 0 -59 -0.5t-82.5 -2
t-97 -4t-102 -6.5t-97 -10t-82.5 -14l-6 20q20 8 37 19.5t28.5 34.5t17.5 63.5t5 107.5q-1 60 -2.5 130t-3.5 136.5t-4 124t-3 92.5q-30 10 -72 9.5t-79.5 -15t-64 -44t-26.5 -76.5q0 -27 10 -47t26 -32.5t36.5 -18t42.5 -3.5q22 1 39 10t28 22.5t16 30.5t2 34q-5 33 -31 50
t-60 3q-14 -6 -26 -20t-10 -35q1 -11 8 -19.5t16.5 -11.5t20 -0.5t19.5 12.5q-9 0 -15.5 5t-6.5 15q0 6 4 11.5t10.5 8t14 1t13.5 -9.5t5 -20t-8.5 -22.5t-21 -17t-32.5 -4.5q-23 3 -35 19.5t-13 38.5q-2 25 17.5 49.5t56.5 27.5q29 3 47.5 -7t29 -25.5t14 -34t3.5 -33.5
q0 -14 -6.5 -31.5t-21 -32.5t-38 -25t-57.5 -10zM226 943q10 -5 30 -19q17 -12 48 -35t80 -62l-27 -38q-12 11 -32 25t-43 28t-47 27.5t-45 24.5q3 7 7 15q4 7 11 16t18 18z" />
    <glyph glyph-name="Iacute" unicode="&#xcd;" horiz-adv-x="281" 
d="M69 614q-3 30 -11.5 49t-18 30t-19 16t-15.5 8l5 22q40 -17 100.5 -16t155.5 26l4 -14q-11 -5 -22.5 -11.5t-23.5 -20t-23 -36t-19.5 -57.5t-14 -86t-6.5 -121q-1 -84 1.5 -155t12 -123.5t27.5 -84.5t48 -39l-14 -18q-15 2 -45 3t-64 -0.5t-65 -6t-48 -12.5l-4 13
q13 12 26 24.5t22.5 33.5t15.5 55t6 90q-1 61 -1.5 125t-2 122t-3 106t-4.5 78zM236 943q11 -9 18 -18t11 -16q4 -8 7 -15q-21 -11 -45.5 -24.5t-47 -27.5t-42.5 -28t-32 -25l-27 38q49 39 80 62t48 35q20 14 30 19z" />
    <glyph glyph-name="Icircumflex" unicode="&#xce;" horiz-adv-x="281" 
d="M69 614q-3 30 -11.5 49t-18 30t-19 16t-15.5 8l5 22q40 -17 100.5 -16t155.5 26l4 -14q-11 -5 -22.5 -11.5t-23.5 -20t-23 -36t-19.5 -57.5t-14 -86t-6.5 -121q-1 -84 1.5 -155t12 -123.5t27.5 -84.5t48 -39l-14 -18q-15 2 -45 3t-64 -0.5t-65 -6t-48 -12.5l-4 13
q13 12 26 24.5t22.5 33.5t15.5 55t6 90q-1 61 -1.5 125t-2 122t-3 106t-4.5 78zM132 969q30 -32 64.5 -59t66.5 -45l-18 -40q-32 11 -62 36.5t-53 49.5l-96 -92l-30 41q39 30 64 51t39 34q17 15 25 24z" />
    <glyph glyph-name="Idieresis" unicode="&#xcf;" horiz-adv-x="281" 
d="M69 614q-3 30 -11.5 49t-18 30t-19 16t-15.5 8l5 22q40 -17 100.5 -16t155.5 26l4 -14q-11 -5 -22.5 -11.5t-23.5 -20t-23 -36t-19.5 -57.5t-14 -86t-6.5 -121q-1 -84 1.5 -155t12 -123.5t27.5 -84.5t48 -39l-14 -18q-15 2 -45 3t-64 -0.5t-65 -6t-48 -12.5l-4 13
q13 12 26 24.5t22.5 33.5t15.5 55t6 90q-1 61 -1.5 125t-2 122t-3 106t-4.5 78zM55 802q-20 -2 -31.5 8t-13.5 24q-3 14 8 27.5t31 15.5q21 3 32 -7t12 -24q2 -14 -7 -27t-31 -17zM219 807q-20 -6 -33 2.5t-15 20.5q-3 12 8 27t32 20q22 5 33.5 -3t13.5 -21
q2 -14 -6.5 -27.5t-32.5 -18.5z" />
    <glyph glyph-name="Igrave" unicode="&#xcc;" horiz-adv-x="281" 
d="M69 614q-3 30 -11.5 49t-18 30t-19 16t-15.5 8l5 22q40 -17 100.5 -16t155.5 26l4 -14q-11 -5 -22.5 -11.5t-23.5 -20t-23 -36t-19.5 -57.5t-14 -86t-6.5 -121q-1 -84 1.5 -155t12 -123.5t27.5 -84.5t48 -39l-14 -18q-15 2 -45 3t-64 -0.5t-65 -6t-48 -12.5l-4 13
q13 12 26 24.5t22.5 33.5t15.5 55t6 90q-1 61 -1.5 125t-2 122t-3 106t-4.5 78zM11 953q10 -5 30 -19q17 -12 48 -35t80 -62l-27 -38q-12 11 -32 25t-43 28t-47 27.5t-45 24.5q3 7 7 15q4 7 11 16t18 18z" />
    <glyph glyph-name="Oacute" unicode="&#xd3;" 
d="M290 -63q-42 0 -91 25t-90.5 76.5t-68.5 131.5t-25 190q2 101 33.5 172.5t77.5 116.5t97.5 66t93.5 21q53 0 101.5 -23t86.5 -67.5t61.5 -110t26.5 -150.5q3 -94 -23 -176.5t-69.5 -143t-99.5 -95t-111 -33.5zM99 348q-1 -30 1 -66.5t9 -74.5t19.5 -74.5t31.5 -65.5
t45 -48t61 -21q34 -2 66 16t59.5 50t49.5 75t37 89.5t22 93t5 87.5q-3 38 -7 65.5t-11 47.5q0 -18 -3.5 -36.5t-12.5 -36.5t-24.5 -34t-39.5 -27q-36 -17 -68 -18.5t-57 9.5t-41.5 34.5t-20.5 57.5q-5 34 5.5 60.5t28.5 45t41 28.5t45 12q7 0 19 -1.5t24 -8t21 -20.5t10 -38
q1 -25 -10.5 -42.5t-28 -27.5t-34 -11.5t-29.5 4.5q-11 7 -13 17.5t2 20t12.5 15.5t18.5 4q15 -4 18.5 -16.5t0.5 -23.5q20 5 29.5 21t9 33t-11 30.5t-31.5 13.5q-38 0 -66 -24.5t-29 -70.5q0 -15 3 -32t12.5 -31t26.5 -22.5t46 -6.5q28 2 49.5 14.5t36 31t22.5 41.5t8 47
q1 43 -10 71.5t-28.5 46t-39 24.5t-41.5 8q-44 1 -85 -29.5t-74 -78.5t-54.5 -108.5t-24.5 -119.5zM409 933q11 -9 18 -18t11 -16q4 -8 7 -15q-21 -11 -45.5 -24.5t-47 -27.5t-42.5 -28t-32 -25l-27 38q49 39 80 62t48 35q20 14 30 19z" />
    <glyph glyph-name="Ocircumflex" unicode="&#xd4;" 
d="M290 -63q-42 0 -91 25t-90.5 76.5t-68.5 131.5t-25 190q2 101 33.5 172.5t77.5 116.5t97.5 66t93.5 21q53 0 101.5 -23t86.5 -67.5t61.5 -110t26.5 -150.5q3 -94 -23 -176.5t-69.5 -143t-99.5 -95t-111 -33.5zM99 348q-1 -30 1 -66.5t9 -74.5t19.5 -74.5t31.5 -65.5
t45 -48t61 -21q34 -2 66 16t59.5 50t49.5 75t37 89.5t22 93t5 87.5q-3 38 -7 65.5t-11 47.5q0 -18 -3.5 -36.5t-12.5 -36.5t-24.5 -34t-39.5 -27q-36 -17 -68 -18.5t-57 9.5t-41.5 34.5t-20.5 57.5q-5 34 5.5 60.5t28.5 45t41 28.5t45 12q7 0 19 -1.5t24 -8t21 -20.5t10 -38
q1 -25 -10.5 -42.5t-28 -27.5t-34 -11.5t-29.5 4.5q-11 7 -13 17.5t2 20t12.5 15.5t18.5 4q15 -4 18.5 -16.5t0.5 -23.5q20 5 29.5 21t9 33t-11 30.5t-31.5 13.5q-38 0 -66 -24.5t-29 -70.5q0 -15 3 -32t12.5 -31t26.5 -22.5t46 -6.5q28 2 49.5 14.5t36 31t22.5 41.5t8 47
q1 43 -10 71.5t-28.5 46t-39 24.5t-41.5 8q-44 1 -85 -29.5t-74 -78.5t-54.5 -108.5t-24.5 -119.5zM325 938q30 -32 64.5 -59t66.5 -45l-18 -40q-32 11 -62 36.5t-53 49.5l-96 -92l-30 41q39 30 64 51t39 34q17 15 25 24z" />
    <glyph glyph-name="Ograve" unicode="&#xd2;" 
d="M290 -63q-42 0 -91 25t-90.5 76.5t-68.5 131.5t-25 190q2 101 33.5 172.5t77.5 116.5t97.5 66t93.5 21q53 0 101.5 -23t86.5 -67.5t61.5 -110t26.5 -150.5q3 -94 -23 -176.5t-69.5 -143t-99.5 -95t-111 -33.5zM99 348q-1 -30 1 -66.5t9 -74.5t19.5 -74.5t31.5 -65.5
t45 -48t61 -21q34 -2 66 16t59.5 50t49.5 75t37 89.5t22 93t5 87.5q-3 38 -7 65.5t-11 47.5q0 -18 -3.5 -36.5t-12.5 -36.5t-24.5 -34t-39.5 -27q-36 -17 -68 -18.5t-57 9.5t-41.5 34.5t-20.5 57.5q-5 34 5.5 60.5t28.5 45t41 28.5t45 12q7 0 19 -1.5t24 -8t21 -20.5t10 -38
q1 -25 -10.5 -42.5t-28 -27.5t-34 -11.5t-29.5 4.5q-11 7 -13 17.5t2 20t12.5 15.5t18.5 4q15 -4 18.5 -16.5t0.5 -23.5q20 5 29.5 21t9 33t-11 30.5t-31.5 13.5q-38 0 -66 -24.5t-29 -70.5q0 -15 3 -32t12.5 -31t26.5 -22.5t46 -6.5q28 2 49.5 14.5t36 31t22.5 41.5t8 47
q1 43 -10 71.5t-28.5 46t-39 24.5t-41.5 8q-44 1 -85 -29.5t-74 -78.5t-54.5 -108.5t-24.5 -119.5zM256 933q10 -5 30 -19q17 -12 48 -35t80 -62l-27 -38q-12 11 -32 25t-43 28t-47 27.5t-45 24.5q3 7 7 15q4 7 11 16t18 18z" />
    <glyph glyph-name="Uacute" unicode="&#xda;" horiz-adv-x="637" 
d="M50 330q12 88 16.5 158t-2.5 118.5t-27 75.5t-57 29l4 21q24 -3 51 -7.5t57.5 -7t63.5 -2t68 6.5l-2 -23q-9 -3 -20.5 -18.5t-22.5 -47t-20.5 -80.5t-15.5 -119q-3 -46 -5.5 -98t0 -101.5t12.5 -94t30 -77.5t53 -50t83 -12q41 4 66 36t38 83.5t16.5 118t1.5 139.5
q-2 80 -4 135.5t-16 93.5q-12 31 -31.5 43.5t-46.5 20.5l3 24q57 -6 119.5 -6t116.5 11l3 -17q-14 -8 -26.5 -19.5t-22 -29.5t-15.5 -43t-7 -59q0 -34 0.5 -78.5t3 -96t6.5 -108.5t10 -116q7 -59 21.5 -96t32 -50.5t35.5 -2t33 50.5l15 -10q-4 -20 -17.5 -39t-33 -30.5
t-42 -13.5t-44.5 12.5t-41 48.5t-31 93q-9 -26 -22 -53.5t-35 -49t-56 -34t-85 -9.5q-123 7 -179 104t-32 276zM419 912q11 -9 18 -18t11 -16q4 -8 7 -15q-21 -11 -45.5 -24.5t-47 -27.5t-42.5 -28t-32 -25l-27 38q49 39 80 62t48 35q20 14 30 19z" />
    <glyph glyph-name="Ucircumflex" unicode="&#xdb;" horiz-adv-x="637" 
d="M50 330q12 88 16.5 158t-2.5 118.5t-27 75.5t-57 29l4 21q24 -3 51 -7.5t57.5 -7t63.5 -2t68 6.5l-2 -23q-9 -3 -20.5 -18.5t-22.5 -47t-20.5 -80.5t-15.5 -119q-3 -46 -5.5 -98t0 -101.5t12.5 -94t30 -77.5t53 -50t83 -12q41 4 66 36t38 83.5t16.5 118t1.5 139.5
q-2 80 -4 135.5t-16 93.5q-12 31 -31.5 43.5t-46.5 20.5l3 24q57 -6 119.5 -6t116.5 11l3 -17q-14 -8 -26.5 -19.5t-22 -29.5t-15.5 -43t-7 -59q0 -34 0.5 -78.5t3 -96t6.5 -108.5t10 -116q7 -59 21.5 -96t32 -50.5t35.5 -2t33 50.5l15 -10q-4 -20 -17.5 -39t-33 -30.5
t-42 -13.5t-44.5 12.5t-41 48.5t-31 93q-9 -26 -22 -53.5t-35 -49t-56 -34t-85 -9.5q-123 7 -179 104t-32 276zM296 928q30 -32 64.5 -59t66.5 -45l-18 -40q-32 11 -62 36.5t-53 49.5l-96 -92l-30 41q39 30 64 51t39 34q17 15 25 24z" />
    <glyph glyph-name="Ugrave" unicode="&#xd9;" horiz-adv-x="637" 
d="M50 330q12 88 16.5 158t-2.5 118.5t-27 75.5t-57 29l4 21q24 -3 51 -7.5t57.5 -7t63.5 -2t68 6.5l-2 -23q-9 -3 -20.5 -18.5t-22.5 -47t-20.5 -80.5t-15.5 -119q-3 -46 -5.5 -98t0 -101.5t12.5 -94t30 -77.5t53 -50t83 -12q41 4 66 36t38 83.5t16.5 118t1.5 139.5
q-2 80 -4 135.5t-16 93.5q-12 31 -31.5 43.5t-46.5 20.5l3 24q57 -6 119.5 -6t116.5 11l3 -17q-14 -8 -26.5 -19.5t-22 -29.5t-15.5 -43t-7 -59q0 -34 0.5 -78.5t3 -96t6.5 -108.5t10 -116q7 -59 21.5 -96t32 -50.5t35.5 -2t33 50.5l15 -10q-4 -20 -17.5 -39t-33 -30.5
t-42 -13.5t-44.5 12.5t-41 48.5t-31 93q-9 -26 -22 -53.5t-35 -49t-56 -34t-85 -9.5q-123 7 -179 104t-32 276zM237 912q10 -5 30 -19q17 -12 48 -35t80 -62l-27 -38q-12 11 -32 25t-43 28t-47 27.5t-45 24.5q3 7 7 15q4 7 11 16t18 18z" />
    <glyph glyph-name="dotlessi" unicode="&#x131;" horiz-adv-x="253" 
d="M15 5q23 8 38 21t23 26q10 15 13 31q22 102 22 194.5t-14 158.5q-4 21 -15 39q-9 15 -25 28.5t-41 17.5l-1 16q20 -2 37.5 -2.5t30.5 -0.5h28q12 -1 24 -1q11 -1 22.5 -1t22.5 -2q-3 -36 -5 -73.5t-3 -67.5q-2 -35 -2 -68q-2 -37 -3 -80.5t1 -82.5t7 -68.5t16 -38.5
q6 -4 16 -8q8 -4 21.5 -8t33.5 -8l1 -17q-20 1 -38.5 0.5t-32.5 -0.5q-17 -1 -32 -1q-21 -1 -45 -4q-20 -2 -45 -5t-48 -7l-7 12v0z" />
    <glyph glyph-name="circumflex" unicode="&#x2c6;" 
d="M315 764q30 -32 64.5 -59t66.5 -45l-18 -40q-32 11 -62 36.5t-53 49.5l-96 -92l-30 41q39 30 64 51t39 34q17 15 25 24z" />
    <glyph glyph-name="tilde" unicode="&#x2dc;" 
d="M312 708q25 -12 44 -15t33.5 0.5t25 11t18.5 15.5l31 -38q-29 -24 -65.5 -27.5t-71.5 17.5q-16 9 -34 10t-35 -3.5t-30.5 -14t-20.5 -22.5l-37 35q7 8 21 18.5t32.5 17.5t41 7t47.5 -12z" />
    <glyph glyph-name="macron" unicode="&#xaf;" 
d="M420 739q-3 -10 -2 -23.5t10 -23.5q-18 0 -48 -2.5t-61.5 -8t-59 -12.5t-41.5 -15q-2 20 -3 33t-9 27q18 3 48 6t61.5 6t60 6.5t44.5 6.5z" />
    <glyph glyph-name="breve" unicode="&#x2d8;" 
d="M215 753q15 -29 32.5 -44.5t31.5 -23.5q17 -9 34 -10q17 1 35 10q15 8 34 24.5t38 48.5l29 -24q-25 -39 -49.5 -60t-44.5 -31q-24 -11 -45 -13q-21 2 -43 13q-19 10 -40.5 30t-41.5 58l30 22v0z" />
    <glyph glyph-name="dotaccent" unicode="&#x2d9;" 
d="M321 659q-20 -2 -32 8t-14 24t9 27.5t31 15.5q21 3 31.5 -7t12.5 -24q1 -14 -7.5 -27t-30.5 -17z" />
    <glyph glyph-name="ring" unicode="&#x2da;" 
d="M347 783q15 -5 25.5 -17t16.5 -26.5t8 -30.5t0 -29q-2 -15 -9 -29t-18.5 -24.5t-27.5 -15.5t-35 -2q-17 3 -32.5 11t-25.5 22t-13 32.5t3 42.5q4 16 15 31t26 25t32.5 13t34.5 -3zM358 691q3 16 -2 34.5t-24 22.5q-12 2 -21 -1.5t-15.5 -10.5t-10.5 -15t-5 -15
q-2 -8 -1 -17t4 -17t8 -14.5t11 -8.5q17 -5 34 8.5t22 33.5z" />
    <glyph glyph-name="cedilla" unicode="&#xb8;" 
d="M323 -18q15 1 28.5 0.5t24 -5.5t17 -16t8.5 -32q3 -20 -3.5 -40t-19.5 -35.5t-30 -24.5t-36 -8q-38 3 -56.5 26t-24.5 52q19 -18 40.5 -27.5t41.5 -4.5q13 3 24.5 18t14 30.5t-6.5 27.5t-36 9q-27 -2 -42 3.5t-21 17.5t-4.5 30t6.5 40l59 2q-5 -11 -9 -22.5t-3.5 -21
t6.5 -15.5t22 -4z" />
    <glyph glyph-name="hungarumlaut" unicode="&#x2dd;" 
d="M291 769q11 -9 17 -18t11 -16q4 -8 8 -15q-21 -11 -45.5 -24.5t-47 -27.5t-42.5 -28t-32 -25l-27 38q49 39 80 62t48 35q20 14 30 19zM465 769q11 -9 18 -18t11 -16q4 -8 7 -15q-21 -11 -45.5 -24.5t-47 -27.5t-42.5 -28t-32 -25l-27 38q49 39 80 62t48 35q20 14 30 19z
" />
    <glyph glyph-name="ogonek" unicode="&#x2db;" 
d="M279 -94q12 -6 33 -6q18 0 47.5 6t74.5 24l4 -18q-49 -35 -88 -47t-67 -11q-33 0 -57 13q-20 14 -27 36q-6 19 -1.5 49t34.5 74h43q-23 -31 -25.5 -53t4.5 -37q7 -18 25 -30z" />
    <glyph glyph-name="caron" unicode="&#x2c7;" 
d="M318 614q-29 31 -64 58t-67 46l19 40q32 -12 62 -36.5t53 -49.5l96 92l29 -42q-39 -30 -64 -50.5t-39 -33.5q-17 -15 -25 -24z" />
    <glyph glyph-name="currency" unicode="&#xa4;" horiz-adv-x="484" 
d="M409 355q1 -32 -8 -64.5t-26 -59.5l48 -64l-39 -32l-47 56q-20 -14 -44.5 -21.5t-55.5 -6.5q-56 0 -99 30l-47 -80l-47 41l57 73q-17 22 -27.5 51.5t-11.5 64.5q0 32 11 61t28 52l-65 69l43 36l53 -74q27 23 58.5 35.5t60.5 11.5q41 -3 74 -24l53 63l36 -32l-53 -63
q22 -25 35 -56.5t13 -66.5zM229 215q27 -1 48 11.5t35 33t21.5 47t7.5 53.5t-8.5 49t-22.5 37.5t-31.5 23.5t-35.5 8q-25 0 -45.5 -14.5t-35 -35.5t-22.5 -45.5t-8 -43.5q0 -20 5 -41.5t16.5 -39.5t30 -30t45.5 -13z" />
    <glyph glyph-name="sfthyphen" unicode="&#xad;" horiz-adv-x="475" 
d="M41 385q47 0 105.5 -0.5t113 0.5t98.5 4t61 8q0 -6 -2.5 -14t-4.5 -17t-2.5 -19.5t3.5 -21.5q-10 2 -35 3.5t-58.5 2t-72 -0.5t-76 -3t-70 -6t-53.5 -10q-4 18 -2 37t-5 37z" />
  </font>
</defs>
</svg>
